<?xml version="1.0" encoding="UTF-8"?>
<svg width="640px" height="349px" viewBox="0 0 640 349" version="1.1" xmlns="http://www.w3.org/2000/svg" xmlns:xlink="http://www.w3.org/1999/xlink">
    <title>Closed Card Sorting</title>
    <g id="Closed-Card-Sorting" stroke="none" stroke-width="1" fill="none" fill-rule="evenodd">
        <rect fill="#FFF0E5" x="0" y="0" width="640" height="349"></rect>
        <path d="M640,0 L640,349 L0,349 L0,0 L640,0 Z M639,1 L1,1 L1,348 L639,348 L639,1 Z" id="Rectangle" fill="#10162F" fill-rule="nonzero"></path>
        <rect id="Rectangle" fill="#FFFFFF" x="20" y="61" width="294" height="268"></rect>
        <path d="M314,61 L314,329 L20,329 L20,61 L314,61 Z M313,62 L21,62 L21,328 L313,328 L313,62 Z" id="Rectangle" fill="#10162F" fill-rule="nonzero"></path>
        <rect id="Rectangle-Copy-2" fill="#FFFFFF" x="326" y="61" width="294" height="268"></rect>
        <path d="M620,61 L620,329 L326,329 L326,61 L620,61 Z M619,62 L327,62 L327,328 L619,328 L619,62 Z" id="Rectangle-Copy-2" fill="#10162F" fill-rule="nonzero"></path>
        <g id="Step-1:" transform="translate(142.928000, 80.192000)" fill="#10162F" fill-rule="nonzero">
            <path d="M3.136,6.336 L4.4,6.64 C5.664,6.928 6.576,7.472 6.576,8.672 C6.576,10 5.392,10.608 4.24,10.608 C2.752,10.608 1.664,9.744 1.504,8.192 L0,8.192 C0.128,10.496 1.84,12.016 4.192,12.016 C6.432,12.016 8.112,10.72 8.112,8.56 C8.112,6.352 6.48,5.536 4.608,5.12 L3.456,4.864 C2.528,4.656 1.776,4.16 1.776,3.136 C1.776,1.936 2.88,1.408 3.936,1.408 C4.992,1.408 6.192,1.872 6.368,3.264 L7.872,3.264 C7.616,0.96 5.808,0 4.016,0 C1.936,0 0.208,1.184 0.208,3.184 C0.208,5.024 1.616,6 3.136,6.336 Z" id="Path"></path>
            <path d="M12.384,3.2 L9.936,3.2 L9.936,4.464 L12.384,4.464 L12.384,9.648 C12.384,11.44 12.832,11.808 14.4,11.808 L17.376,11.808 L17.376,10.544 L14.72,10.544 C13.904,10.544 13.856,10.32 13.856,9.44 L13.856,4.464 L17.376,4.464 L17.376,3.2 L13.856,3.2 L13.856,1.04 L12.384,1.04 L12.384,3.2 Z" id="Path"></path>
            <path d="M24.784,12.016 C26.8,12.016 28.144,10.864 28.496,9.232 L26.976,9.232 C26.672,10.208 26.032,10.816 24.752,10.816 C23.392,10.816 22.432,9.68 22.432,7.952 L28.624,7.952 C28.736,4.88 27.296,3.04 24.784,3.04 C22.512,3.04 20.88,4.768 20.88,7.536 C20.88,10.08 22.176,12.016 24.784,12.016 Z M24.784,4.256 C26.288,4.256 27.072,5.328 27.056,6.736 L22.448,6.736 C22.512,5.072 23.392,4.256 24.784,4.256 Z" id="Shape"></path>
            <path d="M33.136,3.2 L31.664,3.2 L31.664,14.608 L33.136,14.608 L33.136,10.592 C33.616,11.408 34.4,12.016 35.68,12.016 C37.664,12.016 39.152,10.384 39.152,7.536 C39.152,4.704 37.664,3.056 35.68,3.056 C34.4,3.056 33.616,3.664 33.136,4.496 L33.136,3.2 Z M33.072,7.536 C33.072,5.264 34.144,4.288 35.376,4.288 C36.848,4.288 37.6,5.488 37.6,7.536 C37.6,9.584 36.848,10.8 35.376,10.8 C34.144,10.8 33.072,9.808 33.072,7.536 Z" id="Shape"></path>
            <path d="M55.808,0.208 C55.216,1.472 54.272,1.68 52.336,1.728 L52.336,2.736 L55.296,2.736 L55.296,10.544 L52.336,10.544 L52.336,11.808 L59.2,11.808 L59.2,10.544 L56.768,10.544 L56.768,0.208 L55.808,0.208 Z" id="Path"></path>
            <path d="M66.992,5.04 L66.992,3.2 L65.152,3.2 L65.152,5.04 L66.992,5.04 Z M66.992,11.808 L66.992,9.968 L65.152,9.968 L65.152,11.808 L66.992,11.808 Z" id="Shape"></path>
        </g>
        <g id="Participant-receives" transform="translate(84.593000, 108.575000)" fill="#10162F" fill-rule="nonzero">
            <path d="M0,-5.68434189e-14 L0,9.425 L1.235,9.425 L1.235,5.798 L2.314,5.798 C4.381,5.798 5.967,5.239 5.967,2.899 C5.967,0.559 4.381,-5.68434189e-14 2.314,-5.68434189e-14 L0,-5.68434189e-14 Z M2.47,1.17 C3.731,1.17 4.693,1.365 4.693,2.899 C4.693,4.433 3.731,4.628 2.47,4.628 L1.235,4.628 L1.235,1.17 L2.47,1.17 Z" id="Shape"></path>
            <path d="M10.322,9.594 C11.622,9.594 12.35,9.126 12.779,8.398 L12.792,9.425 L13.936,9.425 C13.897,8.957 13.832,7.956 13.845,6.786 L13.858,5.083 C13.884,3.146 13.052,2.288 11.115,2.288 C9.659,2.288 8.333,3.133 8.216,4.641 L9.438,4.641 C9.516,3.783 10.023,3.25 11.102,3.25 C12.012,3.25 12.675,3.614 12.675,4.823 L12.675,5.122 C9.815,5.434 8.047,5.941 8.047,7.605 C8.047,8.866 9.061,9.594 10.322,9.594 Z M12.766,6.266 C12.766,8.125 11.726,8.632 10.66,8.632 C9.815,8.632 9.334,8.242 9.334,7.579 C9.334,6.578 10.634,6.279 12.766,6.071 L12.766,6.266 Z" id="Shape"></path>
            <path d="M16.341,2.431 L16.341,3.458 L18.33,3.458 L18.33,8.398 L16.354,8.398 L16.354,9.425 L21.918,9.425 L21.918,8.398 L19.526,8.398 L19.526,5.941 C19.526,4.407 20.046,3.523 21.385,3.523 L22.568,3.523 L22.568,2.431 L21.372,2.431 C20.514,2.431 19.838,2.899 19.5,3.679 L19.5,2.431 L16.341,2.431 Z" id="Path"></path>
            <path d="M26.182,2.431 L24.193,2.431 L24.193,3.458 L26.182,3.458 L26.182,7.67 C26.182,9.126 26.546,9.425 27.82,9.425 L30.238,9.425 L30.238,8.398 L28.08,8.398 C27.417,8.398 27.378,8.216 27.378,7.501 L27.378,3.458 L30.238,3.458 L30.238,2.431 L27.378,2.431 L27.378,0.676 L26.182,0.676 L26.182,2.431 Z" id="Path"></path>
            <path d="M35.737,-5.68434189e-14 L35.737,1.417 L36.933,1.417 L36.933,-5.68434189e-14 L35.737,-5.68434189e-14 Z M33.761,2.431 L33.761,3.458 L35.737,3.458 L35.737,8.398 L33.761,8.398 L33.761,9.425 L38.922,9.425 L38.922,8.398 L36.933,8.398 L36.933,2.431 L33.761,2.431 Z" id="Shape"></path>
            <path d="M44.746,2.314 C42.744,2.314 41.535,3.874 41.535,5.954 C41.535,8.086 42.692,9.594 44.629,9.594 C46.189,9.594 47.437,8.567 47.632,7.176 L46.397,7.176 C46.241,7.93 45.643,8.619 44.694,8.619 C43.654,8.619 42.796,7.735 42.796,5.954 C42.796,4.199 43.654,3.302 44.694,3.302 C45.552,3.302 46.189,3.9 46.345,4.758 L47.554,4.758 C47.45,3.497 46.371,2.314 44.746,2.314 Z" id="Path"></path>
            <path d="M52.533,-5.68434189e-14 L52.533,1.417 L53.729,1.417 L53.729,-5.68434189e-14 L52.533,-5.68434189e-14 Z M50.557,2.431 L50.557,3.458 L52.533,3.458 L52.533,8.398 L50.557,8.398 L50.557,9.425 L55.718,9.425 L55.718,8.398 L53.729,8.398 L53.729,2.431 L50.557,2.431 Z" id="Shape"></path>
            <path d="M59.839,2.431 L58.643,2.431 L58.643,11.7 L59.839,11.7 L59.839,8.437 C60.229,9.1 60.866,9.594 61.906,9.594 C63.518,9.594 64.727,8.268 64.727,5.954 C64.727,3.653 63.518,2.314 61.906,2.314 C60.866,2.314 60.229,2.808 59.839,3.484 L59.839,2.431 Z M59.787,5.954 C59.787,4.108 60.658,3.315 61.659,3.315 C62.855,3.315 63.466,4.29 63.466,5.954 C63.466,7.618 62.855,8.606 61.659,8.606 C60.658,8.606 59.787,7.8 59.787,5.954 Z" id="Shape"></path>
            <path d="M69.108,9.594 C70.408,9.594 71.136,9.126 71.565,8.398 L71.578,9.425 L72.722,9.425 C72.683,8.957 72.618,7.956 72.631,6.786 L72.644,5.083 C72.67,3.146 71.838,2.288 69.901,2.288 C68.445,2.288 67.119,3.133 67.002,4.641 L68.224,4.641 C68.302,3.783 68.809,3.25 69.888,3.25 C70.798,3.25 71.461,3.614 71.461,4.823 L71.461,5.122 C68.601,5.434 66.833,5.941 66.833,7.605 C66.833,8.866 67.847,9.594 69.108,9.594 Z M71.552,6.266 C71.552,8.125 70.512,8.632 69.446,8.632 C68.601,8.632 68.12,8.242 68.12,7.579 C68.12,6.578 69.42,6.279 71.552,6.071 L71.552,6.266 Z" id="Shape"></path>
            <path d="M76.687,2.431 L75.491,2.431 L75.491,9.425 L76.687,9.425 L76.687,5.629 C76.687,4.134 77.272,3.328 78.351,3.328 C79.651,3.328 79.742,4.264 79.742,5.395 L79.742,9.425 L80.938,9.425 L80.938,4.979 C80.938,3.432 80.431,2.314 78.741,2.314 C77.636,2.314 77.038,2.821 76.687,3.419 L76.687,2.431 Z" id="Path"></path>
            <path d="M84.968,2.431 L82.979,2.431 L82.979,3.458 L84.968,3.458 L84.968,7.67 C84.968,9.126 85.332,9.425 86.606,9.425 L89.024,9.425 L89.024,8.398 L86.866,8.398 C86.203,8.398 86.164,8.216 86.164,7.501 L86.164,3.458 L89.024,3.458 L89.024,2.431 L86.164,2.431 L86.164,0.676 L84.968,0.676 L84.968,2.431 Z" id="Path"></path>
            <path d="M100.321,2.431 L100.321,3.458 L102.31,3.458 L102.31,8.398 L100.334,8.398 L100.334,9.425 L105.898,9.425 L105.898,8.398 L103.506,8.398 L103.506,5.941 C103.506,4.407 104.026,3.523 105.365,3.523 L106.548,3.523 L106.548,2.431 L105.352,2.431 C104.494,2.431 103.818,2.899 103.48,3.679 L103.48,2.431 L100.321,2.431 Z" id="Path"></path>
            <path d="M111.839,9.594 C113.477,9.594 114.569,8.658 114.855,7.332 L113.62,7.332 C113.373,8.125 112.853,8.619 111.813,8.619 C110.708,8.619 109.928,7.696 109.928,6.292 L114.959,6.292 C115.05,3.796 113.88,2.301 111.839,2.301 C109.993,2.301 108.667,3.705 108.667,5.954 C108.667,8.021 109.72,9.594 111.839,9.594 Z M111.839,3.289 C113.061,3.289 113.698,4.16 113.685,5.304 L109.941,5.304 C109.993,3.952 110.708,3.289 111.839,3.289 Z" id="Shape"></path>
            <path d="M120.328,2.314 C118.326,2.314 117.117,3.874 117.117,5.954 C117.117,8.086 118.274,9.594 120.211,9.594 C121.771,9.594 123.019,8.567 123.214,7.176 L121.979,7.176 C121.823,7.93 121.225,8.619 120.276,8.619 C119.236,8.619 118.378,7.735 118.378,5.954 C118.378,4.199 119.236,3.302 120.276,3.302 C121.134,3.302 121.771,3.9 121.927,4.758 L123.136,4.758 C123.032,3.497 121.953,2.314 120.328,2.314 Z" id="Path"></path>
            <path d="M128.635,9.594 C130.273,9.594 131.365,8.658 131.651,7.332 L130.416,7.332 C130.169,8.125 129.649,8.619 128.609,8.619 C127.504,8.619 126.724,7.696 126.724,6.292 L131.755,6.292 C131.846,3.796 130.676,2.301 128.635,2.301 C126.789,2.301 125.463,3.705 125.463,5.954 C125.463,8.021 126.516,9.594 128.635,9.594 Z M128.635,3.289 C129.857,3.289 130.494,4.16 130.481,5.304 L126.737,5.304 C126.789,3.952 127.504,3.289 128.635,3.289 Z" id="Shape"></path>
            <path d="M136.513,-5.68434189e-14 L136.513,1.417 L137.709,1.417 L137.709,-5.68434189e-14 L136.513,-5.68434189e-14 Z M134.537,2.431 L134.537,3.458 L136.513,3.458 L136.513,8.398 L134.537,8.398 L134.537,9.425 L139.698,9.425 L139.698,8.398 L137.709,8.398 L137.709,2.431 L134.537,2.431 Z" id="Shape"></path>
            <polygon id="Path" points="143.637 2.431 142.298 2.431 144.82 9.425 145.964 9.425 148.486 2.431 147.238 2.431 145.444 7.787"></polygon>
            <path d="M153.829,9.594 C155.467,9.594 156.559,8.658 156.845,7.332 L155.61,7.332 C155.363,8.125 154.843,8.619 153.803,8.619 C152.698,8.619 151.918,7.696 151.918,6.292 L156.949,6.292 C157.04,3.796 155.87,2.301 153.829,2.301 C151.983,2.301 150.657,3.705 150.657,5.954 C150.657,8.021 151.71,9.594 153.829,9.594 Z M153.829,3.289 C155.051,3.289 155.688,4.16 155.675,5.304 L151.931,5.304 C151.983,3.952 152.698,3.289 153.829,3.289 Z" id="Shape"></path>
            <path d="M164.879,4.342 C164.619,3.094 163.605,2.314 162.123,2.314 C160.953,2.314 159.484,2.899 159.484,4.251 C159.484,5.46 160.355,6.006 161.46,6.227 L162.331,6.396 C163.215,6.552 163.8,6.877 163.8,7.527 C163.8,8.346 162.981,8.606 162.24,8.606 C161.265,8.606 160.771,8.138 160.615,7.332 L159.354,7.332 C159.484,8.45 160.394,9.594 162.214,9.594 C163.735,9.594 165.009,8.866 165.009,7.384 C165.009,5.98 163.709,5.525 162.5,5.291 L161.72,5.135 C161.031,4.992 160.667,4.745 160.667,4.199 C160.667,3.575 161.369,3.302 162.071,3.302 C162.864,3.302 163.475,3.562 163.631,4.342 L164.879,4.342 Z" id="Path"></path>
            <path d="M18.72,26.594 C20.02,26.594 20.748,26.126 21.177,25.398 L21.19,26.425 L22.334,26.425 C22.295,25.957 22.23,24.956 22.243,23.786 L22.256,22.083 C22.282,20.146 21.45,19.288 19.513,19.288 C18.057,19.288 16.731,20.133 16.614,21.641 L17.836,21.641 C17.914,20.783 18.421,20.25 19.5,20.25 C20.41,20.25 21.073,20.614 21.073,21.823 L21.073,22.122 C18.213,22.434 16.445,22.941 16.445,24.605 C16.445,25.866 17.459,26.594 18.72,26.594 Z M21.164,23.266 C21.164,25.125 20.124,25.632 19.058,25.632 C18.213,25.632 17.732,25.242 17.732,24.579 C17.732,23.578 19.032,23.279 21.164,23.071 L21.164,23.266 Z" id="Shape"></path>
            <path d="M38.909,21.342 C38.649,20.094 37.635,19.314 36.153,19.314 C34.983,19.314 33.514,19.899 33.514,21.251 C33.514,22.46 34.385,23.006 35.49,23.227 L36.361,23.396 C37.245,23.552 37.83,23.877 37.83,24.527 C37.83,25.346 37.011,25.606 36.27,25.606 C35.295,25.606 34.801,25.138 34.645,24.332 L33.384,24.332 C33.514,25.45 34.424,26.594 36.244,26.594 C37.765,26.594 39.039,25.866 39.039,24.384 C39.039,22.98 37.739,22.525 36.53,22.291 L35.75,22.135 C35.061,21.992 34.697,21.745 34.697,21.199 C34.697,20.575 35.399,20.302 36.101,20.302 C36.894,20.302 37.505,20.562 37.661,21.342 L38.909,21.342 Z" id="Path"></path>
            <path d="M42.978,19.431 L40.989,19.431 L40.989,20.458 L42.978,20.458 L42.978,24.67 C42.978,26.126 43.342,26.425 44.616,26.425 L47.034,26.425 L47.034,25.398 L44.876,25.398 C44.213,25.398 44.174,25.216 44.174,24.501 L44.174,20.458 L47.034,20.458 L47.034,19.431 L44.174,19.431 L44.174,17.676 L42.978,17.676 L42.978,19.431 Z" id="Path"></path>
            <path d="M52.312,26.594 C53.612,26.594 54.34,26.126 54.769,25.398 L54.782,26.425 L55.926,26.425 C55.887,25.957 55.822,24.956 55.835,23.786 L55.848,22.083 C55.874,20.146 55.042,19.288 53.105,19.288 C51.649,19.288 50.323,20.133 50.206,21.641 L51.428,21.641 C51.506,20.783 52.013,20.25 53.092,20.25 C54.002,20.25 54.665,20.614 54.665,21.823 L54.665,22.122 C51.805,22.434 50.037,22.941 50.037,24.605 C50.037,25.866 51.051,26.594 52.312,26.594 Z M54.756,23.266 C54.756,25.125 53.716,25.632 52.65,25.632 C51.805,25.632 51.324,25.242 51.324,24.579 C51.324,23.578 52.624,23.279 54.756,23.071 L54.756,23.266 Z" id="Shape"></path>
            <path d="M61.542,19.314 C59.54,19.314 58.331,20.874 58.331,22.954 C58.331,25.086 59.488,26.594 61.425,26.594 C62.985,26.594 64.233,25.567 64.428,24.176 L63.193,24.176 C63.037,24.93 62.439,25.619 61.49,25.619 C60.45,25.619 59.592,24.735 59.592,22.954 C59.592,21.199 60.45,20.302 61.49,20.302 C62.348,20.302 62.985,20.9 63.141,21.758 L64.35,21.758 C64.246,20.497 63.167,19.314 61.542,19.314 Z" id="Path"></path>
            <polygon id="Path" points="67.184 17 67.184 26.425 68.38 26.425 68.38 24.007 69.459 22.941 71.916 26.425 73.281 26.425 70.265 22.148 73.008 19.431 71.474 19.431 68.38 22.616 68.38 17"></polygon>
            <path d="M84.63,22.954 C84.63,21.095 85.54,20.315 86.606,20.315 C87.672,20.315 88.582,21.095 88.582,22.954 C88.582,24.813 87.672,25.593 86.606,25.593 C85.54,25.593 84.63,24.813 84.63,22.954 Z M83.369,22.954 C83.369,25.489 85.007,26.594 86.606,26.594 C88.205,26.594 89.843,25.489 89.843,22.954 C89.843,20.419 88.205,19.314 86.606,19.314 C85.007,19.314 83.369,20.419 83.369,22.954 Z" id="Shape"></path>
            <path d="M93.665,19.431 L91.806,19.431 L91.806,20.458 L93.665,20.458 L93.665,26.425 L94.861,26.425 L94.861,20.458 L97.994,20.458 L97.994,19.431 L94.861,19.431 L94.861,18.924 C94.861,18.196 94.965,18.014 95.55,18.014 L97.994,18.014 L97.994,17 L95.524,17 C94.016,17 93.665,17.468 93.665,18.924 L93.665,19.431 Z" id="Path"></path>
            <path d="M111.93,19.314 C109.928,19.314 108.719,20.874 108.719,22.954 C108.719,25.086 109.876,26.594 111.813,26.594 C113.373,26.594 114.621,25.567 114.816,24.176 L113.581,24.176 C113.425,24.93 112.827,25.619 111.878,25.619 C110.838,25.619 109.98,24.735 109.98,22.954 C109.98,21.199 110.838,20.302 111.878,20.302 C112.736,20.302 113.373,20.9 113.529,21.758 L114.738,21.758 C114.634,20.497 113.555,19.314 111.93,19.314 Z" id="Path"></path>
            <path d="M119.496,26.594 C120.796,26.594 121.524,26.126 121.953,25.398 L121.966,26.425 L123.11,26.425 C123.071,25.957 123.006,24.956 123.019,23.786 L123.032,22.083 C123.058,20.146 122.226,19.288 120.289,19.288 C118.833,19.288 117.507,20.133 117.39,21.641 L118.612,21.641 C118.69,20.783 119.197,20.25 120.276,20.25 C121.186,20.25 121.849,20.614 121.849,21.823 L121.849,22.122 C118.989,22.434 117.221,22.941 117.221,24.605 C117.221,25.866 118.235,26.594 119.496,26.594 Z M121.94,23.266 C121.94,25.125 120.9,25.632 119.834,25.632 C118.989,25.632 118.508,25.242 118.508,24.579 C118.508,23.578 119.808,23.279 121.94,23.071 L121.94,23.266 Z" id="Shape"></path>
            <path d="M125.515,19.431 L125.515,20.458 L127.504,20.458 L127.504,25.398 L125.528,25.398 L125.528,26.425 L131.092,26.425 L131.092,25.398 L128.7,25.398 L128.7,22.941 C128.7,21.407 129.22,20.523 130.559,20.523 L131.742,20.523 L131.742,19.431 L130.546,19.431 C129.688,19.431 129.012,19.899 128.674,20.679 L128.674,19.431 L125.515,19.431 Z" id="Path"></path>
            <path d="M138.567,20.484 C138.177,19.808 137.553,19.314 136.5,19.314 C134.888,19.314 133.679,20.653 133.679,22.954 C133.679,25.268 134.888,26.594 136.5,26.594 C137.553,26.594 138.177,26.1 138.567,25.437 L138.58,26.425 L139.763,26.425 L139.763,17 L138.567,17 L138.567,20.484 Z M138.619,22.954 C138.619,24.787 137.748,25.606 136.747,25.606 C135.551,25.606 134.94,24.618 134.94,22.954 C134.94,21.29 135.551,20.315 136.747,20.315 C137.748,20.315 138.619,21.108 138.619,22.954 Z" id="Shape"></path>
            <path d="M148.083,21.342 C147.823,20.094 146.809,19.314 145.327,19.314 C144.157,19.314 142.688,19.899 142.688,21.251 C142.688,22.46 143.559,23.006 144.664,23.227 L145.535,23.396 C146.419,23.552 147.004,23.877 147.004,24.527 C147.004,25.346 146.185,25.606 145.444,25.606 C144.469,25.606 143.975,25.138 143.819,24.332 L142.558,24.332 C142.688,25.45 143.598,26.594 145.418,26.594 C146.939,26.594 148.213,25.866 148.213,24.384 C148.213,22.98 146.913,22.525 145.704,22.291 L144.924,22.135 C144.235,21.992 143.871,21.745 143.871,21.199 C143.871,20.575 144.573,20.302 145.275,20.302 C146.068,20.302 146.679,20.562 146.835,21.342 L148.083,21.342 Z" id="Path"></path>
        </g>
        <g id="Participant-sorts-ca" transform="translate(347.940000, 108.575000)" fill="#10162F" fill-rule="nonzero">
            <path d="M9.061,0 L9.061,9.425 L10.296,9.425 L10.296,5.798 L11.375,5.798 C13.442,5.798 15.028,5.239 15.028,2.899 C15.028,0.559 13.442,0 11.375,0 L9.061,0 Z M11.531,1.17 C12.792,1.17 13.754,1.365 13.754,2.899 C13.754,4.433 12.792,4.628 11.531,4.628 L10.296,4.628 L10.296,1.17 L11.531,1.17 Z" id="Shape"></path>
            <path d="M19.383,9.594 C20.683,9.594 21.411,9.126 21.84,8.398 L21.853,9.425 L22.997,9.425 C22.958,8.957 22.893,7.956 22.906,6.786 L22.919,5.083 C22.945,3.146 22.113,2.288 20.176,2.288 C18.72,2.288 17.394,3.133 17.277,4.641 L18.499,4.641 C18.577,3.783 19.084,3.25 20.163,3.25 C21.073,3.25 21.736,3.614 21.736,4.823 L21.736,5.122 C18.876,5.434 17.108,5.941 17.108,7.605 C17.108,8.866 18.122,9.594 19.383,9.594 Z M21.827,6.266 C21.827,8.125 20.787,8.632 19.721,8.632 C18.876,8.632 18.395,8.242 18.395,7.579 C18.395,6.578 19.695,6.279 21.827,6.071 L21.827,6.266 Z" id="Shape"></path>
            <path d="M25.402,2.431 L25.402,3.458 L27.391,3.458 L27.391,8.398 L25.415,8.398 L25.415,9.425 L30.979,9.425 L30.979,8.398 L28.587,8.398 L28.587,5.941 C28.587,4.407 29.107,3.523 30.446,3.523 L31.629,3.523 L31.629,2.431 L30.433,2.431 C29.575,2.431 28.899,2.899 28.561,3.679 L28.561,2.431 L25.402,2.431 Z" id="Path"></path>
            <path d="M35.243,2.431 L33.254,2.431 L33.254,3.458 L35.243,3.458 L35.243,7.67 C35.243,9.126 35.607,9.425 36.881,9.425 L39.299,9.425 L39.299,8.398 L37.141,8.398 C36.478,8.398 36.439,8.216 36.439,7.501 L36.439,3.458 L39.299,3.458 L39.299,2.431 L36.439,2.431 L36.439,0.676 L35.243,0.676 L35.243,2.431 Z" id="Path"></path>
            <path d="M44.798,0 L44.798,1.417 L45.994,1.417 L45.994,0 L44.798,0 Z M42.822,2.431 L42.822,3.458 L44.798,3.458 L44.798,8.398 L42.822,8.398 L42.822,9.425 L47.983,9.425 L47.983,8.398 L45.994,8.398 L45.994,2.431 L42.822,2.431 Z" id="Shape"></path>
            <path d="M53.807,2.314 C51.805,2.314 50.596,3.874 50.596,5.954 C50.596,8.086 51.753,9.594 53.69,9.594 C55.25,9.594 56.498,8.567 56.693,7.176 L55.458,7.176 C55.302,7.93 54.704,8.619 53.755,8.619 C52.715,8.619 51.857,7.735 51.857,5.954 C51.857,4.199 52.715,3.302 53.755,3.302 C54.613,3.302 55.25,3.9 55.406,4.758 L56.615,4.758 C56.511,3.497 55.432,2.314 53.807,2.314 Z" id="Path"></path>
            <path d="M61.594,0 L61.594,1.417 L62.79,1.417 L62.79,0 L61.594,0 Z M59.618,2.431 L59.618,3.458 L61.594,3.458 L61.594,8.398 L59.618,8.398 L59.618,9.425 L64.779,9.425 L64.779,8.398 L62.79,8.398 L62.79,2.431 L59.618,2.431 Z" id="Shape"></path>
            <path d="M68.9,2.431 L67.704,2.431 L67.704,11.7 L68.9,11.7 L68.9,8.437 C69.29,9.1 69.927,9.594 70.967,9.594 C72.579,9.594 73.788,8.268 73.788,5.954 C73.788,3.653 72.579,2.314 70.967,2.314 C69.927,2.314 69.29,2.808 68.9,3.484 L68.9,2.431 Z M68.848,5.954 C68.848,4.108 69.719,3.315 70.72,3.315 C71.916,3.315 72.527,4.29 72.527,5.954 C72.527,7.618 71.916,8.606 70.72,8.606 C69.719,8.606 68.848,7.8 68.848,5.954 Z" id="Shape"></path>
            <path d="M78.169,9.594 C79.469,9.594 80.197,9.126 80.626,8.398 L80.639,9.425 L81.783,9.425 C81.744,8.957 81.679,7.956 81.692,6.786 L81.705,5.083 C81.731,3.146 80.899,2.288 78.962,2.288 C77.506,2.288 76.18,3.133 76.063,4.641 L77.285,4.641 C77.363,3.783 77.87,3.25 78.949,3.25 C79.859,3.25 80.522,3.614 80.522,4.823 L80.522,5.122 C77.662,5.434 75.894,5.941 75.894,7.605 C75.894,8.866 76.908,9.594 78.169,9.594 Z M80.613,6.266 C80.613,8.125 79.573,8.632 78.507,8.632 C77.662,8.632 77.181,8.242 77.181,7.579 C77.181,6.578 78.481,6.279 80.613,6.071 L80.613,6.266 Z" id="Shape"></path>
            <path d="M85.748,2.431 L84.552,2.431 L84.552,9.425 L85.748,9.425 L85.748,5.629 C85.748,4.134 86.333,3.328 87.412,3.328 C88.712,3.328 88.803,4.264 88.803,5.395 L88.803,9.425 L89.999,9.425 L89.999,4.979 C89.999,3.432 89.492,2.314 87.802,2.314 C86.697,2.314 86.099,2.821 85.748,3.419 L85.748,2.431 Z" id="Path"></path>
            <path d="M94.029,2.431 L92.04,2.431 L92.04,3.458 L94.029,3.458 L94.029,7.67 C94.029,9.126 94.393,9.425 95.667,9.425 L98.085,9.425 L98.085,8.398 L95.927,8.398 C95.264,8.398 95.225,8.216 95.225,7.501 L95.225,3.458 L98.085,3.458 L98.085,2.431 L95.225,2.431 L95.225,0.676 L94.029,0.676 L94.029,2.431 Z" id="Path"></path>
            <path d="M115.154,4.342 C114.894,3.094 113.88,2.314 112.398,2.314 C111.228,2.314 109.759,2.899 109.759,4.251 C109.759,5.46 110.63,6.006 111.735,6.227 L112.606,6.396 C113.49,6.552 114.075,6.877 114.075,7.527 C114.075,8.346 113.256,8.606 112.515,8.606 C111.54,8.606 111.046,8.138 110.89,7.332 L109.629,7.332 C109.759,8.45 110.669,9.594 112.489,9.594 C114.01,9.594 115.284,8.866 115.284,7.384 C115.284,5.98 113.984,5.525 112.775,5.291 L111.995,5.135 C111.306,4.992 110.942,4.745 110.942,4.199 C110.942,3.575 111.644,3.302 112.346,3.302 C113.139,3.302 113.75,3.562 113.906,4.342 L115.154,4.342 Z" id="Path"></path>
            <path d="M118.885,5.954 C118.885,4.095 119.795,3.315 120.861,3.315 C121.927,3.315 122.837,4.095 122.837,5.954 C122.837,7.813 121.927,8.593 120.861,8.593 C119.795,8.593 118.885,7.813 118.885,5.954 Z M117.624,5.954 C117.624,8.489 119.262,9.594 120.861,9.594 C122.46,9.594 124.098,8.489 124.098,5.954 C124.098,3.419 122.46,2.314 120.861,2.314 C119.262,2.314 117.624,3.419 117.624,5.954 Z" id="Shape"></path>
            <path d="M126.178,2.431 L126.178,3.458 L128.167,3.458 L128.167,8.398 L126.191,8.398 L126.191,9.425 L131.755,9.425 L131.755,8.398 L129.363,8.398 L129.363,5.941 C129.363,4.407 129.883,3.523 131.222,3.523 L132.405,3.523 L132.405,2.431 L131.209,2.431 C130.351,2.431 129.675,2.899 129.337,3.679 L129.337,2.431 L126.178,2.431 Z" id="Path"></path>
            <path d="M136.019,2.431 L134.03,2.431 L134.03,3.458 L136.019,3.458 L136.019,7.67 C136.019,9.126 136.383,9.425 137.657,9.425 L140.075,9.425 L140.075,8.398 L137.917,8.398 C137.254,8.398 137.215,8.216 137.215,7.501 L137.215,3.458 L140.075,3.458 L140.075,2.431 L137.215,2.431 L137.215,0.676 L136.019,0.676 L136.019,2.431 Z" id="Path"></path>
            <path d="M148.746,4.342 C148.486,3.094 147.472,2.314 145.99,2.314 C144.82,2.314 143.351,2.899 143.351,4.251 C143.351,5.46 144.222,6.006 145.327,6.227 L146.198,6.396 C147.082,6.552 147.667,6.877 147.667,7.527 C147.667,8.346 146.848,8.606 146.107,8.606 C145.132,8.606 144.638,8.138 144.482,7.332 L143.221,7.332 C143.351,8.45 144.261,9.594 146.081,9.594 C147.602,9.594 148.876,8.866 148.876,7.384 C148.876,5.98 147.576,5.525 146.367,5.291 L145.587,5.135 C144.898,4.992 144.534,4.745 144.534,4.199 C144.534,3.575 145.236,3.302 145.938,3.302 C146.731,3.302 147.342,3.562 147.498,4.342 L148.746,4.342 Z" id="Path"></path>
            <path d="M162.981,2.314 C160.979,2.314 159.77,3.874 159.77,5.954 C159.77,8.086 160.927,9.594 162.864,9.594 C164.424,9.594 165.672,8.567 165.867,7.176 L164.632,7.176 C164.476,7.93 163.878,8.619 162.929,8.619 C161.889,8.619 161.031,7.735 161.031,5.954 C161.031,4.199 161.889,3.302 162.929,3.302 C163.787,3.302 164.424,3.9 164.58,4.758 L165.789,4.758 C165.685,3.497 164.606,2.314 162.981,2.314 Z" id="Path"></path>
            <path d="M170.547,9.594 C171.847,9.594 172.575,9.126 173.004,8.398 L173.017,9.425 L174.161,9.425 C174.122,8.957 174.057,7.956 174.07,6.786 L174.083,5.083 C174.109,3.146 173.277,2.288 171.34,2.288 C169.884,2.288 168.558,3.133 168.441,4.641 L169.663,4.641 C169.741,3.783 170.248,3.25 171.327,3.25 C172.237,3.25 172.9,3.614 172.9,4.823 L172.9,5.122 C170.04,5.434 168.272,5.941 168.272,7.605 C168.272,8.866 169.286,9.594 170.547,9.594 Z M172.991,6.266 C172.991,8.125 171.951,8.632 170.885,8.632 C170.04,8.632 169.559,8.242 169.559,7.579 C169.559,6.578 170.859,6.279 172.991,6.071 L172.991,6.266 Z" id="Shape"></path>
            <path d="M176.566,2.431 L176.566,3.458 L178.555,3.458 L178.555,8.398 L176.579,8.398 L176.579,9.425 L182.143,9.425 L182.143,8.398 L179.751,8.398 L179.751,5.941 C179.751,4.407 180.271,3.523 181.61,3.523 L182.793,3.523 L182.793,2.431 L181.597,2.431 C180.739,2.431 180.063,2.899 179.725,3.679 L179.725,2.431 L176.566,2.431 Z" id="Path"></path>
            <path d="M189.618,3.484 C189.228,2.808 188.604,2.314 187.551,2.314 C185.939,2.314 184.73,3.653 184.73,5.954 C184.73,8.268 185.939,9.594 187.551,9.594 C188.604,9.594 189.228,9.1 189.618,8.437 L189.631,9.425 L190.814,9.425 L190.814,0 L189.618,0 L189.618,3.484 Z M189.67,5.954 C189.67,7.787 188.799,8.606 187.798,8.606 C186.602,8.606 185.991,7.618 185.991,5.954 C185.991,4.29 186.602,3.315 187.798,3.315 C188.799,3.315 189.67,4.108 189.67,5.954 Z" id="Shape"></path>
            <path d="M199.134,4.342 C198.874,3.094 197.86,2.314 196.378,2.314 C195.208,2.314 193.739,2.899 193.739,4.251 C193.739,5.46 194.61,6.006 195.715,6.227 L196.586,6.396 C197.47,6.552 198.055,6.877 198.055,7.527 C198.055,8.346 197.236,8.606 196.495,8.606 C195.52,8.606 195.026,8.138 194.87,7.332 L193.609,7.332 C193.739,8.45 194.649,9.594 196.469,9.594 C197.99,9.594 199.264,8.866 199.264,7.384 C199.264,5.98 197.964,5.525 196.755,5.291 L195.975,5.135 C195.286,4.992 194.922,4.745 194.922,4.199 C194.922,3.575 195.624,3.302 196.326,3.302 C197.119,3.302 197.73,3.562 197.886,4.342 L199.134,4.342 Z" id="Path"></path>
            <path d="M212.758,0 L212.758,1.417 L213.954,1.417 L213.954,0 L212.758,0 Z M210.782,2.431 L210.782,3.458 L212.758,3.458 L212.758,8.398 L210.782,8.398 L210.782,9.425 L215.943,9.425 L215.943,8.398 L213.954,8.398 L213.954,2.431 L210.782,2.431 Z" id="Shape"></path>
            <path d="M220.116,2.431 L218.92,2.431 L218.92,9.425 L220.116,9.425 L220.116,5.629 C220.116,4.134 220.701,3.328 221.78,3.328 C223.08,3.328 223.171,4.264 223.171,5.395 L223.171,9.425 L224.367,9.425 L224.367,4.979 C224.367,3.432 223.86,2.314 222.17,2.314 C221.065,2.314 220.467,2.821 220.116,3.419 L220.116,2.431 Z" id="Path"></path>
            <path d="M228.397,2.431 L226.408,2.431 L226.408,3.458 L228.397,3.458 L228.397,7.67 C228.397,9.126 228.761,9.425 230.035,9.425 L232.453,9.425 L232.453,8.398 L230.295,8.398 C229.632,8.398 229.593,8.216 229.593,7.501 L229.593,3.458 L232.453,3.458 L232.453,2.431 L229.593,2.431 L229.593,0.676 L228.397,0.676 L228.397,2.431 Z" id="Path"></path>
            <path d="M236.457,5.954 C236.457,4.095 237.367,3.315 238.433,3.315 C239.499,3.315 240.409,4.095 240.409,5.954 C240.409,7.813 239.499,8.593 238.433,8.593 C237.367,8.593 236.457,7.813 236.457,5.954 Z M235.196,5.954 C235.196,8.489 236.834,9.594 238.433,9.594 C240.032,9.594 241.67,8.489 241.67,5.954 C241.67,3.419 240.032,2.314 238.433,2.314 C236.834,2.314 235.196,3.419 235.196,5.954 Z" id="Shape"></path>
            <path d="M4.888,20.484 C4.498,19.808 3.874,19.314 2.821,19.314 C1.209,19.314 0,20.51 0,22.811 C0,25.125 1.209,26.308 2.821,26.308 C3.874,26.308 4.498,25.827 4.888,25.151 L4.888,25.827 C4.888,26.776 4.758,27.101 4.524,27.374 C4.238,27.712 3.692,27.894 3.094,27.894 C2.067,27.894 1.703,27.465 1.534,26.828 L0.273,26.828 C0.481,28.206 1.56,28.934 3.081,28.934 C4.069,28.934 5.031,28.596 5.525,28.011 C5.902,27.569 6.084,26.984 6.084,25.554 L6.084,19.431 L4.888,19.431 L4.888,20.484 Z M4.94,22.811 C4.94,24.644 4.069,25.32 3.068,25.32 C1.872,25.32 1.261,24.475 1.261,22.811 C1.261,21.147 1.872,20.315 3.068,20.315 C4.069,20.315 4.94,20.965 4.94,22.811 Z" id="Shape"></path>
            <path d="M8.606,19.431 L8.606,20.458 L10.595,20.458 L10.595,25.398 L8.619,25.398 L8.619,26.425 L14.183,26.425 L14.183,25.398 L11.791,25.398 L11.791,22.941 C11.791,21.407 12.311,20.523 13.65,20.523 L14.833,20.523 L14.833,19.431 L13.637,19.431 C12.779,19.431 12.103,19.899 11.765,20.679 L11.765,19.431 L8.606,19.431 Z" id="Path"></path>
            <path d="M18.109,22.954 C18.109,21.095 19.019,20.315 20.085,20.315 C21.151,20.315 22.061,21.095 22.061,22.954 C22.061,24.813 21.151,25.593 20.085,25.593 C19.019,25.593 18.109,24.813 18.109,22.954 Z M16.848,22.954 C16.848,25.489 18.486,26.594 20.085,26.594 C21.684,26.594 23.322,25.489 23.322,22.954 C23.322,20.419 21.684,19.314 20.085,19.314 C18.486,19.314 16.848,20.419 16.848,22.954 Z" id="Shape"></path>
            <path d="M29.991,26.425 L31.187,26.425 L31.187,19.431 L29.991,19.431 L29.991,23.279 C29.991,24.774 29.406,25.567 28.327,25.567 C27.027,25.567 26.962,24.644 26.962,23.513 L26.962,19.431 L25.766,19.431 L25.766,23.929 C25.766,25.476 26.247,26.594 27.937,26.594 C29.055,26.594 29.614,26.126 29.991,25.528 L29.991,26.425 Z" id="Path"></path>
            <path d="M35.308,19.431 L34.112,19.431 L34.112,28.7 L35.308,28.7 L35.308,25.437 C35.698,26.1 36.335,26.594 37.375,26.594 C38.987,26.594 40.196,25.268 40.196,22.954 C40.196,20.653 38.987,19.314 37.375,19.314 C36.335,19.314 35.698,19.808 35.308,20.484 L35.308,19.431 Z M35.256,22.954 C35.256,21.108 36.127,20.315 37.128,20.315 C38.324,20.315 38.935,21.29 38.935,22.954 C38.935,24.618 38.324,25.606 37.128,25.606 C36.127,25.606 35.256,24.8 35.256,22.954 Z" id="Shape"></path>
            <path d="M47.97,21.342 C47.71,20.094 46.696,19.314 45.214,19.314 C44.044,19.314 42.575,19.899 42.575,21.251 C42.575,22.46 43.446,23.006 44.551,23.227 L45.422,23.396 C46.306,23.552 46.891,23.877 46.891,24.527 C46.891,25.346 46.072,25.606 45.331,25.606 C44.356,25.606 43.862,25.138 43.706,24.332 L42.445,24.332 C42.575,25.45 43.485,26.594 45.305,26.594 C46.826,26.594 48.1,25.866 48.1,24.384 C48.1,22.98 46.8,22.525 45.591,22.291 L44.811,22.135 C44.122,21.992 43.758,21.745 43.758,21.199 C43.758,20.575 44.46,20.302 45.162,20.302 C45.955,20.302 46.566,20.562 46.722,21.342 L47.97,21.342 Z" id="Path"></path>
            <path d="M60.437,19.431 L58.448,19.431 L58.448,20.458 L60.437,20.458 L60.437,24.67 C60.437,26.126 60.801,26.425 62.075,26.425 L64.493,26.425 L64.493,25.398 L62.335,25.398 C61.672,25.398 61.633,25.216 61.633,24.501 L61.633,20.458 L64.493,20.458 L64.493,19.431 L61.633,19.431 L61.633,17.676 L60.437,17.676 L60.437,19.431 Z" id="Path"></path>
            <path d="M71.019,19.314 C69.94,19.314 69.316,19.808 68.952,20.419 L68.952,17 L67.756,17 L67.756,26.425 L68.952,26.425 L68.952,22.629 C68.952,21.134 69.55,20.315 70.629,20.315 C71.929,20.315 72.007,21.264 72.007,22.395 L72.007,26.425 L73.203,26.425 L73.203,21.979 C73.203,20.432 72.709,19.314 71.019,19.314 Z" id="Path"></path>
            <path d="M78.91,26.594 C80.548,26.594 81.64,25.658 81.926,24.332 L80.691,24.332 C80.444,25.125 79.924,25.619 78.884,25.619 C77.779,25.619 76.999,24.696 76.999,23.292 L82.03,23.292 C82.121,20.796 80.951,19.301 78.91,19.301 C77.064,19.301 75.738,20.705 75.738,22.954 C75.738,25.021 76.791,26.594 78.91,26.594 Z M78.91,20.289 C80.132,20.289 80.769,21.16 80.756,22.304 L77.012,22.304 C77.064,20.952 77.779,20.289 78.91,20.289 Z" id="Shape"></path>
            <path d="M92.586,19.431 L92.586,20.458 L94.575,20.458 L94.575,25.398 L92.599,25.398 L92.599,26.425 L98.163,26.425 L98.163,25.398 L95.771,25.398 L95.771,22.941 C95.771,21.407 96.291,20.523 97.63,20.523 L98.813,20.523 L98.813,19.431 L97.617,19.431 C96.759,19.431 96.083,19.899 95.745,20.679 L95.745,19.431 L92.586,19.431 Z" id="Path"></path>
            <path d="M104.104,26.594 C105.742,26.594 106.834,25.658 107.12,24.332 L105.885,24.332 C105.638,25.125 105.118,25.619 104.078,25.619 C102.973,25.619 102.193,24.696 102.193,23.292 L107.224,23.292 C107.315,20.796 106.145,19.301 104.104,19.301 C102.258,19.301 100.932,20.705 100.932,22.954 C100.932,25.021 101.985,26.594 104.104,26.594 Z M104.104,20.289 C105.326,20.289 105.963,21.16 105.95,22.304 L102.206,22.304 C102.258,20.952 102.973,20.289 104.104,20.289 Z" id="Shape"></path>
            <path d="M115.154,21.342 C114.894,20.094 113.88,19.314 112.398,19.314 C111.228,19.314 109.759,19.899 109.759,21.251 C109.759,22.46 110.63,23.006 111.735,23.227 L112.606,23.396 C113.49,23.552 114.075,23.877 114.075,24.527 C114.075,25.346 113.256,25.606 112.515,25.606 C111.54,25.606 111.046,25.138 110.89,24.332 L109.629,24.332 C109.759,25.45 110.669,26.594 112.489,26.594 C114.01,26.594 115.284,25.866 115.284,24.384 C115.284,22.98 113.984,22.525 112.775,22.291 L111.995,22.135 C111.306,21.992 110.942,21.745 110.942,21.199 C110.942,20.575 111.644,20.302 112.346,20.302 C113.139,20.302 113.75,20.562 113.906,21.342 L115.154,21.342 Z" id="Path"></path>
            <path d="M120.9,26.594 C122.538,26.594 123.63,25.658 123.916,24.332 L122.681,24.332 C122.434,25.125 121.914,25.619 120.874,25.619 C119.769,25.619 118.989,24.696 118.989,23.292 L124.02,23.292 C124.111,20.796 122.941,19.301 120.9,19.301 C119.054,19.301 117.728,20.705 117.728,22.954 C117.728,25.021 118.781,26.594 120.9,26.594 Z M120.9,20.289 C122.122,20.289 122.759,21.16 122.746,22.304 L119.002,22.304 C119.054,20.952 119.769,20.289 120.9,20.289 Z" id="Shape"></path>
            <path d="M128.557,26.594 C129.857,26.594 130.585,26.126 131.014,25.398 L131.027,26.425 L132.171,26.425 C132.132,25.957 132.067,24.956 132.08,23.786 L132.093,22.083 C132.119,20.146 131.287,19.288 129.35,19.288 C127.894,19.288 126.568,20.133 126.451,21.641 L127.673,21.641 C127.751,20.783 128.258,20.25 129.337,20.25 C130.247,20.25 130.91,20.614 130.91,21.823 L130.91,22.122 C128.05,22.434 126.282,22.941 126.282,24.605 C126.282,25.866 127.296,26.594 128.557,26.594 Z M131.001,23.266 C131.001,25.125 129.961,25.632 128.895,25.632 C128.05,25.632 127.569,25.242 127.569,24.579 C127.569,23.578 128.869,23.279 131.001,23.071 L131.001,23.266 Z" id="Shape"></path>
            <path d="M134.576,19.431 L134.576,20.458 L136.565,20.458 L136.565,25.398 L134.589,25.398 L134.589,26.425 L140.153,26.425 L140.153,25.398 L137.761,25.398 L137.761,22.941 C137.761,21.407 138.281,20.523 139.62,20.523 L140.803,20.523 L140.803,19.431 L139.607,19.431 C138.749,19.431 138.073,19.899 137.735,20.679 L137.735,19.431 L134.576,19.431 Z" id="Path"></path>
            <path d="M146.185,19.314 C144.183,19.314 142.974,20.874 142.974,22.954 C142.974,25.086 144.131,26.594 146.068,26.594 C147.628,26.594 148.876,25.567 149.071,24.176 L147.836,24.176 C147.68,24.93 147.082,25.619 146.133,25.619 C145.093,25.619 144.235,24.735 144.235,22.954 C144.235,21.199 145.093,20.302 146.133,20.302 C146.991,20.302 147.628,20.9 147.784,21.758 L148.993,21.758 C148.889,20.497 147.81,19.314 146.185,19.314 Z" id="Path"></path>
            <path d="M154.999,19.314 C153.92,19.314 153.296,19.808 152.932,20.419 L152.932,17 L151.736,17 L151.736,26.425 L152.932,26.425 L152.932,22.629 C152.932,21.134 153.53,20.315 154.609,20.315 C155.909,20.315 155.987,21.264 155.987,22.395 L155.987,26.425 L157.183,26.425 L157.183,21.979 C157.183,20.432 156.689,19.314 154.999,19.314 Z" id="Path"></path>
            <path d="M162.89,26.594 C164.528,26.594 165.62,25.658 165.906,24.332 L164.671,24.332 C164.424,25.125 163.904,25.619 162.864,25.619 C161.759,25.619 160.979,24.696 160.979,23.292 L166.01,23.292 C166.101,20.796 164.931,19.301 162.89,19.301 C161.044,19.301 159.718,20.705 159.718,22.954 C159.718,25.021 160.771,26.594 162.89,26.594 Z M162.89,20.289 C164.112,20.289 164.749,21.16 164.736,22.304 L160.992,22.304 C161.044,20.952 161.759,20.289 162.89,20.289 Z" id="Shape"></path>
            <path d="M168.168,19.431 L168.168,20.458 L170.157,20.458 L170.157,25.398 L168.181,25.398 L168.181,26.425 L173.745,26.425 L173.745,25.398 L171.353,25.398 L171.353,22.941 C171.353,21.407 171.873,20.523 173.212,20.523 L174.395,20.523 L174.395,19.431 L173.199,19.431 C172.341,19.431 171.665,19.899 171.327,20.679 L171.327,19.431 L168.168,19.431 Z" id="Path"></path>
            <path d="M188.591,19.314 C187.512,19.314 186.888,19.808 186.524,20.419 L186.524,17 L185.328,17 L185.328,26.425 L186.524,26.425 L186.524,22.629 C186.524,21.134 187.122,20.315 188.201,20.315 C189.501,20.315 189.579,21.264 189.579,22.395 L189.579,26.425 L190.775,26.425 L190.775,21.979 C190.775,20.432 190.281,19.314 188.591,19.314 Z" id="Path"></path>
            <path d="M195.741,26.594 C197.041,26.594 197.769,26.126 198.198,25.398 L198.211,26.425 L199.355,26.425 C199.316,25.957 199.251,24.956 199.264,23.786 L199.277,22.083 C199.303,20.146 198.471,19.288 196.534,19.288 C195.078,19.288 193.752,20.133 193.635,21.641 L194.857,21.641 C194.935,20.783 195.442,20.25 196.521,20.25 C197.431,20.25 198.094,20.614 198.094,21.823 L198.094,22.122 C195.234,22.434 193.466,22.941 193.466,24.605 C193.466,25.866 194.48,26.594 195.741,26.594 Z M198.185,23.266 C198.185,25.125 197.145,25.632 196.079,25.632 C195.234,25.632 194.753,25.242 194.753,24.579 C194.753,23.578 196.053,23.279 198.185,23.071 L198.185,23.266 Z" id="Shape"></path>
            <path d="M207.532,21.342 C207.272,20.094 206.258,19.314 204.776,19.314 C203.606,19.314 202.137,19.899 202.137,21.251 C202.137,22.46 203.008,23.006 204.113,23.227 L204.984,23.396 C205.868,23.552 206.453,23.877 206.453,24.527 C206.453,25.346 205.634,25.606 204.893,25.606 C203.918,25.606 203.424,25.138 203.268,24.332 L202.007,24.332 C202.137,25.45 203.047,26.594 204.867,26.594 C206.388,26.594 207.662,25.866 207.662,24.384 C207.662,22.98 206.362,22.525 205.153,22.291 L204.373,22.135 C203.684,21.992 203.32,21.745 203.32,21.199 C203.32,20.575 204.022,20.302 204.724,20.302 C205.517,20.302 206.128,20.562 206.284,21.342 L207.532,21.342 Z" id="Path"></path>
            <path d="M221.988,20.198 C221.832,19.73 221.533,19.314 220.896,19.314 C220.233,19.314 219.856,19.717 219.622,20.172 L219.622,19.431 L218.478,19.431 L218.478,26.425 L219.674,26.425 L219.674,22.486 C219.674,21.03 219.856,20.315 220.467,20.315 C221.052,20.315 221.052,21.095 221.052,22.109 L221.052,26.425 L222.248,26.425 L222.248,22.46 C222.248,21.017 222.43,20.315 223.028,20.315 C223.626,20.315 223.626,21.095 223.626,22.109 L223.626,26.425 L224.822,26.425 L224.822,21.498 C224.822,19.652 224.107,19.314 223.379,19.314 C222.742,19.314 222.287,19.652 221.988,20.198 Z" id="Path"></path>
            <path d="M229.333,26.594 C230.633,26.594 231.361,26.126 231.79,25.398 L231.803,26.425 L232.947,26.425 C232.908,25.957 232.843,24.956 232.856,23.786 L232.869,22.083 C232.895,20.146 232.063,19.288 230.126,19.288 C228.67,19.288 227.344,20.133 227.227,21.641 L228.449,21.641 C228.527,20.783 229.034,20.25 230.113,20.25 C231.023,20.25 231.686,20.614 231.686,21.823 L231.686,22.122 C228.826,22.434 227.058,22.941 227.058,24.605 C227.058,25.866 228.072,26.594 229.333,26.594 Z M231.777,23.266 C231.777,25.125 230.737,25.632 229.671,25.632 C228.826,25.632 228.345,25.242 228.345,24.579 C228.345,23.578 229.645,23.279 231.777,23.071 L231.777,23.266 Z" id="Shape"></path>
            <path d="M240.006,20.484 C239.616,19.808 238.992,19.314 237.939,19.314 C236.327,19.314 235.118,20.653 235.118,22.954 C235.118,25.268 236.327,26.594 237.939,26.594 C238.992,26.594 239.616,26.1 240.006,25.437 L240.019,26.425 L241.202,26.425 L241.202,17 L240.006,17 L240.006,20.484 Z M240.058,22.954 C240.058,24.787 239.187,25.606 238.186,25.606 C236.99,25.606 236.379,24.618 236.379,22.954 C236.379,21.29 236.99,20.315 238.186,20.315 C239.187,20.315 240.058,21.108 240.058,22.954 Z" id="Shape"></path>
            <path d="M246.87,26.594 C248.508,26.594 249.6,25.658 249.886,24.332 L248.651,24.332 C248.404,25.125 247.884,25.619 246.844,25.619 C245.739,25.619 244.959,24.696 244.959,23.292 L249.99,23.292 C250.081,20.796 248.911,19.301 246.87,19.301 C245.024,19.301 243.698,20.705 243.698,22.954 C243.698,25.021 244.751,26.594 246.87,26.594 Z M246.87,20.289 C248.092,20.289 248.729,21.16 248.716,22.304 L244.972,22.304 C245.024,20.952 245.739,20.289 246.87,20.289 Z" id="Shape"></path>
        </g>
        <g id="Step-2:" transform="translate(437.928000, 80.192000)" fill="#10162F" fill-rule="nonzero">
            <path d="M3.136,6.336 L4.4,6.64 C5.664,6.928 6.576,7.472 6.576,8.672 C6.576,10 5.392,10.608 4.24,10.608 C2.752,10.608 1.664,9.744 1.504,8.192 L0,8.192 C0.128,10.496 1.84,12.016 4.192,12.016 C6.432,12.016 8.112,10.72 8.112,8.56 C8.112,6.352 6.48,5.536 4.608,5.12 L3.456,4.864 C2.528,4.656 1.776,4.16 1.776,3.136 C1.776,1.936 2.88,1.408 3.936,1.408 C4.992,1.408 6.192,1.872 6.368,3.264 L7.872,3.264 C7.616,0.96 5.808,0 4.016,0 C1.936,0 0.208,1.184 0.208,3.184 C0.208,5.024 1.616,6 3.136,6.336 Z" id="Path"></path>
            <path d="M12.384,3.2 L9.936,3.2 L9.936,4.464 L12.384,4.464 L12.384,9.648 C12.384,11.44 12.832,11.808 14.4,11.808 L17.376,11.808 L17.376,10.544 L14.72,10.544 C13.904,10.544 13.856,10.32 13.856,9.44 L13.856,4.464 L17.376,4.464 L17.376,3.2 L13.856,3.2 L13.856,1.04 L12.384,1.04 L12.384,3.2 Z" id="Path"></path>
            <path d="M24.784,12.016 C26.8,12.016 28.144,10.864 28.496,9.232 L26.976,9.232 C26.672,10.208 26.032,10.816 24.752,10.816 C23.392,10.816 22.432,9.68 22.432,7.952 L28.624,7.952 C28.736,4.88 27.296,3.04 24.784,3.04 C22.512,3.04 20.88,4.768 20.88,7.536 C20.88,10.08 22.176,12.016 24.784,12.016 Z M24.784,4.256 C26.288,4.256 27.072,5.328 27.056,6.736 L22.448,6.736 C22.512,5.072 23.392,4.256 24.784,4.256 Z" id="Shape"></path>
            <path d="M33.136,3.2 L31.664,3.2 L31.664,14.608 L33.136,14.608 L33.136,10.592 C33.616,11.408 34.4,12.016 35.68,12.016 C37.664,12.016 39.152,10.384 39.152,7.536 C39.152,4.704 37.664,3.056 35.68,3.056 C34.4,3.056 33.616,3.664 33.136,4.496 L33.136,3.2 Z M33.072,7.536 C33.072,5.264 34.144,4.288 35.376,4.288 C36.848,4.288 37.6,5.488 37.6,7.536 C37.6,9.584 36.848,10.8 35.376,10.8 C34.144,10.8 33.072,9.808 33.072,7.536 Z" id="Shape"></path>
            <path d="M55.92,0 C53.568,0 52.032,1.68 52.064,3.888 L53.568,3.888 C53.6,1.984 54.704,1.248 55.904,1.248 C57.216,1.248 57.904,2.112 57.904,3.312 C57.904,5.344 55.744,7.52 51.856,10.544 L51.856,11.808 L59.68,11.808 L59.68,10.544 L53.92,10.544 C56.88,8.176 59.472,5.808 59.472,3.12 C59.472,1.152 57.952,0 55.92,0 Z" id="Path"></path>
            <path d="M66.992,5.04 L66.992,3.2 L65.152,3.2 L65.152,5.04 L66.992,5.04 Z M66.992,11.808 L66.992,9.968 L65.152,9.968 L65.152,11.808 L66.992,11.808 Z" id="Shape"></path>
        </g>
        <g id="Group" transform="translate(200.000000, 284.000000) rotate(-9.000000) translate(-200.000000, -284.000000) translate(163.000000, 258.000000)">
            <rect id="Rectangle-Copy-10" fill="#F5FCFF" x="1.03227333e-13" y="9.18134207e-14" width="74" height="52" rx="5"></rect>
            <path d="M69,2.04100585e-13 C71.7614237,2.04100585e-13 74,2.23857625 74,5 L74,47 C74,49.7614237 71.7614237,52 69,52 L5,52 C2.23857625,52 8.54427933e-14,49.7614237 8.54427933e-14,47 L8.54427933e-14,5 C8.54427933e-14,2.23857625 2.23857625,2.04100585e-13 5,2.04100585e-13 L69,2.04100585e-13 Z M69,1 L5,1 C2.85780461,1 1.10892112,2.68396847 1.00489531,4.80035966 L1,5 L1,47 C1,49.1421954 2.68396847,50.8910789 4.80035966,50.9951047 L5,51 L69,51 C71.1421954,51 72.8910789,49.3160315 72.9951047,47.1996403 L73,47 L73,5 C73,2.85780461 71.3160315,1.10892112 69.1996403,1.00489531 L69,1 Z" id="Rectangle-Copy-10" fill="#10162F" fill-rule="nonzero"></path>
            <g id="dog" transform="translate(25.287000, 21.575000)" fill="#10162F" fill-rule="nonzero">
                <path d="M4.888,3.484 C4.498,2.808 3.874,2.314 2.821,2.314 C1.209,2.314 6.02901761e-14,3.653 6.02901761e-14,5.954 C6.02901761e-14,8.268 1.209,9.594 2.821,9.594 C3.874,9.594 4.498,9.1 4.888,8.437 L4.901,9.425 L6.084,9.425 L6.084,-7.81453215e-14 L4.888,-7.81453215e-14 L4.888,3.484 Z M4.94,5.954 C4.94,7.787 4.069,8.606 3.068,8.606 C1.872,8.606 1.261,7.618 1.261,5.954 C1.261,4.29 1.872,3.315 3.068,3.315 C4.069,3.315 4.94,4.108 4.94,5.954 Z" id="Shape"></path>
                <path d="M9.737,5.954 C9.737,4.095 10.647,3.315 11.713,3.315 C12.779,3.315 13.689,4.095 13.689,5.954 C13.689,7.813 12.779,8.593 11.713,8.593 C10.647,8.593 9.737,7.813 9.737,5.954 Z M8.476,5.954 C8.476,8.489 10.114,9.594 11.713,9.594 C13.312,9.594 14.95,8.489 14.95,5.954 C14.95,3.419 13.312,2.314 11.713,2.314 C10.114,2.314 8.476,3.419 8.476,5.954 Z" id="Shape"></path>
                <path d="M21.71,3.484 C21.32,2.808 20.696,2.314 19.643,2.314 C18.031,2.314 16.822,3.51 16.822,5.811 C16.822,8.125 18.031,9.308 19.643,9.308 C20.696,9.308 21.32,8.827 21.71,8.151 L21.71,8.827 C21.71,9.776 21.58,10.101 21.346,10.374 C21.06,10.712 20.514,10.894 19.916,10.894 C18.889,10.894 18.525,10.465 18.356,9.828 L17.095,9.828 C17.303,11.206 18.382,11.934 19.903,11.934 C20.891,11.934 21.853,11.596 22.347,11.011 C22.724,10.569 22.906,9.984 22.906,8.554 L22.906,2.431 L21.71,2.431 L21.71,3.484 Z M21.762,5.811 C21.762,7.644 20.891,8.32 19.89,8.32 C18.694,8.32 18.083,7.475 18.083,5.811 C18.083,4.147 18.694,3.315 19.89,3.315 C20.891,3.315 21.762,3.965 21.762,5.811 Z" id="Shape"></path>
            </g>
        </g>
        <rect id="Rectangle-Copy-14" fill="#F5FCFF" x="396" y="168" width="74" height="52" rx="5"></rect>
        <path d="M465,168 C467.761424,168 470,170.238576 470,173 L470,215 C470,217.761424 467.761424,220 465,220 L401,220 C398.238576,220 396,217.761424 396,215 L396,173 C396,170.238576 398.238576,168 401,168 L465,168 Z M465,169 L401,169 C398.857805,169 397.108921,170.683968 397.004895,172.80036 L397,173 L397,215 C397,217.142195 398.683968,218.891079 400.80036,218.995105 L401,219 L465,219 C467.142195,219 468.891079,217.316032 468.995105,215.19964 L469,215 L469,173 C469,170.857805 467.316032,169.108921 465.19964,169.004895 L465,169 Z" id="Rectangle-Copy-14" fill="#10162F" fill-rule="nonzero"></path>
        <g id="Group-2" transform="translate(147.000000, 273.000000) rotate(-4.000000) translate(-147.000000, -273.000000) translate(110.000000, 247.000000)">
            <rect id="Rectangle-Copy-11" fill="#F5FFE3" x="1.43183495e-13" y="7.90921224e-14" width="74" height="52" rx="5"></rect>
            <path d="M69,7.90921224e-14 C71.7614237,7.90921224e-14 74,2.23857625 74,5 L74,47 C74,49.7614237 71.7614237,52 69,52 L5,52 C2.23857625,52 1.43183495e-13,49.7614237 1.43183495e-13,47 L1.43183495e-13,5 C1.43183495e-13,2.23857625 2.23857625,7.90921224e-14 5,7.90921224e-14 L69,7.90921224e-14 Z M69,1 L5,1 C2.85780461,1 1.10892112,2.68396847 1.00489531,4.80035966 L1,5 L1,47 C1,49.1421954 2.68396847,50.8910789 4.80035966,50.9951047 L5,51 L69,51 C71.1421954,51 72.8910789,49.3160315 72.9951047,47.1996403 L73,47 L73,5 C73,2.85780461 71.3160315,1.10892112 69.1996403,1.00489531 L69,1 Z" id="Rectangle-Copy-11" fill="#10162F" fill-rule="nonzero"></path>
            <g id="apple" transform="translate(17.227000, 21.575000)" fill="#10162F" fill-rule="nonzero">
                <path d="M2.275,9.594 C3.575,9.594 4.303,9.126 4.732,8.398 L4.745,9.425 L5.889,9.425 C5.85,8.957 5.785,7.956 5.798,6.786 L5.811,5.083 C5.837,3.146 5.005,2.288 3.068,2.288 C1.612,2.288 0.286,3.133 0.169,4.641 L1.391,4.641 C1.469,3.783 1.976,3.25 3.055,3.25 C3.965,3.25 4.628,3.614 4.628,4.823 L4.628,5.122 C1.768,5.434 -1.50125594e-13,5.941 -1.50125594e-13,7.605 C-1.50125594e-13,8.866 1.014,9.594 2.275,9.594 Z M4.719,6.266 C4.719,8.125 3.679,8.632 2.613,8.632 C1.768,8.632 1.287,8.242 1.287,7.579 C1.287,6.578 2.587,6.279 4.719,6.071 L4.719,6.266 Z" id="Shape"></path>
                <path d="M9.802,2.431 L8.606,2.431 L8.606,11.7 L9.802,11.7 L9.802,8.437 C10.192,9.1 10.829,9.594 11.869,9.594 C13.481,9.594 14.69,8.268 14.69,5.954 C14.69,3.653 13.481,2.314 11.869,2.314 C10.829,2.314 10.192,2.808 9.802,3.484 L9.802,2.431 Z M9.75,5.954 C9.75,4.108 10.621,3.315 11.622,3.315 C12.818,3.315 13.429,4.29 13.429,5.954 C13.429,7.618 12.818,8.606 11.622,8.606 C10.621,8.606 9.75,7.8 9.75,5.954 Z" id="Shape"></path>
                <path d="M18.2,2.431 L17.004,2.431 L17.004,11.7 L18.2,11.7 L18.2,8.437 C18.59,9.1 19.227,9.594 20.267,9.594 C21.879,9.594 23.088,8.268 23.088,5.954 C23.088,3.653 21.879,2.314 20.267,2.314 C19.227,2.314 18.59,2.808 18.2,3.484 L18.2,2.431 Z M18.148,5.954 C18.148,4.108 19.019,3.315 20.02,3.315 C21.216,3.315 21.827,4.29 21.827,5.954 C21.827,7.618 21.216,8.606 20.02,8.606 C19.019,8.606 18.148,7.8 18.148,5.954 Z" id="Shape"></path>
                <polygon id="Path" points="25.636 -6.76423837e-14 25.636 1.014 27.612 1.014 27.612 8.398 25.636 8.398 25.636 9.425 30.797 9.425 30.797 8.398 28.808 8.398 28.808 -6.76423837e-14"></polygon>
                <path d="M36.608,9.594 C38.246,9.594 39.338,8.658 39.624,7.332 L38.389,7.332 C38.142,8.125 37.622,8.619 36.582,8.619 C35.477,8.619 34.697,7.696 34.697,6.292 L39.728,6.292 C39.819,3.796 38.649,2.301 36.608,2.301 C34.762,2.301 33.436,3.705 33.436,5.954 C33.436,8.021 34.489,9.594 36.608,9.594 Z M36.608,3.289 C37.83,3.289 38.467,4.16 38.454,5.304 L34.71,5.304 C34.762,3.952 35.477,3.289 36.608,3.289 Z" id="Shape"></path>
            </g>
        </g>
        <rect id="Rectangle-Copy-15" fill="#F5FFE3" x="476" y="168" width="74" height="52" rx="5"></rect>
        <path d="M545,168 C547.761424,168 550,170.238576 550,173 L550,215 C550,217.761424 547.761424,220 545,220 L481,220 C478.238576,220 476,217.761424 476,215 L476,173 C476,170.238576 478.238576,168 481,168 L545,168 Z M545,169 L481,169 C478.857805,169 477.108921,170.683968 477.004895,172.80036 L477,173 L477,215 C477,217.142195 478.683968,218.891079 480.80036,218.995105 L481,219 L545,219 C547.142195,219 548.891079,217.316032 548.995105,215.19964 L549,215 L549,173 C549,170.857805 547.316032,169.108921 545.19964,169.004895 L545,169 Z" id="Rectangle-Copy-15" fill="#10162F" fill-rule="nonzero"></path>
        <g id="Group-3" transform="translate(143.000000, 196.000000) rotate(3.000000) translate(-143.000000, -196.000000) translate(106.000000, 170.000000)">
            <rect id="Rectangle-Copy-18" fill="#F5FFE3" x="1.1813384e-14" y="5.38366568e-15" width="74" height="52" rx="5"></rect>
            <path d="M69,1.189147e-13 C71.7614237,1.189147e-13 74,2.23857625 74,5 L74,47 C74,49.7614237 71.7614237,52 69,52 L5,52 C2.23857625,52 1.77632934e-14,49.7614237 1.77632934e-14,47 L1.77632934e-14,5 C1.77632934e-14,2.23857625 2.23857625,1.189147e-13 5,1.189147e-13 L69,1.189147e-13 Z M69,1 L5,1 C2.85780461,1 1.10892112,2.68396847 1.00489531,4.80035966 L1,5 L1,47 C1,49.1421954 2.68396847,50.8910789 4.80035966,50.9951047 L5,51 L69,51 C71.1421954,51 72.8910789,49.3160315 72.9951047,47.1996403 L73,47 L73,5 C73,2.85780461 71.3160315,1.10892112 69.1996403,1.00489531 L69,1 Z" id="Rectangle-Copy-18" fill="#10162F" fill-rule="nonzero"></path>
            <g id="hamster" transform="translate(9.089000, 22.575000)" fill="#10162F" fill-rule="nonzero">
                <path d="M3.263,2.314 C2.184,2.314 1.56,2.808 1.196,3.419 L1.196,3.73814327e-14 L1.84605077e-13,3.73814327e-14 L1.84605077e-13,9.425 L1.196,9.425 L1.196,5.629 C1.196,4.134 1.794,3.315 2.873,3.315 C4.173,3.315 4.251,4.264 4.251,5.395 L4.251,9.425 L5.447,9.425 L5.447,4.979 C5.447,3.432 4.953,2.314 3.263,2.314 Z" id="Path"></path>
                <path d="M10.413,9.594 C11.713,9.594 12.441,9.126 12.87,8.398 L12.883,9.425 L14.027,9.425 C13.988,8.957 13.923,7.956 13.936,6.786 L13.949,5.083 C13.975,3.146 13.143,2.288 11.206,2.288 C9.75,2.288 8.424,3.133 8.307,4.641 L9.529,4.641 C9.607,3.783 10.114,3.25 11.193,3.25 C12.103,3.25 12.766,3.614 12.766,4.823 L12.766,5.122 C9.906,5.434 8.138,5.941 8.138,7.605 C8.138,8.866 9.152,9.594 10.413,9.594 Z M12.857,6.266 C12.857,8.125 11.817,8.632 10.751,8.632 C9.906,8.632 9.425,8.242 9.425,7.579 C9.425,6.578 10.725,6.279 12.857,6.071 L12.857,6.266 Z" id="Shape"></path>
                <path d="M19.864,3.198 C19.708,2.73 19.409,2.314 18.772,2.314 C18.109,2.314 17.732,2.717 17.498,3.172 L17.498,2.431 L16.354,2.431 L16.354,9.425 L17.55,9.425 L17.55,5.486 C17.55,4.03 17.732,3.315 18.343,3.315 C18.928,3.315 18.928,4.095 18.928,5.109 L18.928,9.425 L20.124,9.425 L20.124,5.46 C20.124,4.017 20.306,3.315 20.904,3.315 C21.502,3.315 21.502,4.095 21.502,5.109 L21.502,9.425 L22.698,9.425 L22.698,4.498 C22.698,2.652 21.983,2.314 21.255,2.314 C20.618,2.314 20.163,2.652 19.864,3.198 Z" id="Path"></path>
                <path d="M30.602,4.342 C30.342,3.094 29.328,2.314 27.846,2.314 C26.676,2.314 25.207,2.899 25.207,4.251 C25.207,5.46 26.078,6.006 27.183,6.227 L28.054,6.396 C28.938,6.552 29.523,6.877 29.523,7.527 C29.523,8.346 28.704,8.606 27.963,8.606 C26.988,8.606 26.494,8.138 26.338,7.332 L25.077,7.332 C25.207,8.45 26.117,9.594 27.937,9.594 C29.458,9.594 30.732,8.866 30.732,7.384 C30.732,5.98 29.432,5.525 28.223,5.291 L27.443,5.135 C26.754,4.992 26.39,4.745 26.39,4.199 C26.39,3.575 27.092,3.302 27.794,3.302 C28.587,3.302 29.198,3.562 29.354,4.342 L30.602,4.342 Z" id="Path"></path>
                <path d="M34.671,2.431 L32.682,2.431 L32.682,3.458 L34.671,3.458 L34.671,7.67 C34.671,9.126 35.035,9.425 36.309,9.425 L38.727,9.425 L38.727,8.398 L36.569,8.398 C35.906,8.398 35.867,8.216 35.867,7.501 L35.867,3.458 L38.727,3.458 L38.727,2.431 L35.867,2.431 L35.867,0.676 L34.671,0.676 L34.671,2.431 Z" id="Path"></path>
                <path d="M44.746,9.594 C46.384,9.594 47.476,8.658 47.762,7.332 L46.527,7.332 C46.28,8.125 45.76,8.619 44.72,8.619 C43.615,8.619 42.835,7.696 42.835,6.292 L47.866,6.292 C47.957,3.796 46.787,2.301 44.746,2.301 C42.9,2.301 41.574,3.705 41.574,5.954 C41.574,8.021 42.627,9.594 44.746,9.594 Z M44.746,3.289 C45.968,3.289 46.605,4.16 46.592,5.304 L42.848,5.304 C42.9,3.952 43.615,3.289 44.746,3.289 Z" id="Shape"></path>
                <path d="M50.024,2.431 L50.024,3.458 L52.013,3.458 L52.013,8.398 L50.037,8.398 L50.037,9.425 L55.601,9.425 L55.601,8.398 L53.209,8.398 L53.209,5.941 C53.209,4.407 53.729,3.523 55.068,3.523 L56.251,3.523 L56.251,2.431 L55.055,2.431 C54.197,2.431 53.521,2.899 53.183,3.679 L53.183,2.431 L50.024,2.431 Z" id="Path"></path>
            </g>
        </g>
        <rect id="Rectangle-Copy-22" fill="#F5FFE3" x="396" y="212" width="74" height="52" rx="5"></rect>
        <path d="M465,212 C467.761424,212 470,214.238576 470,217 L470,259 C470,261.761424 467.761424,264 465,264 L401,264 C398.238576,264 396,261.761424 396,259 L396,217 C396,214.238576 398.238576,212 401,212 L465,212 Z M465,213 L401,213 C398.857805,213 397.108921,214.683968 397.004895,216.80036 L397,217 L397,259 C397,261.142195 398.683968,262.891079 400.80036,262.995105 L401,263 L465,263 C467.142195,263 468.891079,261.316032 468.995105,259.19964 L469,259 L469,217 C469,214.857805 467.316032,213.108921 465.19964,213.004895 L465,213 Z" id="Rectangle-Copy-22" fill="#10162F" fill-rule="nonzero"></path>
        <g id="Group-4" transform="translate(194.000000, 180.000000) rotate(-4.000000) translate(-194.000000, -180.000000) translate(157.000000, 154.000000)">
            <rect id="Rectangle-Copy-19" fill="#FFF5FF" x="-1.45373496e-13" y="1.61554248e-13" width="74" height="52" rx="5"></rect>
            <path d="M69,-8.5606057e-15 C71.7614237,-8.5606057e-15 74,2.23857625 74,5 L74,47 C74,49.7614237 71.7614237,52 69,52 L5,52 C2.23857625,52 -1.33477907e-13,49.7614237 -1.33477907e-13,47 L-1.33477907e-13,5 C-1.33477907e-13,2.23857625 2.23857625,-8.5606057e-15 5,-8.5606057e-15 L69,-8.5606057e-15 Z M69,1 L5,1 C2.85780461,1 1.10892112,2.68396847 1.00489531,4.80035966 L1,5 L1,47 C1,49.1421954 2.68396847,50.8910789 4.80035966,50.9951047 L5,51 L69,51 C71.1421954,51 72.8910789,49.3160315 72.9951047,47.1996403 L73,47 L73,5 C73,2.85780461 71.3160315,1.10892112 69.1996403,1.00489531 L69,1 Z" id="Rectangle-Copy-19" fill="#10162F" fill-rule="nonzero"></path>
            <g id="orange" transform="translate(12.768000, 24.863000)" fill="#10162F" fill-rule="nonzero">
                <path d="M1.261,3.666 C1.261,1.807 2.171,1.027 3.237,1.027 C4.303,1.027 5.213,1.807 5.213,3.666 C5.213,5.525 4.303,6.305 3.237,6.305 C2.171,6.305 1.261,5.525 1.261,3.666 Z M-3.6893607e-14,3.666 C-3.6893607e-14,6.201 1.638,7.306 3.237,7.306 C4.836,7.306 6.474,6.201 6.474,3.666 C6.474,1.131 4.836,0.026 3.237,0.026 C1.638,0.026 -3.6893607e-14,1.131 -3.6893607e-14,3.666 Z" id="Shape"></path>
                <path d="M8.554,0.143 L8.554,1.17 L10.543,1.17 L10.543,6.11 L8.567,6.11 L8.567,7.137 L14.131,7.137 L14.131,6.11 L11.739,6.11 L11.739,3.653 C11.739,2.119 12.259,1.235 13.598,1.235 L14.781,1.235 L14.781,0.143 L13.585,0.143 C12.727,0.143 12.051,0.611 11.713,1.391 L11.713,0.143 L8.554,0.143 Z" id="Path"></path>
                <path d="M19.331,7.306 C20.631,7.306 21.359,6.838 21.788,6.11 L21.801,7.137 L22.945,7.137 C22.906,6.669 22.841,5.668 22.854,4.498 L22.867,2.795 C22.893,0.858 22.061,-1.17445015e-13 20.124,-1.17445015e-13 C18.668,-1.17445015e-13 17.342,0.845 17.225,2.353 L18.447,2.353 C18.525,1.495 19.032,0.962 20.111,0.962 C21.021,0.962 21.684,1.326 21.684,2.535 L21.684,2.834 C18.824,3.146 17.056,3.653 17.056,5.317 C17.056,6.578 18.07,7.306 19.331,7.306 Z M21.775,3.978 C21.775,5.837 20.735,6.344 19.669,6.344 C18.824,6.344 18.343,5.954 18.343,5.291 C18.343,4.29 19.643,3.991 21.775,3.783 L21.775,3.978 Z" id="Shape"></path>
                <path d="M26.91,0.143 L25.714,0.143 L25.714,7.137 L26.91,7.137 L26.91,3.341 C26.91,1.846 27.495,1.04 28.574,1.04 C29.874,1.04 29.965,1.976 29.965,3.107 L29.965,7.137 L31.161,7.137 L31.161,2.691 C31.161,1.144 30.654,0.026 28.964,0.026 C27.859,0.026 27.261,0.533 26.91,1.131 L26.91,0.143 Z" id="Path"></path>
                <path d="M38.428,1.196 C38.038,0.52 37.414,0.026 36.361,0.026 C34.749,0.026 33.54,1.222 33.54,3.523 C33.54,5.837 34.749,7.02 36.361,7.02 C37.414,7.02 38.038,6.539 38.428,5.863 L38.428,6.539 C38.428,7.488 38.298,7.813 38.064,8.086 C37.778,8.424 37.232,8.606 36.634,8.606 C35.607,8.606 35.243,8.177 35.074,7.54 L33.813,7.54 C34.021,8.918 35.1,9.646 36.621,9.646 C37.609,9.646 38.571,9.308 39.065,8.723 C39.442,8.281 39.624,7.696 39.624,6.266 L39.624,0.143 L38.428,0.143 L38.428,1.196 Z M38.48,3.523 C38.48,5.356 37.609,6.032 36.608,6.032 C35.412,6.032 34.801,5.187 34.801,3.523 C34.801,1.859 35.412,1.027 36.608,1.027 C37.609,1.027 38.48,1.677 38.48,3.523 Z" id="Shape"></path>
                <path d="M45.266,7.306 C46.904,7.306 47.996,6.37 48.282,5.044 L47.047,5.044 C46.8,5.837 46.28,6.331 45.24,6.331 C44.135,6.331 43.355,5.408 43.355,4.004 L48.386,4.004 C48.477,1.508 47.307,0.013 45.266,0.013 C43.42,0.013 42.094,1.417 42.094,3.666 C42.094,5.733 43.147,7.306 45.266,7.306 Z M45.266,1.001 C46.488,1.001 47.125,1.872 47.112,3.016 L43.368,3.016 C43.42,1.664 44.135,1.001 45.266,1.001 Z" id="Shape"></path>
            </g>
        </g>
        <rect id="Rectangle-Copy-23" fill="#FFF5FF" x="476" y="212" width="74" height="52" rx="5"></rect>
        <path d="M545,212 C547.761424,212 550,214.238576 550,217 L550,259 C550,261.761424 547.761424,264 545,264 L481,264 C478.238576,264 476,261.761424 476,259 L476,217 C476,214.238576 478.238576,212 481,212 L545,212 Z M545,213 L481,213 C478.857805,213 477.108921,214.683968 477.004895,216.80036 L477,217 L477,259 C477,261.142195 478.683968,262.891079 480.80036,262.995105 L481,263 L545,263 C547.142195,263 548.891079,261.316032 548.995105,259.19964 L549,259 L549,217 C549,214.857805 547.316032,213.108921 545.19964,213.004895 L545,213 Z" id="Rectangle-Copy-23" fill="#10162F" fill-rule="nonzero"></path>
        <g id="Group-5" transform="translate(123.000000, 242.000000) rotate(-6.000000) translate(-123.000000, -242.000000) translate(86.000000, 216.000000)">
            <rect id="Rectangle-Copy-42" fill="#FFF5FF" x="-1.70106892e-13" y="-9.02217166e-14" width="74" height="52" rx="5"></rect>
            <path d="M69,2.28423328e-14 C71.7614237,2.28423328e-14 74,2.23857625 74,5 L74,47 C74,49.7614237 71.7614237,52 69,52 L5,52 C2.23857625,52 -1.81990402e-13,49.7614237 -1.81990402e-13,47 L-1.81990402e-13,5 C-1.81990402e-13,2.23857625 2.23857625,2.28423328e-14 5,2.28423328e-14 L69,2.28423328e-14 Z M69,1 L5,1 C2.85780461,1 1.10892112,2.68396847 1.00489531,4.80035966 L1,5 L1,47 C1,49.1421954 2.68396847,50.8910789 4.80035966,50.9951047 L5,51 L69,51 C71.1421954,51 72.8910789,49.3160315 72.9951047,47.1996403 L73,47 L73,5 C73,2.85780461 71.3160315,1.10892112 69.1996403,1.00489531 L69,1 Z" id="Rectangle-Copy-42" fill="#10162F" fill-rule="nonzero"></path>
            <g id="cat" transform="translate(25.521000, 22.251000)" fill="#10162F" fill-rule="nonzero">
                <path d="M3.211,1.638 C1.209,1.638 -1.14442451e-13,3.198 -1.14442451e-13,5.278 C-1.14442451e-13,7.41 1.157,8.918 3.094,8.918 C4.654,8.918 5.902,7.891 6.097,6.5 L4.862,6.5 C4.706,7.254 4.108,7.943 3.159,7.943 C2.119,7.943 1.261,7.059 1.261,5.278 C1.261,3.523 2.119,2.626 3.159,2.626 C4.017,2.626 4.654,3.224 4.81,4.082 L6.019,4.082 C5.915,2.821 4.836,1.638 3.211,1.638 Z" id="Path"></path>
                <path d="M10.777,8.918 C12.077,8.918 12.805,8.45 13.234,7.722 L13.247,8.749 L14.391,8.749 C14.352,8.281 14.287,7.28 14.3,6.11 L14.313,4.407 C14.339,2.47 13.507,1.612 11.57,1.612 C10.114,1.612 8.788,2.457 8.671,3.965 L9.893,3.965 C9.971,3.107 10.478,2.574 11.557,2.574 C12.467,2.574 13.13,2.938 13.13,4.147 L13.13,4.446 C10.27,4.758 8.502,5.265 8.502,6.929 C8.502,8.19 9.516,8.918 10.777,8.918 Z M13.221,5.59 C13.221,7.449 12.181,7.956 11.115,7.956 C10.27,7.956 9.789,7.566 9.789,6.903 C9.789,5.902 11.089,5.603 13.221,5.395 L13.221,5.59 Z" id="Shape"></path>
                <path d="M18.239,1.755 L16.25,1.755 L16.25,2.782 L18.239,2.782 L18.239,6.994 C18.239,8.45 18.603,8.749 19.877,8.749 L22.295,8.749 L22.295,7.722 L20.137,7.722 C19.474,7.722 19.435,7.54 19.435,6.825 L19.435,2.782 L22.295,2.782 L22.295,1.755 L19.435,1.755 L19.435,1.04768987e-13 L18.239,1.04768987e-13 L18.239,1.755 Z" id="Path"></path>
            </g>
        </g>
        <rect id="Rectangle-Copy-46" fill="#FFF5FF" x="396" y="258" width="74" height="52" rx="5"></rect>
        <path d="M465,258 C467.761424,258 470,260.238576 470,263 L470,305 C470,307.761424 467.761424,310 465,310 L401,310 C398.238576,310 396,307.761424 396,305 L396,263 C396,260.238576 398.238576,258 401,258 L465,258 Z M465,259 L401,259 C398.857805,259 397.108921,260.683968 397.004895,262.80036 L397,263 L397,305 C397,307.142195 398.683968,308.891079 400.80036,308.995105 L401,309 L465,309 C467.142195,309 468.891079,307.316032 468.995105,305.19964 L469,305 L469,263 C469,260.857805 467.316032,259.108921 465.19964,259.004895 L465,259 Z" id="Rectangle-Copy-46" fill="#10162F" fill-rule="nonzero"></path>
        <g id="Group-6" transform="translate(207.000000, 227.000000) rotate(6.000000) translate(-207.000000, -227.000000) translate(170.000000, 201.000000)">
            <rect id="Rectangle-Copy-43" fill="#F5FCFF" x="4.52775437e-13" y="-7.69426968e-15" width="74" height="52" rx="5"></rect>
            <path d="M69,-7.38287549e-15 C71.7614237,-7.38287549e-15 74,2.23857625 74,5 L74,47 C74,49.7614237 71.7614237,52 69,52 L5,52 C2.23857625,52 -7.91366905e-15,49.7614237 -7.91366905e-15,47 L-7.91366905e-15,5 C-7.91366905e-15,2.23857625 2.23857625,-7.38287549e-15 5,-7.38287549e-15 L69,-7.38287549e-15 Z M69,1 L5,1 C2.85780461,1 1.10892112,2.68396847 1.00489531,4.80035966 L1,5 L1,47 C1,49.1421954 2.68396847,50.8910789 4.80035966,50.9951047 L5,51 L69,51 C71.1421954,51 72.8910789,49.3160315 72.9951047,47.1996403 L73,47 L73,5 C73,2.85780461 71.3160315,1.10892112 69.1996403,1.00489531 L69,1 Z" id="Rectangle-Copy-43" fill="#10162F" fill-rule="nonzero"></path>
            <g id="peach" transform="translate(17.435000, 21.575000)" fill="#10162F" fill-rule="nonzero">
                <path d="M1.196,2.431 L-9.81279036e-14,2.431 L-9.81279036e-14,11.7 L1.196,11.7 L1.196,8.437 C1.586,9.1 2.223,9.594 3.263,9.594 C4.875,9.594 6.084,8.268 6.084,5.954 C6.084,3.653 4.875,2.314 3.263,2.314 C2.223,2.314 1.586,2.808 1.196,3.484 L1.196,2.431 Z M1.144,5.954 C1.144,4.108 2.015,3.315 3.016,3.315 C4.212,3.315 4.823,4.29 4.823,5.954 C4.823,7.618 4.212,8.606 3.016,8.606 C2.015,8.606 1.144,7.8 1.144,5.954 Z" id="Shape"></path>
                <path d="M11.206,9.594 C12.844,9.594 13.936,8.658 14.222,7.332 L12.987,7.332 C12.74,8.125 12.22,8.619 11.18,8.619 C10.075,8.619 9.295,7.696 9.295,6.292 L14.326,6.292 C14.417,3.796 13.247,2.301 11.206,2.301 C9.36,2.301 8.034,3.705 8.034,5.954 C8.034,8.021 9.087,9.594 11.206,9.594 Z M11.206,3.289 C12.428,3.289 13.065,4.16 13.052,5.304 L9.308,5.304 C9.36,3.952 10.075,3.289 11.206,3.289 Z" id="Shape"></path>
                <path d="M18.863,9.594 C20.163,9.594 20.891,9.126 21.32,8.398 L21.333,9.425 L22.477,9.425 C22.438,8.957 22.373,7.956 22.386,6.786 L22.399,5.083 C22.425,3.146 21.593,2.288 19.656,2.288 C18.2,2.288 16.874,3.133 16.757,4.641 L17.979,4.641 C18.057,3.783 18.564,3.25 19.643,3.25 C20.553,3.25 21.216,3.614 21.216,4.823 L21.216,5.122 C18.356,5.434 16.588,5.941 16.588,7.605 C16.588,8.866 17.602,9.594 18.863,9.594 Z M21.307,6.266 C21.307,8.125 20.267,8.632 19.201,8.632 C18.356,8.632 17.875,8.242 17.875,7.579 C17.875,6.578 19.175,6.279 21.307,6.071 L21.307,6.266 Z" id="Shape"></path>
                <path d="M28.093,2.314 C26.091,2.314 24.882,3.874 24.882,5.954 C24.882,8.086 26.039,9.594 27.976,9.594 C29.536,9.594 30.784,8.567 30.979,7.176 L29.744,7.176 C29.588,7.93 28.99,8.619 28.041,8.619 C27.001,8.619 26.143,7.735 26.143,5.954 C26.143,4.199 27.001,3.302 28.041,3.302 C28.899,3.302 29.536,3.9 29.692,4.758 L30.901,4.758 C30.797,3.497 29.718,2.314 28.093,2.314 Z" id="Path"></path>
                <path d="M36.907,2.314 C35.828,2.314 35.204,2.808 34.84,3.419 L34.84,1.50948593e-13 L33.644,1.50948593e-13 L33.644,9.425 L34.84,9.425 L34.84,5.629 C34.84,4.134 35.438,3.315 36.517,3.315 C37.817,3.315 37.895,4.264 37.895,5.395 L37.895,9.425 L39.091,9.425 L39.091,4.979 C39.091,3.432 38.597,2.314 36.907,2.314 Z" id="Path"></path>
            </g>
        </g>
        <rect id="Rectangle-Copy-47" fill="#F5FCFF" x="476" y="258" width="74" height="52" rx="5"></rect>
        <path d="M545,258 C547.761424,258 550,260.238576 550,263 L550,305 C550,307.761424 547.761424,310 545,310 L481,310 C478.238576,310 476,307.761424 476,305 L476,263 C476,260.238576 478.238576,258 481,258 L545,258 Z M545,259 L481,259 C478.857805,259 477.108921,260.683968 477.004895,262.80036 L477,263 L477,305 C477,307.142195 478.683968,308.891079 480.80036,308.995105 L481,309 L545,309 C547.142195,309 548.891079,307.316032 548.995105,305.19964 L549,305 L549,263 C549,260.857805 547.316032,259.108921 545.19964,259.004895 L545,259 Z" id="Rectangle-Copy-47" fill="#10162F" fill-rule="nonzero"></path>
        <g id="dog-copy-2" transform="translate(421.287000, 189.575000)" fill="#10162F" fill-rule="nonzero">
            <path d="M4.888,3.484 C4.498,2.808 3.874,2.314 2.821,2.314 C1.209,2.314 0,3.653 0,5.954 C0,8.268 1.209,9.594 2.821,9.594 C3.874,9.594 4.498,9.1 4.888,8.437 L4.901,9.425 L6.084,9.425 L6.084,0 L4.888,0 L4.888,3.484 Z M4.94,5.954 C4.94,7.787 4.069,8.606 3.068,8.606 C1.872,8.606 1.261,7.618 1.261,5.954 C1.261,4.29 1.872,3.315 3.068,3.315 C4.069,3.315 4.94,4.108 4.94,5.954 Z" id="Shape"></path>
            <path d="M9.737,5.954 C9.737,4.095 10.647,3.315 11.713,3.315 C12.779,3.315 13.689,4.095 13.689,5.954 C13.689,7.813 12.779,8.593 11.713,8.593 C10.647,8.593 9.737,7.813 9.737,5.954 Z M8.476,5.954 C8.476,8.489 10.114,9.594 11.713,9.594 C13.312,9.594 14.95,8.489 14.95,5.954 C14.95,3.419 13.312,2.314 11.713,2.314 C10.114,2.314 8.476,3.419 8.476,5.954 Z" id="Shape"></path>
            <path d="M21.71,3.484 C21.32,2.808 20.696,2.314 19.643,2.314 C18.031,2.314 16.822,3.51 16.822,5.811 C16.822,8.125 18.031,9.308 19.643,9.308 C20.696,9.308 21.32,8.827 21.71,8.151 L21.71,8.827 C21.71,9.776 21.58,10.101 21.346,10.374 C21.06,10.712 20.514,10.894 19.916,10.894 C18.889,10.894 18.525,10.465 18.356,9.828 L17.095,9.828 C17.303,11.206 18.382,11.934 19.903,11.934 C20.891,11.934 21.853,11.596 22.347,11.011 C22.724,10.569 22.906,9.984 22.906,8.554 L22.906,2.431 L21.71,2.431 L21.71,3.484 Z M21.762,5.811 C21.762,7.644 20.891,8.32 19.89,8.32 C18.694,8.32 18.083,7.475 18.083,5.811 C18.083,4.147 18.694,3.315 19.89,3.315 C20.891,3.315 21.762,3.965 21.762,5.811 Z" id="Shape"></path>
        </g>
        <g id="apple-copy-2" transform="translate(493.227000, 189.575000)" fill="#10162F" fill-rule="nonzero">
            <path d="M2.275,9.594 C3.575,9.594 4.303,9.126 4.732,8.398 L4.745,9.425 L5.889,9.425 C5.85,8.957 5.785,7.956 5.798,6.786 L5.811,5.083 C5.837,3.146 5.005,2.288 3.068,2.288 C1.612,2.288 0.286,3.133 0.169,4.641 L1.391,4.641 C1.469,3.783 1.976,3.25 3.055,3.25 C3.965,3.25 4.628,3.614 4.628,4.823 L4.628,5.122 C1.768,5.434 0,5.941 0,7.605 C0,8.866 1.014,9.594 2.275,9.594 Z M4.719,6.266 C4.719,8.125 3.679,8.632 2.613,8.632 C1.768,8.632 1.287,8.242 1.287,7.579 C1.287,6.578 2.587,6.279 4.719,6.071 L4.719,6.266 Z" id="Shape"></path>
            <path d="M9.802,2.431 L8.606,2.431 L8.606,11.7 L9.802,11.7 L9.802,8.437 C10.192,9.1 10.829,9.594 11.869,9.594 C13.481,9.594 14.69,8.268 14.69,5.954 C14.69,3.653 13.481,2.314 11.869,2.314 C10.829,2.314 10.192,2.808 9.802,3.484 L9.802,2.431 Z M9.75,5.954 C9.75,4.108 10.621,3.315 11.622,3.315 C12.818,3.315 13.429,4.29 13.429,5.954 C13.429,7.618 12.818,8.606 11.622,8.606 C10.621,8.606 9.75,7.8 9.75,5.954 Z" id="Shape"></path>
            <path d="M18.2,2.431 L17.004,2.431 L17.004,11.7 L18.2,11.7 L18.2,8.437 C18.59,9.1 19.227,9.594 20.267,9.594 C21.879,9.594 23.088,8.268 23.088,5.954 C23.088,3.653 21.879,2.314 20.267,2.314 C19.227,2.314 18.59,2.808 18.2,3.484 L18.2,2.431 Z M18.148,5.954 C18.148,4.108 19.019,3.315 20.02,3.315 C21.216,3.315 21.827,4.29 21.827,5.954 C21.827,7.618 21.216,8.606 20.02,8.606 C19.019,8.606 18.148,7.8 18.148,5.954 Z" id="Shape"></path>
            <polygon id="Path" points="25.636 0 25.636 1.014 27.612 1.014 27.612 8.398 25.636 8.398 25.636 9.425 30.797 9.425 30.797 8.398 28.808 8.398 28.808 0"></polygon>
            <path d="M36.608,9.594 C38.246,9.594 39.338,8.658 39.624,7.332 L38.389,7.332 C38.142,8.125 37.622,8.619 36.582,8.619 C35.477,8.619 34.697,7.696 34.697,6.292 L39.728,6.292 C39.819,3.796 38.649,2.301 36.608,2.301 C34.762,2.301 33.436,3.705 33.436,5.954 C33.436,8.021 34.489,9.594 36.608,9.594 Z M36.608,3.289 C37.83,3.289 38.467,4.16 38.454,5.304 L34.71,5.304 C34.762,3.952 35.477,3.289 36.608,3.289 Z" id="Shape"></path>
        </g>
        <g id="hamster-copy-2" transform="translate(405.089000, 234.575000)" fill="#10162F" fill-rule="nonzero">
            <path d="M3.263,2.314 C2.184,2.314 1.56,2.808 1.196,3.419 L1.196,0 L0,0 L0,9.425 L1.196,9.425 L1.196,5.629 C1.196,4.134 1.794,3.315 2.873,3.315 C4.173,3.315 4.251,4.264 4.251,5.395 L4.251,9.425 L5.447,9.425 L5.447,4.979 C5.447,3.432 4.953,2.314 3.263,2.314 Z" id="Path"></path>
            <path d="M10.413,9.594 C11.713,9.594 12.441,9.126 12.87,8.398 L12.883,9.425 L14.027,9.425 C13.988,8.957 13.923,7.956 13.936,6.786 L13.949,5.083 C13.975,3.146 13.143,2.288 11.206,2.288 C9.75,2.288 8.424,3.133 8.307,4.641 L9.529,4.641 C9.607,3.783 10.114,3.25 11.193,3.25 C12.103,3.25 12.766,3.614 12.766,4.823 L12.766,5.122 C9.906,5.434 8.138,5.941 8.138,7.605 C8.138,8.866 9.152,9.594 10.413,9.594 Z M12.857,6.266 C12.857,8.125 11.817,8.632 10.751,8.632 C9.906,8.632 9.425,8.242 9.425,7.579 C9.425,6.578 10.725,6.279 12.857,6.071 L12.857,6.266 Z" id="Shape"></path>
            <path d="M19.864,3.198 C19.708,2.73 19.409,2.314 18.772,2.314 C18.109,2.314 17.732,2.717 17.498,3.172 L17.498,2.431 L16.354,2.431 L16.354,9.425 L17.55,9.425 L17.55,5.486 C17.55,4.03 17.732,3.315 18.343,3.315 C18.928,3.315 18.928,4.095 18.928,5.109 L18.928,9.425 L20.124,9.425 L20.124,5.46 C20.124,4.017 20.306,3.315 20.904,3.315 C21.502,3.315 21.502,4.095 21.502,5.109 L21.502,9.425 L22.698,9.425 L22.698,4.498 C22.698,2.652 21.983,2.314 21.255,2.314 C20.618,2.314 20.163,2.652 19.864,3.198 Z" id="Path"></path>
            <path d="M30.602,4.342 C30.342,3.094 29.328,2.314 27.846,2.314 C26.676,2.314 25.207,2.899 25.207,4.251 C25.207,5.46 26.078,6.006 27.183,6.227 L28.054,6.396 C28.938,6.552 29.523,6.877 29.523,7.527 C29.523,8.346 28.704,8.606 27.963,8.606 C26.988,8.606 26.494,8.138 26.338,7.332 L25.077,7.332 C25.207,8.45 26.117,9.594 27.937,9.594 C29.458,9.594 30.732,8.866 30.732,7.384 C30.732,5.98 29.432,5.525 28.223,5.291 L27.443,5.135 C26.754,4.992 26.39,4.745 26.39,4.199 C26.39,3.575 27.092,3.302 27.794,3.302 C28.587,3.302 29.198,3.562 29.354,4.342 L30.602,4.342 Z" id="Path"></path>
            <path d="M34.671,2.431 L32.682,2.431 L32.682,3.458 L34.671,3.458 L34.671,7.67 C34.671,9.126 35.035,9.425 36.309,9.425 L38.727,9.425 L38.727,8.398 L36.569,8.398 C35.906,8.398 35.867,8.216 35.867,7.501 L35.867,3.458 L38.727,3.458 L38.727,2.431 L35.867,2.431 L35.867,0.676 L34.671,0.676 L34.671,2.431 Z" id="Path"></path>
            <path d="M44.746,9.594 C46.384,9.594 47.476,8.658 47.762,7.332 L46.527,7.332 C46.28,8.125 45.76,8.619 44.72,8.619 C43.615,8.619 42.835,7.696 42.835,6.292 L47.866,6.292 C47.957,3.796 46.787,2.301 44.746,2.301 C42.9,2.301 41.574,3.705 41.574,5.954 C41.574,8.021 42.627,9.594 44.746,9.594 Z M44.746,3.289 C45.968,3.289 46.605,4.16 46.592,5.304 L42.848,5.304 C42.9,3.952 43.615,3.289 44.746,3.289 Z" id="Shape"></path>
            <path d="M50.024,2.431 L50.024,3.458 L52.013,3.458 L52.013,8.398 L50.037,8.398 L50.037,9.425 L55.601,9.425 L55.601,8.398 L53.209,8.398 L53.209,5.941 C53.209,4.407 53.729,3.523 55.068,3.523 L56.251,3.523 L56.251,2.431 L55.055,2.431 C54.197,2.431 53.521,2.899 53.183,3.679 L53.183,2.431 L50.024,2.431 Z" id="Path"></path>
        </g>
        <g id="orange-copy-2" transform="translate(488.768000, 236.863000)" fill="#10162F" fill-rule="nonzero">
            <path d="M1.261,3.666 C1.261,1.807 2.171,1.027 3.237,1.027 C4.303,1.027 5.213,1.807 5.213,3.666 C5.213,5.525 4.303,6.305 3.237,6.305 C2.171,6.305 1.261,5.525 1.261,3.666 Z M0,3.666 C0,6.201 1.638,7.306 3.237,7.306 C4.836,7.306 6.474,6.201 6.474,3.666 C6.474,1.131 4.836,0.026 3.237,0.026 C1.638,0.026 0,1.131 0,3.666 Z" id="Shape"></path>
            <path d="M8.554,0.143 L8.554,1.17 L10.543,1.17 L10.543,6.11 L8.567,6.11 L8.567,7.137 L14.131,7.137 L14.131,6.11 L11.739,6.11 L11.739,3.653 C11.739,2.119 12.259,1.235 13.598,1.235 L14.781,1.235 L14.781,0.143 L13.585,0.143 C12.727,0.143 12.051,0.611 11.713,1.391 L11.713,0.143 L8.554,0.143 Z" id="Path"></path>
            <path d="M19.331,7.306 C20.631,7.306 21.359,6.838 21.788,6.11 L21.801,7.137 L22.945,7.137 C22.906,6.669 22.841,5.668 22.854,4.498 L22.867,2.795 C22.893,0.858 22.061,0 20.124,0 C18.668,0 17.342,0.845 17.225,2.353 L18.447,2.353 C18.525,1.495 19.032,0.962 20.111,0.962 C21.021,0.962 21.684,1.326 21.684,2.535 L21.684,2.834 C18.824,3.146 17.056,3.653 17.056,5.317 C17.056,6.578 18.07,7.306 19.331,7.306 Z M21.775,3.978 C21.775,5.837 20.735,6.344 19.669,6.344 C18.824,6.344 18.343,5.954 18.343,5.291 C18.343,4.29 19.643,3.991 21.775,3.783 L21.775,3.978 Z" id="Shape"></path>
            <path d="M26.91,0.143 L25.714,0.143 L25.714,7.137 L26.91,7.137 L26.91,3.341 C26.91,1.846 27.495,1.04 28.574,1.04 C29.874,1.04 29.965,1.976 29.965,3.107 L29.965,7.137 L31.161,7.137 L31.161,2.691 C31.161,1.144 30.654,0.026 28.964,0.026 C27.859,0.026 27.261,0.533 26.91,1.131 L26.91,0.143 Z" id="Path"></path>
            <path d="M38.428,1.196 C38.038,0.52 37.414,0.026 36.361,0.026 C34.749,0.026 33.54,1.222 33.54,3.523 C33.54,5.837 34.749,7.02 36.361,7.02 C37.414,7.02 38.038,6.539 38.428,5.863 L38.428,6.539 C38.428,7.488 38.298,7.813 38.064,8.086 C37.778,8.424 37.232,8.606 36.634,8.606 C35.607,8.606 35.243,8.177 35.074,7.54 L33.813,7.54 C34.021,8.918 35.1,9.646 36.621,9.646 C37.609,9.646 38.571,9.308 39.065,8.723 C39.442,8.281 39.624,7.696 39.624,6.266 L39.624,0.143 L38.428,0.143 L38.428,1.196 Z M38.48,3.523 C38.48,5.356 37.609,6.032 36.608,6.032 C35.412,6.032 34.801,5.187 34.801,3.523 C34.801,1.859 35.412,1.027 36.608,1.027 C37.609,1.027 38.48,1.677 38.48,3.523 Z" id="Shape"></path>
            <path d="M45.266,7.306 C46.904,7.306 47.996,6.37 48.282,5.044 L47.047,5.044 C46.8,5.837 46.28,6.331 45.24,6.331 C44.135,6.331 43.355,5.408 43.355,4.004 L48.386,4.004 C48.477,1.508 47.307,0.013 45.266,0.013 C43.42,0.013 42.094,1.417 42.094,3.666 C42.094,5.733 43.147,7.306 45.266,7.306 Z M45.266,1.001 C46.488,1.001 47.125,1.872 47.112,3.016 L43.368,3.016 C43.42,1.664 44.135,1.001 45.266,1.001 Z" id="Shape"></path>
        </g>
        <g id="cat-copy-2" transform="translate(421.521000, 280.251000)" fill="#10162F" fill-rule="nonzero">
            <path d="M3.211,1.638 C1.209,1.638 0,3.198 0,5.278 C0,7.41 1.157,8.918 3.094,8.918 C4.654,8.918 5.902,7.891 6.097,6.5 L4.862,6.5 C4.706,7.254 4.108,7.943 3.159,7.943 C2.119,7.943 1.261,7.059 1.261,5.278 C1.261,3.523 2.119,2.626 3.159,2.626 C4.017,2.626 4.654,3.224 4.81,4.082 L6.019,4.082 C5.915,2.821 4.836,1.638 3.211,1.638 Z" id="Path"></path>
            <path d="M10.777,8.918 C12.077,8.918 12.805,8.45 13.234,7.722 L13.247,8.749 L14.391,8.749 C14.352,8.281 14.287,7.28 14.3,6.11 L14.313,4.407 C14.339,2.47 13.507,1.612 11.57,1.612 C10.114,1.612 8.788,2.457 8.671,3.965 L9.893,3.965 C9.971,3.107 10.478,2.574 11.557,2.574 C12.467,2.574 13.13,2.938 13.13,4.147 L13.13,4.446 C10.27,4.758 8.502,5.265 8.502,6.929 C8.502,8.19 9.516,8.918 10.777,8.918 Z M13.221,5.59 C13.221,7.449 12.181,7.956 11.115,7.956 C10.27,7.956 9.789,7.566 9.789,6.903 C9.789,5.902 11.089,5.603 13.221,5.395 L13.221,5.59 Z" id="Shape"></path>
            <path d="M18.239,1.755 L16.25,1.755 L16.25,2.782 L18.239,2.782 L18.239,6.994 C18.239,8.45 18.603,8.749 19.877,8.749 L22.295,8.749 L22.295,7.722 L20.137,7.722 C19.474,7.722 19.435,7.54 19.435,6.825 L19.435,2.782 L22.295,2.782 L22.295,1.755 L19.435,1.755 L19.435,0 L18.239,0 L18.239,1.755 Z" id="Path"></path>
        </g>
        <g id="peach-copy-2" transform="translate(493.435000, 279.575000)" fill="#10162F" fill-rule="nonzero">
            <path d="M1.196,2.431 L0,2.431 L0,11.7 L1.196,11.7 L1.196,8.437 C1.586,9.1 2.223,9.594 3.263,9.594 C4.875,9.594 6.084,8.268 6.084,5.954 C6.084,3.653 4.875,2.314 3.263,2.314 C2.223,2.314 1.586,2.808 1.196,3.484 L1.196,2.431 Z M1.144,5.954 C1.144,4.108 2.015,3.315 3.016,3.315 C4.212,3.315 4.823,4.29 4.823,5.954 C4.823,7.618 4.212,8.606 3.016,8.606 C2.015,8.606 1.144,7.8 1.144,5.954 Z" id="Shape"></path>
            <path d="M11.206,9.594 C12.844,9.594 13.936,8.658 14.222,7.332 L12.987,7.332 C12.74,8.125 12.22,8.619 11.18,8.619 C10.075,8.619 9.295,7.696 9.295,6.292 L14.326,6.292 C14.417,3.796 13.247,2.301 11.206,2.301 C9.36,2.301 8.034,3.705 8.034,5.954 C8.034,8.021 9.087,9.594 11.206,9.594 Z M11.206,3.289 C12.428,3.289 13.065,4.16 13.052,5.304 L9.308,5.304 C9.36,3.952 10.075,3.289 11.206,3.289 Z" id="Shape"></path>
            <path d="M18.863,9.594 C20.163,9.594 20.891,9.126 21.32,8.398 L21.333,9.425 L22.477,9.425 C22.438,8.957 22.373,7.956 22.386,6.786 L22.399,5.083 C22.425,3.146 21.593,2.288 19.656,2.288 C18.2,2.288 16.874,3.133 16.757,4.641 L17.979,4.641 C18.057,3.783 18.564,3.25 19.643,3.25 C20.553,3.25 21.216,3.614 21.216,4.823 L21.216,5.122 C18.356,5.434 16.588,5.941 16.588,7.605 C16.588,8.866 17.602,9.594 18.863,9.594 Z M21.307,6.266 C21.307,8.125 20.267,8.632 19.201,8.632 C18.356,8.632 17.875,8.242 17.875,7.579 C17.875,6.578 19.175,6.279 21.307,6.071 L21.307,6.266 Z" id="Shape"></path>
            <path d="M28.093,2.314 C26.091,2.314 24.882,3.874 24.882,5.954 C24.882,8.086 26.039,9.594 27.976,9.594 C29.536,9.594 30.784,8.567 30.979,7.176 L29.744,7.176 C29.588,7.93 28.99,8.619 28.041,8.619 C27.001,8.619 26.143,7.735 26.143,5.954 C26.143,4.199 27.001,3.302 28.041,3.302 C28.899,3.302 29.536,3.9 29.692,4.758 L30.901,4.758 C30.797,3.497 29.718,2.314 28.093,2.314 Z" id="Path"></path>
            <path d="M36.907,2.314 C35.828,2.314 35.204,2.808 34.84,3.419 L34.84,1.13686838e-13 L33.644,1.13686838e-13 L33.644,9.425 L34.84,9.425 L34.84,5.629 C34.84,4.134 35.438,3.315 36.517,3.315 C37.817,3.315 37.895,4.264 37.895,5.395 L37.895,9.425 L39.091,9.425 L39.091,4.979 C39.091,3.432 38.597,2.314 36.907,2.314 Z" id="Path"></path>
        </g>
        <rect id="Rectangle" fill="#AEE938" x="403" y="154" width="61" height="21"></rect>
        <path d="M464,154 L464,175 L403,175 L403,154 L464,154 Z M463,155 L404,155 L404,174 L463,174 L463,155 Z" id="Rectangle" fill="#10162F" fill-rule="nonzero"></path>
        <rect id="Rectangle-Copy-3" fill="#AEE938" x="482" y="154" width="61" height="21"></rect>
        <path d="M543,154 L543,175 L482,175 L482,154 L543,154 Z M542,155 L483,155 L483,174 L542,174 L542,155 Z" id="Rectangle-Copy-3" fill="#10162F" fill-rule="nonzero"></path>
        <g id="PETS" transform="translate(421.290000, 160.620000)" fill="#10162F" fill-rule="nonzero">
            <path d="M0,0.13 L0,7.38 L0.95,7.38 L0.95,4.59 L1.78,4.59 C3.37,4.59 4.59,4.16 4.59,2.36 C4.59,0.56 3.37,0.13 1.78,0.13 L0,0.13 Z M1.9,1.03 C2.87,1.03 3.61,1.18 3.61,2.36 C3.61,3.54 2.87,3.69 1.9,3.69 L0.95,3.69 L0.95,1.03 L1.9,1.03 Z" id="Shape"></path>
            <polygon id="Path" points="6.37 7.38 10.69 7.38 10.69 6.48 7.32 6.48 7.32 4.09 10.49 4.09 10.49 3.19 7.32 3.19 7.32 1.03 10.69 1.03 10.69 0.13 6.37 0.13"></polygon>
            <polygon id="Path" points="14.46 7.38 15.41 7.38 15.41 1.03 17.59 1.03 17.59 0.13 12.28 0.13 12.28 1.03 14.46 1.03"></polygon>
            <path d="M20.82,3.96 L21.61,4.15 C22.4,4.33 22.97,4.67 22.97,5.42 C22.97,6.25 22.23,6.63 21.51,6.63 C20.58,6.63 19.9,6.09 19.8,5.12 L18.86,5.12 C18.94,6.56 20.01,7.51 21.48,7.51 C22.88,7.51 23.93,6.7 23.93,5.35 C23.93,3.97 22.91,3.46 21.74,3.2 L21.02,3.04 C20.44,2.91 19.97,2.6 19.97,1.96 C19.97,1.21 20.66,0.88 21.32,0.88 C21.98,0.88 22.73,1.17 22.84,2.04 L23.78,2.04 C23.62,0.6 22.49,0 21.37,0 C20.07,0 18.99,0.74 18.99,1.99 C18.99,3.14 19.87,3.75 20.82,3.96 Z" id="Path"></path>
        </g>
        <g id="FOOD" transform="translate(500.380000, 160.620000)" fill="#10162F" fill-rule="nonzero">
            <polygon id="Path" points="0 7.38 0.95 7.38 0.95 4.09 4.27 4.09 4.27 3.19 0.95 3.19 0.95 1.03 4.46 1.03 4.46 0.13 0 0.13"></polygon>
            <path d="M8.39,0 C6.58,0 5.68,1.56 5.68,3.75 C5.68,5.93 6.58,7.51 8.39,7.51 C10.2,7.51 11.1,5.93 11.1,3.75 C11.1,1.56 10.2,0 8.39,0 Z M8.39,0.88 C9.59,0.88 10.12,1.92 10.12,3.75 C10.12,5.58 9.59,6.63 8.39,6.63 C7.2,6.63 6.66,5.58 6.66,3.75 C6.66,1.92 7.2,0.88 8.39,0.88 Z" id="Shape"></path>
            <path d="M14.85,0 C13.04,0 12.14,1.56 12.14,3.75 C12.14,5.93 13.04,7.51 14.85,7.51 C16.66,7.51 17.56,5.93 17.56,3.75 C17.56,1.56 16.66,0 14.85,0 Z M14.85,0.88 C16.05,0.88 16.58,1.92 16.58,3.75 C16.58,5.58 16.05,6.63 14.85,6.63 C13.66,6.63 13.12,5.58 13.12,3.75 C13.12,1.92 13.66,0.88 14.85,0.88 Z" id="Shape"></path>
            <path d="M23.01,3.75 C23.01,6.21 21.58,6.48 20.23,6.48 L19.97,6.48 L19.97,1.03 L20.23,1.03 C21.58,1.03 23.01,1.28 23.01,3.75 Z M19.02,0.13 L19.02,7.38 L20.26,7.38 C22.32,7.38 23.98,6.51 23.98,3.75 C23.98,0.98 22.32,0.13 20.26,0.13 L19.02,0.13 Z" id="Shape"></path>
        </g>
        <g transform="translate(222.864000, 24.176000)" fill="#10162F" fill-rule="nonzero">
            <path d="M6.672,8.224 C6.464,9.616 5.728,10.624 4.256,10.624 C2.48,10.624 1.568,8.864 1.568,6 C1.568,3.04 2.544,1.424 4.224,1.424 C5.696,1.424 6.416,2.576 6.608,3.904 L8.16,3.904 C7.776,1.552 6.272,0 4.272,0 C1.504,0 0,2.4 0,6 C0,9.52 1.328,12.032 4.16,12.032 C6.256,12.032 7.792,10.704 8.192,8.224 L6.672,8.224 Z" id="Path"></path>
            <polygon id="Path" points="11.328 0.224 11.328 1.472 13.76 1.472 13.76 10.56 11.328 10.56 11.328 11.824 17.68 11.824 17.68 10.56 15.232 10.56 15.232 0.224"></polygon>
            <path d="M22.352,7.552 C22.352,5.264 23.472,4.304 24.784,4.304 C26.096,4.304 27.216,5.264 27.216,7.552 C27.216,9.84 26.096,10.8 24.784,10.8 C23.472,10.8 22.352,9.84 22.352,7.552 Z M20.8,7.552 C20.8,10.672 22.816,12.032 24.784,12.032 C26.752,12.032 28.768,10.672 28.768,7.552 C28.768,4.432 26.752,3.072 24.784,3.072 C22.816,3.072 20.8,4.432 20.8,7.552 Z" id="Shape"></path>
            <path d="M38.432,5.568 C38.112,4.032 36.864,3.072 35.04,3.072 C33.6,3.072 31.792,3.792 31.792,5.456 C31.792,6.944 32.864,7.616 34.224,7.888 L35.296,8.096 C36.384,8.288 37.104,8.688 37.104,9.488 C37.104,10.496 36.096,10.816 35.184,10.816 C33.984,10.816 33.376,10.24 33.184,9.248 L31.632,9.248 C31.792,10.624 32.912,12.032 35.152,12.032 C37.024,12.032 38.592,11.136 38.592,9.312 C38.592,7.584 36.992,7.024 35.504,6.736 L34.544,6.544 C33.696,6.368 33.248,6.064 33.248,5.392 C33.248,4.624 34.112,4.288 34.976,4.288 C35.952,4.288 36.704,4.608 36.896,5.568 L38.432,5.568 Z" id="Path"></path>
            <path d="M45.504,12.032 C47.52,12.032 48.864,10.88 49.216,9.248 L47.696,9.248 C47.392,10.224 46.752,10.832 45.472,10.832 C44.112,10.832 43.152,9.696 43.152,7.968 L49.344,7.968 C49.456,4.896 48.016,3.056 45.504,3.056 C43.232,3.056 41.6,4.784 41.6,7.552 C41.6,10.096 42.896,12.032 45.504,12.032 Z M45.504,4.272 C47.008,4.272 47.792,5.344 47.776,6.752 L43.168,6.752 C43.232,5.088 44.112,4.272 45.504,4.272 Z" id="Shape"></path>
            <path d="M57.728,4.512 C57.248,3.68 56.48,3.072 55.184,3.072 C53.2,3.072 51.712,4.72 51.712,7.552 C51.712,10.4 53.2,12.032 55.184,12.032 C56.48,12.032 57.248,11.424 57.728,10.608 L57.744,11.824 L59.2,11.824 L59.2,0.224 L57.728,0.224 L57.728,4.512 Z M57.792,7.552 C57.792,9.808 56.72,10.816 55.488,10.816 C54.016,10.816 53.264,9.6 53.264,7.552 C53.264,5.504 54.016,4.304 55.488,4.304 C56.72,4.304 57.792,5.28 57.792,7.552 Z" id="Shape"></path>
            <path d="M79.024,8.224 C78.816,9.616 78.08,10.624 76.608,10.624 C74.832,10.624 73.92,8.864 73.92,6 C73.92,3.04 74.896,1.424 76.576,1.424 C78.048,1.424 78.768,2.576 78.96,3.904 L80.512,3.904 C80.128,1.552 78.624,0 76.624,0 C73.856,0 72.352,2.4 72.352,6 C72.352,9.52 73.68,12.032 76.512,12.032 C78.608,12.032 80.144,10.704 80.544,8.224 L79.024,8.224 Z" id="Path"></path>
            <path d="M85.936,12.032 C87.536,12.032 88.432,11.456 88.96,10.56 L88.976,11.824 L90.384,11.824 C90.336,11.248 90.256,10.016 90.272,8.576 L90.288,6.48 C90.32,4.096 89.296,3.04 86.912,3.04 C85.12,3.04 83.488,4.08 83.344,5.936 L84.848,5.936 C84.944,4.88 85.568,4.224 86.896,4.224 C88.016,4.224 88.832,4.672 88.832,6.16 L88.832,6.528 C85.312,6.912 83.136,7.536 83.136,9.584 C83.136,11.136 84.384,12.032 85.936,12.032 Z M88.944,7.936 C88.944,10.224 87.664,10.848 86.352,10.848 C85.312,10.848 84.72,10.368 84.72,9.552 C84.72,8.32 86.32,7.952 88.944,7.696 L88.944,7.936 Z" id="Shape"></path>
            <path d="M93.344,3.216 L93.344,4.48 L95.792,4.48 L95.792,10.56 L93.36,10.56 L93.36,11.824 L100.208,11.824 L100.208,10.56 L97.264,10.56 L97.264,7.536 C97.264,5.648 97.904,4.56 99.552,4.56 L101.008,4.56 L101.008,3.216 L99.536,3.216 C98.48,3.216 97.648,3.792 97.232,4.752 L97.232,3.216 L93.344,3.216 Z" id="Path"></path>
            <path d="M109.408,4.512 C108.928,3.68 108.16,3.072 106.864,3.072 C104.88,3.072 103.392,4.72 103.392,7.552 C103.392,10.4 104.88,12.032 106.864,12.032 C108.16,12.032 108.928,11.424 109.408,10.608 L109.424,11.824 L110.88,11.824 L110.88,0.224 L109.408,0.224 L109.408,4.512 Z M109.472,7.552 C109.472,9.808 108.4,10.816 107.168,10.816 C105.696,10.816 104.944,9.6 104.944,7.552 C104.944,5.504 105.696,4.304 107.168,4.304 C108.4,4.304 109.472,5.28 109.472,7.552 Z" id="Shape"></path>
            <path d="M127.216,6.352 L128.48,6.656 C129.744,6.944 130.656,7.488 130.656,8.688 C130.656,10.016 129.472,10.624 128.32,10.624 C126.832,10.624 125.744,9.76 125.584,8.208 L124.08,8.208 C124.208,10.512 125.92,12.032 128.272,12.032 C130.512,12.032 132.192,10.736 132.192,8.576 C132.192,6.368 130.56,5.552 128.688,5.136 L127.536,4.88 C126.608,4.672 125.856,4.176 125.856,3.152 C125.856,1.952 126.96,1.424 128.016,1.424 C129.072,1.424 130.272,1.888 130.448,3.28 L131.952,3.28 C131.696,0.976 129.888,0.016 128.096,0.016 C126.016,0.016 124.288,1.2 124.288,3.2 C124.288,5.04 125.696,6.016 127.216,6.352 Z" id="Path"></path>
            <path d="M136.048,7.552 C136.048,5.264 137.168,4.304 138.48,4.304 C139.792,4.304 140.912,5.264 140.912,7.552 C140.912,9.84 139.792,10.8 138.48,10.8 C137.168,10.8 136.048,9.84 136.048,7.552 Z M134.496,7.552 C134.496,10.672 136.512,12.032 138.48,12.032 C140.448,12.032 142.464,10.672 142.464,7.552 C142.464,4.432 140.448,3.072 138.48,3.072 C136.512,3.072 134.496,4.432 134.496,7.552 Z" id="Shape"></path>
            <path d="M145.024,3.216 L145.024,4.48 L147.472,4.48 L147.472,10.56 L145.04,10.56 L145.04,11.824 L151.888,11.824 L151.888,10.56 L148.944,10.56 L148.944,7.536 C148.944,5.648 149.584,4.56 151.232,4.56 L152.688,4.56 L152.688,3.216 L151.216,3.216 C150.16,3.216 149.328,3.792 148.912,4.752 L148.912,3.216 L145.024,3.216 Z" id="Path"></path>
            <path d="M157.136,3.216 L154.688,3.216 L154.688,4.48 L157.136,4.48 L157.136,9.664 C157.136,11.456 157.584,11.824 159.152,11.824 L162.128,11.824 L162.128,10.56 L159.472,10.56 C158.656,10.56 158.608,10.336 158.608,9.456 L158.608,4.48 L162.128,4.48 L162.128,3.216 L158.608,3.216 L158.608,1.056 L157.136,1.056 L157.136,3.216 Z" id="Path"></path>
            <path d="M168.896,0.224 L168.896,1.968 L170.368,1.968 L170.368,0.224 L168.896,0.224 Z M166.464,3.216 L166.464,4.48 L168.896,4.48 L168.896,10.56 L166.464,10.56 L166.464,11.824 L172.816,11.824 L172.816,10.56 L170.368,10.56 L170.368,3.216 L166.464,3.216 Z" id="Shape"></path>
            <path d="M177.952,3.216 L176.48,3.216 L176.48,11.824 L177.952,11.824 L177.952,7.152 C177.952,5.312 178.672,4.32 180,4.32 C181.6,4.32 181.712,5.472 181.712,6.864 L181.712,11.824 L183.184,11.824 L183.184,6.352 C183.184,4.448 182.56,3.072 180.48,3.072 C179.12,3.072 178.384,3.696 177.952,4.432 L177.952,3.216 Z" id="Path"></path>
            <path d="M192.128,4.512 C191.648,3.68 190.88,3.072 189.584,3.072 C187.6,3.072 186.112,4.544 186.112,7.376 C186.112,10.224 187.6,11.68 189.584,11.68 C190.88,11.68 191.648,11.088 192.128,10.256 L192.128,11.088 C192.128,12.256 191.968,12.656 191.68,12.992 C191.328,13.408 190.656,13.632 189.92,13.632 C188.656,13.632 188.208,13.104 188,12.32 L186.448,12.32 C186.704,14.016 188.032,14.912 189.904,14.912 C191.12,14.912 192.304,14.496 192.912,13.776 C193.376,13.232 193.6,12.512 193.6,10.752 L193.6,3.216 L192.128,3.216 L192.128,4.512 Z M192.192,7.376 C192.192,9.632 191.12,10.464 189.888,10.464 C188.416,10.464 187.664,9.424 187.664,7.376 C187.664,5.328 188.416,4.304 189.888,4.304 C191.12,4.304 192.192,5.104 192.192,7.376 Z" id="Shape"></path>
        </g>
    </g>
</svg>