<?xml version="1.0" encoding="UTF-8"?>
<svg width="1188px" height="750px" viewBox="0 0 1188 750" version="1.1" xmlns="http://www.w3.org/2000/svg" xmlns:xlink="http://www.w3.org/1999/xlink">
    <title>CSS box model</title>
    <g id="CSS-box-model" stroke="none" stroke-width="1" fill="none" fill-rule="evenodd">
        <g id="css-box-model" transform="translate(41.200000, -8.200000)" fill-rule="nonzero">
            <g id="Group" transform="translate(135.500000, 109.500000)">
                <rect id="Rectangle" fill="#F5FCFF" x="124.3" y="124.1" width="620.7" height="248.3"></rect>
                <rect id="Rectangle" fill="#66C4FF" x="186.4" y="186.2" width="496.6" height="124.1"></rect>
                <path d="M854.3,0 L846.9,0 L846.9,1.2 L854.3,1.2 L854.3,0 L854.3,0 Z M839.4,0 L831.9,0 L831.9,1.2 L839.4,1.2 L839.4,0 L839.4,0 Z M824.5,0 L817,0 L817,1.2 L824.5,1.2 L824.5,0 L824.5,0 Z M809.6,0 L802.1,0 L802.1,1.2 L809.6,1.2 L809.6,0 L809.6,0 Z M794.7,0 L787.2,0 L787.2,1.2 L794.7,1.2 L794.7,0 L794.7,0 Z M779.8,0 L772.3,0 L772.3,1.2 L779.8,1.2 L779.8,0 L779.8,0 L779.8,0 Z M764.9,0 L757.4,0 L757.4,1.2 L764.9,1.2 L764.9,0 L764.9,0 Z M750,0 L742.5,0 L742.5,1.2 L750,1.2 L750,0 L750,0 Z M735.1,0 L727.6,0 L727.6,1.2 L735.1,1.2 L735.1,0 L735.1,0 Z M720.2,0 L712.7,0 L712.7,1.2 L720.2,1.2 L720.2,0 L720.2,0 Z M705.3,0 L697.8,0 L697.8,1.2 L705.3,1.2 L705.3,0 L705.3,0 L705.3,0 Z M690.4,0 L682.9,0 L682.9,1.2 L690.4,1.2 L690.4,0 L690.4,0 Z M675.5,0 L668,0 L668,1.2 L675.5,1.2 L675.5,0 L675.5,0 Z M660.6,0 L653.1,0 L653.1,1.2 L660.6,1.2 L660.6,0 L660.6,0 Z M645.7,0 L638.3,0 L638.3,1.2 L645.8,1.2 L645.7,0 L645.7,0 L645.7,0 Z M630.8,0 L623.3,0 L623.3,1.2 L630.8,1.2 L630.8,0 L630.8,0 Z M615.9,0 L608.4,0 L608.4,1.2 L615.9,1.2 L615.9,0 L615.9,0 Z M601,0 L593.5,0 L593.5,1.2 L601,1.2 L601,0 L601,0 Z M586.1,0 L578.6,0 L578.6,1.2 L586.1,1.2 L586.1,0 L586.1,0 Z M571.2,0 L563.7,0 L563.7,1.2 L571.2,1.2 L571.2,0 L571.2,0 Z M556.3,0 L548.8,0 L548.8,1.2 L556.3,1.2 L556.3,0 L556.3,0 L556.3,0 Z M541.4,0 L533.9,0 L533.9,1.2 L541.4,1.2 L541.4,0 L541.4,0 Z M526.5,0 L519,0 L519,1.2 L526.5,1.2 L526.5,0 L526.5,0 Z M511.6,0 L504.2,0 L504.2,1.2 L511.7,1.2 L511.6,0 L511.6,0 L511.6,0 Z M496.7,0 L489.3,0 L489.3,1.2 L496.8,1.2 L496.7,0 L496.7,0 L496.7,0 Z M481.8,0 L474.4,0 L474.4,1.2 L481.9,1.2 L481.8,0 L481.8,0 L481.8,0 Z M466.9,0 L459.4,0 L459.4,1.2 L466.9,1.2 L466.9,0 L466.9,0 Z M452,0 L444.5,0 L444.5,1.2 L452,1.2 L452,0 L452,0 Z M437.1,0 L429.6,0 L429.6,1.2 L437.1,1.2 L437.1,0 L437.1,0 Z M422.2,0 L414.7,0 L414.7,1.2 L422.3,1.2 L422.3,0 L422.3,0 L422.2,0 Z M407.3,0 L399.8,0 L399.8,1.2 L407.3,1.2 L407.3,0 L407.3,0 Z M392.4,0 L384.9,0 L384.9,1.2 L392.4,1.2 L392.4,0 L392.4,0 Z M377.5,0 L370,0 L370,1.2 L377.5,1.2 L377.5,0 L377.5,0 Z M362.6,0 L355.1,0 L355.1,1.2 L362.6,1.2 L362.6,0 L362.6,0 Z M347.7,0 L340.3,0 L340.3,1.2 L347.8,1.2 L347.7,0 L347.7,0 L347.7,0 Z M332.8,0 L325.3,0 L325.3,1.2 L332.8,1.2 L332.8,0 L332.8,0 Z M317.9,0 L310.4,0 L310.4,1.2 L317.9,1.2 L317.9,0 L317.9,0 Z M303,0 L295.5,0 L295.5,1.2 L303,1.2 L303,0 L303,0 Z M288.1,0 L280.6,0 L280.6,1.2 L288.1,1.2 L288.1,0 L288.1,0 Z M273.2,0 L265.7,0 L265.7,1.2 L273.3,1.2 L273.3,0 L273.3,0 L273.2,0 Z M258.3,0 L250.8,0 L250.8,1.2 L258.3,1.2 L258.3,0 L258.3,0 Z M243.4,0 L235.9,0 L235.9,1.2 L243.4,1.2 L243.4,0 L243.4,0 Z M228.5,0 L221,0 L221,1.2 L228.5,1.2 L228.5,0 L228.5,0 Z M213.6,0 L206.3,0 L206.3,1.2 L213.8,1.2 L213.8,0 L213.8,0 L213.6,0 Z M198.7,0 L191.2,0 L191.2,1.2 L198.7,1.2 L198.7,0 L198.7,0 Z M183.8,0 L176.3,0 L176.3,1.2 L183.8,1.2 L183.8,0 L183.8,0 Z M168.9,0 L161.4,0 L161.4,1.2 L168.9,1.2 L168.9,0 L168.9,0 Z M154,0 L146.5,0 L146.5,1.2 L154,1.2 L154,0 L154,0 Z M139.1,0 L131.6,0 L131.6,1.2 L139.1,1.2 L139.1,0 L139.1,0 Z M124.2,0 L116.7,0 L116.7,1.2 L124.3,1.2 L124.3,0 L124.3,0 L124.2,0 Z M109.3,0 L101.8,0 L101.8,1.2 L109.3,1.2 L109.3,0 L109.3,0 Z M94.4,0 L86.9,0 L86.9,1.2 L94.4,1.2 L94.4,0 L94.4,0 Z M79.5,0 L72.1,0 L72.1,1.2 L79.5,1.2 L79.5,0 L79.5,0 Z M64.6,0 L57.3,0 L57.3,1.2 L64.7,1.2 L64.7,0 L64.7,0 L64.6,0 Z M49.7,0 L42.4,0 L42.4,1.2 L49.8,1.2 L49.8,0 L49.8,0 L49.7,0 Z M34.8,0 L27.5,0 L27.5,1.2 L34.9,1.2 L34.9,0 L34.9,0 L34.8,0 Z M19.9,0 L12.6,0 L12.6,1.2 L20,1.2 L20,0 L20,0 L19.9,0 Z M5,0 L5.68434189e-14,0 L5.68434189e-14,1.2 L5.68434189e-14,1.2 L5.68434189e-14,2.4 L1.2,2.4 L1.2,1.2 L4.9,1.2 L5,0 L5,0 L5,0 Z M1.3,9.9 L0.1,9.9 L0.1,17.3 L1.3,17.3 L1.3,9.9 L1.3,9.9 Z M1.3,24.8 L0.1,24.8 L0.1,32.2 L1.3,32.2 L1.3,24.8 L1.3,24.8 L1.3,24.8 Z M1.3,39.7 L0.1,39.7 L0.1,47.2 L1.3,47.2 L1.3,39.7 L1.3,39.7 L1.3,39.7 Z M1.3,54.6 L0.1,54.6 L0.1,62.1 L1.3,62.1 L1.3,54.6 L1.3,54.6 L1.3,54.6 Z M1.3,69.5 L0.1,69.5 L0.1,77 L1.3,77 L1.3,69.5 L1.3,69.5 Z M1.3,84.4 L0.1,84.4 L0.1,91.9 L1.3,91.9 L1.3,84.4 L1.3,84.4 Z M1.3,99.3 L0.1,99.3 L0.1,106.7 L1.3,106.7 L1.3,99.3 L1.3,99.3 L1.3,99.3 Z M1.3,114.2 L0.1,114.2 L0.1,121.7 L1.3,121.7 L1.3,114.2 L1.3,114.2 Z M1.3,129.1 L0.1,129.1 L0.1,136.6 L1.3,136.6 L1.3,129.1 L1.3,129.1 Z M1.3,144 L0.1,144 L0.1,151.5 L1.3,151.5 L1.3,144 L1.3,144 Z M1.3,158.9 L0.1,158.9 L0.1,166.4 L1.3,166.4 L1.3,158.9 L1.3,158.9 Z M1.3,173.8 L0.1,173.8 L0.1,181.3 L1.3,181.3 L1.3,173.8 L1.3,173.8 Z M1.3,188.7 L0.1,188.7 L0.1,196.2 L1.3,196.2 L1.3,188.7 L1.3,188.7 L1.3,188.7 Z M1.3,203.6 L0.1,203.6 L0.1,211.1 L1.3,211.1 L1.3,203.6 L1.3,203.6 Z M1.3,218.5 L0.1,218.5 L0.1,226 L1.3,226 L1.3,218.5 L1.3,218.5 Z M1.3,233.4 L0.1,233.4 L0.1,240.9 L1.3,240.9 L1.3,233.4 L1.3,233.4 Z M1.3,248.3 L0.1,248.3 L0.1,255.7 L1.3,255.7 L1.3,248.3 L1.3,248.3 L1.3,248.3 Z M1.3,263.2 L0.1,263.2 L0.1,270.7 L1.3,270.7 L1.3,263.2 L1.3,263.2 Z M1.3,278.1 L0.1,278.1 L0.1,285.6 L1.3,285.6 L1.3,278.1 L1.3,278.1 Z M1.3,293 L0.1,293 L0.1,300.5 L1.3,300.5 L1.3,293 L1.3,293 Z M1.3,307.9 L0.1,307.9 L0.1,315.4 L1.3,315.4 L1.3,307.9 L1.3,307.9 Z M1.3,322.8 L0.1,322.8 L0.1,330.3 L1.3,330.3 L1.3,322.7 L1.3,322.7 L1.3,322.8 Z M1.3,337.7 L0.1,337.7 L0.1,345.2 L1.3,345.2 L1.3,337.7 L1.3,337.7 Z M1.3,352.6 L0.1,352.6 L0.1,360.1 L1.3,360.1 L1.3,352.6 L1.3,352.6 Z M1.3,367.5 L0.1,367.5 L0.1,375 L1.3,375 L1.3,367.5 L1.3,367.5 Z M1.3,382.4 L0.1,382.4 L0.1,389.9 L1.3,389.9 L1.3,382.4 L1.3,382.4 Z M1.3,397.3 L0.1,397.3 L0.1,404.7 L1.3,404.7 L1.3,397.3 L1.3,397.3 L1.3,397.3 Z M1.3,412.2 L0.1,412.2 L0.1,419.7 L1.3,419.7 L1.3,412.2 L1.3,412.2 Z M1.3,427.1 L0.1,427.1 L0.1,434.6 L1.3,434.6 L1.3,427.1 L1.3,427.1 Z M1.3,442 L0.1,442 L0.1,449.5 L1.3,449.5 L1.3,442 L1.3,442 Z M1.3,456.9 L0.1,456.9 L0.1,464.4 L1.3,464.4 L1.3,456.9 L1.3,456.9 Z M1.3,471.8 L0.1,471.8 L0.1,479.3 L1.3,479.3 L1.3,471.7 L1.3,471.7 L1.3,471.8 Z M1.3,486.7 L0.1,486.7 L0.1,494.2 L1.3,494.2 L1.3,486.7 L1.3,486.7 Z M12.4,495.4 L5,495.4 L5,496.6 L12.4,496.6 L12.4,495.3 L12.4,495.3 L12.4,495.4 Z M27.3,495.4 L19.9,495.4 L19.9,496.6 L27.3,496.6 L27.3,495.3 L27.3,495.3 L27.3,495.4 Z M42.2,495.4 L34.8,495.4 L34.8,496.6 L42.2,496.6 L42.2,495.3 L42.2,495.3 L42.2,495.4 Z M57.1,495.4 L49.7,495.4 L49.7,496.6 L57.3,496.6 L57.3,495.3 L57.3,495.3 L57.1,495.4 Z M72,495.4 L64.6,495.4 L64.6,496.6 L72,496.6 L72,495.3 L72,495.3 L72,495.4 Z M86.9,495.4 L79.4,495.4 L79.4,496.6 L86.9,496.6 L86.9,495.3 L86.9,495.3 L86.9,495.4 Z M101.8,495.4 L94.3,495.4 L94.3,496.6 L101.8,496.6 L101.8,495.3 L101.8,495.3 L101.8,495.4 Z M116.7,495.4 L109.3,495.4 L109.3,496.6 L116.8,496.6 L116.8,495.3 L116.8,495.3 L116.8,495.4 L116.7,495.4 Z M131.6,495.4 L124.3,495.4 L124.3,496.6 L131.8,496.6 L131.8,495.3 L131.8,495.3 L131.6,495.4 Z M146.5,495.4 L139,495.4 L139,496.6 L146.5,496.6 L146.5,495.3 L146.5,495.3 L146.5,495.4 Z M161.4,495.4 L153.9,495.4 L153.9,496.6 L161.4,496.6 L161.4,495.3 L161.4,495.3 L161.4,495.4 Z M176.3,495.4 L168.8,495.4 L168.8,496.6 L176.3,496.6 L176.3,495.3 L176.3,495.3 L176.3,495.4 Z M191.2,495.4 L183.7,495.4 L183.7,496.6 L191.2,496.6 L191.2,495.3 L191.2,495.3 L191.2,495.4 Z M206.1,495.4 L198.6,495.4 L198.6,496.6 L206.2,496.6 L206.2,495.3 L206.2,495.3 L206.1,495.4 Z M221,495.4 L213.5,495.4 L213.5,496.6 L221,496.6 L221,495.3 L221,495.3 L221,495.4 Z M235.9,495.4 L228.4,495.4 L228.4,496.6 L235.9,496.6 L235.9,495.3 L235.9,495.3 L235.9,495.4 Z M250.8,495.4 L243.5,495.4 L243.5,496.6 L251,496.6 L251,495.3 L251,495.3 L250.8,495.4 Z M265.7,495.4 L258.4,495.4 L258.4,496.6 L265.9,496.6 L265.9,495.3 L265.9,495.3 L265.7,495.4 Z M280.6,495.4 L273.3,495.4 L273.3,496.6 L280.8,496.6 L280.8,495.3 L280.8,495.3 L280.6,495.4 Z M295.5,495.4 L288,495.4 L288,496.6 L295.5,496.6 L295.5,495.3 L295.5,495.3 L295.5,495.4 Z M310.4,495.4 L302.9,495.4 L302.9,496.6 L310.4,496.6 L310.4,495.3 L310.4,495.3 L310.4,495.4 Z M325.3,495.4 L317.8,495.4 L317.8,496.6 L325.3,496.6 L325.3,495.3 L325.3,495.3 L325.3,495.4 Z M340.2,495.4 L332.7,495.4 L332.7,496.6 L340.2,496.6 L340.2,495.3 L340.2,495.3 L340.2,495.4 Z M355.1,495.4 L347.6,495.4 L347.6,496.6 L355.1,496.6 L355.1,495.3 L355.1,495.3 L355.1,495.4 Z M370,495.4 L362.5,495.4 L362.5,496.6 L370,496.6 L370,495.3 L370,495.3 L370,495.4 Z M384.9,495.4 L377.4,495.4 L377.4,496.6 L384.9,496.6 L384.9,495.3 L384.9,495.3 L384.9,495.4 Z M399.8,495.4 L392.3,495.4 L392.3,496.6 L399.8,496.6 L399.8,495.3 L399.8,495.3 L399.8,495.4 Z M414.7,495.4 L407.3,495.4 L407.3,496.6 L414.8,496.6 L414.8,495.3 L414.8,495.3 L414.8,495.4 L414.7,495.4 Z M429.6,495.4 L422.3,495.4 L422.3,496.6 L429.8,496.6 L429.8,495.3 L429.8,495.3 L429.6,495.4 Z M444.5,495.4 L437,495.4 L437,496.6 L444.5,496.6 L444.5,495.3 L444.5,495.3 L444.5,495.4 Z M459.4,495.4 L451.9,495.4 L451.9,496.6 L459.4,496.6 L459.4,495.3 L459.4,495.3 L459.4,495.4 Z M474.3,495.4 L466.8,495.4 L466.8,496.6 L474.3,496.6 L474.3,495.3 L474.3,495.3 L474.3,495.4 Z M489.2,495.4 L481.7,495.4 L481.7,496.6 L489.2,496.6 L489.2,495.3 L489.2,495.3 L489.2,495.4 Z M504.1,495.4 L496.6,495.4 L496.6,496.6 L504.1,496.6 L504.1,495.3 L504.1,495.3 L504.1,495.4 Z M519,495.4 L511.5,495.4 L511.5,496.6 L519,496.6 L519,495.3 L519,495.3 L519,495.4 Z M533.9,495.4 L526.4,495.4 L526.4,496.6 L533.9,496.6 L533.9,495.3 L533.9,495.3 L533.9,495.4 Z M548.8,495.4 L541.3,495.4 L541.3,496.6 L548.8,496.6 L548.8,495.3 L548.8,495.3 L548.8,495.4 Z M563.7,495.4 L556.3,495.4 L556.3,496.6 L563.8,496.6 L563.8,495.3 L563.8,495.3 L563.7,495.4 Z M578.6,495.4 L571.1,495.4 L571.1,496.6 L578.6,496.6 L578.6,495.3 L578.6,495.3 L578.6,495.4 Z M593.5,495.4 L586,495.4 L586,496.6 L593.5,496.6 L593.5,495.3 L593.5,495.3 L593.5,495.4 Z M608.4,495.4 L600.9,495.4 L600.9,496.6 L608.4,496.6 L608.4,495.3 L608.4,495.3 L608.4,495.4 Z M623.3,495.4 L615.8,495.4 L615.8,496.6 L623.3,496.6 L623.3,495.3 L623.3,495.3 L623.3,495.4 Z M638.2,495.4 L630.7,495.4 L630.7,496.6 L638.2,496.6 L638.2,495.3 L638.2,495.3 L638.2,495.4 Z M653.1,495.4 L645.6,495.4 L645.6,496.6 L653.1,496.6 L653.1,495.3 L653.1,495.3 L653.1,495.4 Z M668,495.4 L660.5,495.4 L660.5,496.6 L668,496.6 L668,495.3 L668,495.3 L668,495.4 Z M682.9,495.4 L675.4,495.4 L675.4,496.6 L682.9,496.6 L682.9,495.3 L682.9,495.3 L682.9,495.4 Z M697.8,495.4 L690.3,495.4 L690.3,496.6 L697.8,496.6 L697.8,495.3 L697.8,495.3 L697.8,495.4 Z M712.7,495.4 L705.3,495.4 L705.3,496.6 L712.8,496.6 L712.8,495.3 L712.8,495.3 L712.7,495.4 Z M727.6,495.4 L720.2,495.4 L720.2,496.6 L727.7,496.6 L727.7,495.3 L727.7,495.3 L727.6,495.4 Z M742.5,495.4 L735.1,495.4 L735.1,496.6 L742.6,496.6 L742.6,495.3 L742.6,495.3 L742.5,495.4 Z M757.4,495.4 L749.9,495.4 L749.9,496.6 L757.4,496.6 L757.4,495.3 L757.4,495.3 L757.4,495.4 Z M772.3,495.4 L764.8,495.4 L764.8,496.6 L772.2,496.6 L772.2,495.3 L772.2,495.3 L772.3,495.4 Z M787.2,495.4 L779.7,495.4 L779.7,496.6 L787.2,496.6 L787.2,495.3 L787.2,495.3 L787.2,495.4 Z M802.1,495.4 L794.6,495.4 L794.6,496.6 L802.1,496.6 L802.1,495.3 L802.1,495.3 L802.1,495.4 Z M817,495.4 L809.5,495.4 L809.5,496.6 L817,496.6 L817,495.3 L817,495.3 L817,495.4 Z M831.9,495.4 L824.4,495.4 L824.4,496.6 L831.9,496.6 L831.9,495.3 L831.9,495.3 L831.9,495.4 Z M846.8,495.4 L839.3,495.4 L839.3,496.6 L846.8,496.6 L846.8,495.3 L846.8,495.3 L846.8,495.4 Z M861.7,495.4 L854.3,495.4 L854.3,496.6 L861.7,496.6 L861.7,495.3 L861.7,495.3 L861.7,495.4 Z M869.2,489.2 L868,489.2 L868,496.7 L869.2,496.7 L869.2,489.2 L869.2,489.2 Z M869.2,474.3 L868,474.3 L868,481.8 L869.2,481.8 L869.2,474.3 L869.2,474.3 Z M869.2,459.4 L868,459.4 L868,466.7 L869.2,466.7 L869.2,459.2 L869.2,459.2 L869.2,459.4 Z M869.2,444.5 L868,444.5 L868,452 L869.2,452 L869.2,444.5 L869.2,444.5 L869.2,444.5 Z M869.2,429.6 L868,429.6 L868,437.1 L869.2,437.1 L869.2,429.6 L869.2,429.6 L869.2,429.6 Z M869.2,414.7 L868,414.7 L868,422.2 L869.2,422.2 L869.2,414.7 L869.2,414.7 L869.2,414.7 Z M869.2,399.8 L868,399.8 L868,407.3 L869.2,407.3 L869.2,399.8 L869.2,399.8 L869.2,399.8 Z M869.2,384.9 L868,384.9 L868,392.4 L869.2,392.4 L869.2,384.9 L869.2,384.9 Z M869.2,370 L868,370 L868,377.5 L869.2,377.5 L869.2,370 L869.2,370 Z M869.2,355.1 L868,355.1 L868,362.6 L869.2,362.6 L869.2,355.1 L869.2,355.1 Z M869.2,340.2 L868,340.2 L868,347.7 L869.2,347.7 L869.2,340.2 L869.2,340.2 Z M869.2,325.3 L868,325.3 L868,332.7 L869.2,332.7 L869.2,325.3 L869.2,325.3 L869.2,325.3 Z M869.2,310.4 L868,310.4 L868,317.9 L869.2,317.9 L869.2,310.4 L869.2,310.4 Z M869.2,295.5 L868,295.5 L868,303 L869.2,303 L869.2,295.5 L869.2,295.5 Z M869.2,280.6 L868,280.6 L868,288.1 L869.2,288.1 L869.2,280.6 L869.2,280.6 Z M869.2,265.7 L868,265.7 L868,273.2 L869.2,273.2 L869.2,265.7 L869.2,265.7 Z M869.2,250.8 L868,250.8 L868,258.3 L869.2,258.3 L869.2,250.8 L869.2,250.8 L869.2,250.8 Z M869.2,235.9 L868,235.9 L868,243.4 L869.2,243.4 L869.2,235.9 L869.2,235.9 Z M869.2,221 L868,221 L868,228.5 L869.2,228.5 L869.2,221 L869.2,221 Z M869.2,206.1 L868,206.1 L868,213.6 L869.2,213.6 L869.2,206.1 L869.2,206.1 Z M869.2,191.2 L868,191.2 L868,198.7 L869.2,198.7 L869.2,191.2 L869.2,191.2 Z M869.2,176.3 L868,176.3 L868,183.7 L869.2,183.7 L869.2,176.3 L869.2,176.3 L869.2,176.3 Z M869.2,161.4 L868,161.4 L868,168.9 L869.2,168.9 L869.2,161.4 L869.2,161.4 Z M869.2,146.5 L868,146.5 L868,154 L869.2,154 L869.2,146.5 L869.2,146.5 Z M869.2,131.6 L868,131.6 L868,139.1 L869.2,139.1 L869.2,131.6 L869.2,131.6 Z M869.2,116.7 L868,116.7 L868,124.2 L869.2,124.2 L869.2,116.7 L869.2,116.7 L869.2,116.7 Z M869.2,101.8 L868,101.8 L868,109.3 L869.2,109.3 L869.2,101.8 L869.2,101.8 Z M869.2,86.9 L868,86.9 L868,94.4 L869.2,94.4 L869.2,86.9 L869.2,86.9 Z M869.2,72 L868,72 L868,79.5 L869.2,79.5 L869.2,72 L869.2,72 Z M869.2,57.1 L868,57.1 L868,64.6 L869.2,64.6 L869.2,57.1 L869.2,57.1 Z M869.2,42.2 L868,42.2 L868,49.7 L869.2,49.7 L869.2,42.2 L869.2,42.2 Z M869.2,27.3 L868,27.3 L868,34.7 L869.2,34.7 L869.2,27.3 L869.2,27.3 L869.2,27.3 Z M869.2,12.4 L868,12.4 L868,19.8 L869.2,19.8 L869.2,12.4 L869.2,12.4 Z M869.2,0 L861.8,0 L861.8,1.2 L868,1.2 L868,4.9 L869.2,4.9 L869.2,0 L869.2,0 L869.2,0 Z" id="Shape" fill="#1557FF"></path>
                <path d="M62.3,62.1 L62.3,434.5 L807.1,434.5 L807.1,62.1 L62.3,62.1 Z M745,372.4 L124.3,372.4 L124.3,124.1 L745,124.1 L745,372.4 L745,372.4 Z" id="Shape" fill="#66C4FF"></path>
                <path d="M668.1,186.2 L660.6,186.2 L660.6,187.4 L668.1,187.4 L668.1,186.2 L668.1,186.2 Z M653.2,186.2 L645.7,186.2 L645.7,187.4 L653.2,187.4 L653.2,186.2 L653.2,186.2 Z M638.3,186.2 L630.8,186.2 L630.8,187.4 L638.3,187.4 L638.3,186.2 L638.3,186.2 L638.3,186.2 Z M623.4,186.2 L615.9,186.2 L615.9,187.4 L623.4,187.4 L623.4,186.2 L623.4,186.2 Z M608.5,186.2 L601,186.2 L601,187.4 L608.5,187.4 L608.5,186.2 L608.5,186.2 Z M593.6,186.2 L586.1,186.2 L586.1,187.4 L593.6,187.4 L593.6,186.2 L593.6,186.2 Z M578.7,186.2 L571.2,186.2 L571.2,187.4 L578.7,187.4 L578.7,186.2 L578.7,186.2 Z M563.8,186.2 L556.3,186.2 L556.3,187.4 L563.8,187.4 L563.8,186.2 L563.8,186.2 L563.8,186.2 Z M548.9,186.2 L541.4,186.2 L541.4,187.4 L548.9,187.4 L548.9,186.2 L548.9,186.2 Z M534,186.2 L526.5,186.2 L526.5,187.4 L534,187.4 L534,186.2 L534,186.2 Z M519.1,186.2 L511.6,186.2 L511.6,187.4 L519.1,187.4 L519.1,186.2 L519.1,186.2 Z M504.2,186.2 L496.7,186.2 L496.7,187.4 L504.2,187.4 L504.2,186.2 L504.2,186.2 Z M489.3,186.2 L481.8,186.2 L481.8,187.4 L489.3,187.4 L489.3,186.2 L489.3,186.2 L489.3,186.2 Z M474.4,186.2 L466.9,186.2 L466.9,187.4 L474.4,187.4 L474.4,186.2 L474.4,186.2 Z M459.5,186.2 L452,186.2 L452,187.4 L459.5,187.4 L459.5,186.2 L459.5,186.2 Z M444.6,186.2 L437.1,186.2 L437.1,187.4 L444.6,187.4 L444.6,186.2 L444.6,186.2 Z M429.7,186.2 L422.3,186.2 L422.3,187.4 L429.8,187.4 L429.7,186.2 L429.7,186.2 L429.7,186.2 Z M414.8,186.2 L407.3,186.2 L407.3,187.4 L414.8,187.4 L414.8,186.2 L414.8,186.2 Z M399.9,186.2 L392.4,186.2 L392.4,187.4 L399.9,187.4 L399.9,186.2 L399.9,186.2 Z M385,186.2 L377.5,186.2 L377.5,187.4 L385,187.4 L385,186.2 L385,186.2 Z M370.1,186.2 L362.6,186.2 L362.6,187.4 L370.1,187.4 L370.1,186.2 L370.1,186.2 Z M355.2,186.2 L347.7,186.2 L347.7,187.4 L355.2,187.4 L355.2,186.2 L355.2,186.2 Z M340.3,186.2 L332.8,186.2 L332.8,187.4 L340.3,187.4 L340.3,186.2 L340.3,186.2 L340.3,186.2 Z M325.4,186.2 L317.9,186.2 L317.9,187.4 L325.4,187.4 L325.4,186.2 L325.4,186.2 Z M310.5,186.2 L303,186.2 L303,187.4 L310.5,187.4 L310.5,186.2 L310.5,186.2 Z M295.6,186.2 L288.1,186.2 L288.1,187.4 L295.6,187.4 L295.6,186.2 L295.6,186.2 Z M280.7,186.2 L273.3,186.2 L273.3,187.4 L280.8,187.4 L280.7,186.2 L280.7,186.2 L280.7,186.2 Z M265.8,186.2 L258.4,186.2 L258.4,187.4 L265.9,187.4 L265.8,186.2 L265.8,186.2 L265.8,186.2 Z M250.9,186.2 L243.5,186.2 L243.5,187.4 L251,187.4 L250.9,186.2 L250.9,186.2 L250.9,186.2 Z M236,186.2 L228.5,186.2 L228.5,187.4 L236,187.4 L236,186.2 L236,186.2 Z M221.1,186.2 L213.6,186.2 L213.6,187.4 L221.1,187.4 L221.1,186.2 L221.1,186.2 Z M206.2,186.2 L198.7,186.2 L198.7,187.4 L206.3,187.4 L206.3,186.2 L206.3,186.2 L206.2,186.2 Z M191.3,186.2 L186.3,186.2 L186.3,187.4 L186.3,187.4 L186.3,188.7 L187.5,188.7 L187.5,187.5 L191.2,187.5 L191.3,186.2 L191.3,186.2 L191.3,186.2 Z M187.5,196.1 L186.4,196.1 L186.4,203.6 L187.6,203.6 L187.6,196.1 L187.6,196.1 L187.5,196.1 Z M187.5,211 L186.4,211 L186.4,218.5 L187.6,218.5 L187.6,211 L187.6,211 L187.5,211 Z M187.5,225.9 L186.4,225.9 L186.4,233.4 L187.6,233.4 L187.6,225.9 L187.6,225.9 L187.5,225.9 Z M187.5,240.8 L186.4,240.8 L186.4,248.3 L187.6,248.3 L187.6,240.8 L187.6,240.8 L187.5,240.8 Z M187.5,255.7 L186.4,255.7 L186.4,263.2 L187.6,263.2 L187.6,255.7 L187.6,255.7 L187.5,255.7 Z M187.5,270.6 L186.4,270.6 L186.4,278.1 L187.6,278.1 L187.6,270.6 L187.6,270.6 L187.5,270.6 Z M187.5,285.5 L186.4,285.5 L186.4,293 L187.6,293 L187.6,285.5 L187.6,285.5 L187.5,285.5 Z M187.5,300.4 L186.4,300.4 L186.4,307.9 L187.6,307.9 L187.6,300.4 L187.6,300.4 L187.5,300.4 Z M198.7,309.1 L191.3,309.1 L191.3,310.3 L198.8,310.3 L198.8,309.1 L198.7,309.1 Z M213.6,309.1 L206.3,309.1 L206.3,310.3 L213.8,310.3 L213.8,309.1 L213.8,309.1 L213.6,309.1 Z M228.5,309.1 L221,309.1 L221,310.3 L228.5,310.3 L228.5,309.1 L228.5,309.1 Z M243.4,309.1 L235.9,309.1 L235.9,310.3 L243.4,310.3 L243.4,309.1 L243.4,309.1 Z M258.3,309.1 L250.8,309.1 L250.8,310.3 L258.3,310.3 L258.3,309.1 L258.3,309.1 Z M273.2,309.1 L265.7,309.1 L265.7,310.3 L273.2,310.3 L273.2,309.1 L273.2,309.1 L273.2,309.1 Z M288.1,309.1 L280.6,309.1 L280.6,310.3 L288.1,310.3 L288.1,309.1 L288.1,309.1 Z M303,309.1 L295.5,309.1 L295.5,310.3 L303,310.3 L303,309.1 L303,309.1 Z M317.9,309.1 L310.4,309.1 L310.4,310.3 L317.9,310.3 L317.9,309.1 L317.9,309.1 Z M332.8,309.1 L325.3,309.1 L325.3,310.3 L332.8,310.3 L332.8,309.1 L332.8,309.1 Z M347.7,309.1 L340.3,309.1 L340.3,310.3 L347.8,310.3 L347.7,309.1 L347.7,309.1 L347.7,309.1 Z M362.6,309.1 L355.1,309.1 L355.1,310.3 L362.6,310.3 L362.6,309.1 L362.6,309.1 Z M377.5,309.1 L370,309.1 L370,310.3 L377.5,310.3 L377.5,309.1 L377.5,309.1 Z M392.4,309.1 L384.9,309.1 L384.9,310.3 L392.4,310.3 L392.4,309.1 L392.4,309.1 Z M407.3,309.1 L399.8,309.1 L399.8,310.3 L407.3,310.3 L407.3,309.1 L407.3,309.1 Z M422.2,309.1 L414.7,309.1 L414.7,310.3 L422.2,310.3 L422.2,309.1 L422.2,309.1 L422.2,309.1 Z M437.1,309.1 L429.6,309.1 L429.6,310.3 L437.1,310.3 L437.1,309.1 L437.1,309.1 Z M452,309.1 L444.5,309.1 L444.5,310.3 L452,310.3 L452,309.1 L452,309.1 Z M466.9,309.1 L459.4,309.1 L459.4,310.3 L466.9,310.3 L466.9,309.1 L466.9,309.1 Z M481.8,309.1 L474.4,309.1 L474.4,310.3 L481.9,310.3 L481.8,309.1 L481.8,309.1 L481.8,309.1 Z M496.7,309.1 L489.3,309.1 L489.3,310.3 L496.8,310.3 L496.7,309.1 L496.7,309.1 L496.7,309.1 Z M511.6,309.1 L504.2,309.1 L504.2,310.3 L511.7,310.3 L511.6,309.1 L511.6,309.1 L511.6,309.1 Z M526.5,309.1 L519,309.1 L519,310.3 L526.5,310.3 L526.5,309.1 L526.5,309.1 Z M541.4,309.1 L533.9,309.1 L533.9,310.3 L541.4,310.3 L541.4,309.1 L541.4,309.1 Z M556.3,309.1 L548.8,309.1 L548.8,310.3 L556.2,310.3 L556.3,309.1 L556.3,309.1 L556.3,309.1 Z M571.2,309.1 L563.7,309.1 L563.7,310.3 L571.2,310.3 L571.2,309.1 L571.2,309.1 Z M586.1,309.1 L578.6,309.1 L578.6,310.3 L586.1,310.3 L586.1,309.1 L586.1,309.1 Z M601,309.1 L593.5,309.1 L593.5,310.3 L601,310.3 L601,309.1 L601,309.1 Z M615.9,309.1 L608.4,309.1 L608.4,310.3 L615.9,310.3 L615.9,309.1 L615.9,309.1 Z M630.8,309.1 L623.3,309.1 L623.3,310.3 L630.8,310.3 L630.8,309.1 L630.8,309.1 Z M645.7,309.1 L638.3,309.1 L638.3,310.3 L645.8,310.3 L645.7,309.1 L645.7,309.1 L645.7,309.1 Z M660.6,309.1 L653.1,309.1 L653.1,310.3 L660.6,310.3 L660.6,309.1 L660.6,309.1 Z M675.5,309.1 L668,309.1 L668,310.3 L675.5,310.3 L675.5,309.1 L675.5,309.1 Z M683,302.9 L681.8,302.9 L681.8,310.4 L683,310.4 L683,302.9 L683,302.9 Z M683,288 L681.8,288 L681.8,295.4 L683,295.4 L683,288 L683,288 L683,288 Z M683,273.1 L681.8,273.1 L681.8,280.6 L683,280.6 L683,273.1 L683,273.1 Z M683,258.2 L681.8,258.2 L681.8,265.7 L683,265.7 L683,258.2 L683,258.2 Z M683,243.3 L681.8,243.3 L681.8,250.7 L683,250.7 L683,243.3 L683,243.3 L683,243.3 Z M683,228.4 L681.8,228.4 L681.8,235.9 L683,235.9 L683,228.4 L683,228.4 Z M683,213.5 L681.8,213.5 L681.8,221 L683,221 L683,213.5 L683,213.5 Z M683,198.6 L681.8,198.6 L681.8,206.1 L683,206.1 L683,198.6 L683,198.6 Z M683,186.2 L675.5,186.2 L675.5,187.4 L681.7,187.4 L681.7,191.1 L682.9,191.1 L682.9,186.2 L683,186.2 L683,186.2 Z" id="Shape" fill="#1557FF"></path>
            </g>
            <path d="M533.5,365.3 C532.2,365.3 530.9,365 529.8,364.3 C528.8,363.6 528,362.7 527.5,361.6 C527,360.4 526.7,359.2 526.7,357.9 C526.7,356.9 526.8,355.9 527.2,354.9 C527.5,354 527.9,353.2 528.5,352.4 C529.1,351.7 529.8,351.1 530.7,350.7 C531.6,350.3 532.6,350.1 533.6,350.1 C534.3,350.1 535,350.2 535.7,350.4 C536.3,350.5 536.8,350.8 537.2,351.1 L536.7,352.3 C535.7,351.8 534.6,351.5 533.5,351.5 C532.1,351.4 530.7,352.1 529.9,353.2 C529,354.5 528.5,356.1 528.6,357.8 C528.5,359.4 529,360.9 529.9,362.2 C530.8,363.3 532.1,363.9 533.5,363.9 C534.7,363.9 535.9,363.6 536.9,363.1 L537.1,364.3 C536.6,364.6 536.1,364.9 535.5,365 C534.8,365.2 534.1,365.3 533.5,365.3 Z" id="Path" fill="#10162F"></path>
            <path d="M546.1,365.3 C544.9,365.3 543.6,365 542.6,364.3 C541.6,363.6 540.8,362.7 540.3,361.6 C539.8,360.4 539.5,359.1 539.5,357.7 C539.5,356.7 539.6,355.7 540,354.7 C540.3,353.8 540.7,353 541.3,352.3 C541.9,351.6 542.6,351.1 543.4,350.7 C544.3,350.3 545.2,350.1 546.2,350.1 C548.7,350 551,351.5 552,353.8 C552.5,355 552.8,356.3 552.8,357.7 C552.8,359 552.6,360.4 552,361.6 C551.5,362.7 550.7,363.6 549.7,364.3 C548.6,365 547.4,365.3 546.1,365.3 Z M546.2,364 C547.2,364 548.1,363.7 548.9,363.1 C549.6,362.5 550.2,361.8 550.5,360.9 C550.9,359.9 551,358.8 551,357.7 C551.1,356.1 550.6,354.5 549.8,353.2 C549,352 547.6,351.4 546.1,351.5 C545.1,351.5 544.2,351.8 543.4,352.4 C542.6,353 542.1,353.8 541.7,354.6 C541.3,355.6 541.2,356.7 541.2,357.8 C541.1,359.4 541.6,361 542.5,362.3 C543.4,363.4 544.8,364.1 546.2,364 Z" id="Shape" fill="#10162F"></path>
            <path d="M556.1,365 L556.1,350.4 L557.5,350.4 L557.7,352.6 C558.2,351.8 559,351.2 559.8,350.7 C560.7,350.3 561.7,350 562.7,350 C564.1,349.9 565.4,350.4 566.4,351.4 C567.3,352.7 567.7,354.3 567.6,355.8 L567.6,364.9 L565.9,364.9 L565.9,355.2 C565.9,354.2 565.7,353.2 565.1,352.4 C564.4,351.8 563.5,351.5 562.6,351.5 C561.4,351.4 560.3,351.8 559.4,352.5 C558.6,353.1 558,354 557.8,355 C557.8,355.4 557.8,355.9 557.8,356.3 L557.8,364.9 L556.1,364.9 L556.1,365 Z" id="Path" fill="#10162F"></path>
            <path d="M575.5,365.3 C574.5,365.4 573.6,365.1 572.8,364.5 C572.2,363.7 571.9,362.8 572,361.8 L572,351.6 L569.9,351.6 L570,350.6 L572,350.4 L572.4,347 L573.6,346.9 L573.6,350.3 L577.9,350.3 L577.9,351.5 L573.6,351.5 L573.6,361.3 C573.5,362 573.7,362.8 574.1,363.4 C574.6,363.8 575.2,364 575.9,363.9 C576.6,363.9 577.3,363.8 577.9,363.6 L578,364.9 C577.2,365.1 576.4,365.2 575.5,365.3 Z" id="Path" fill="#10162F"></path>
            <path d="M586.4,365.3 C584.6,365.4 582.8,364.7 581.6,363.3 C580.3,361.8 579.7,359.8 579.8,357.8 C579.7,355.8 580.3,353.9 581.5,352.3 C582.6,350.9 584.2,350.1 586,350.1 C587.6,350 589.1,350.7 590.1,351.9 C591.2,353.3 591.8,355.1 591.7,356.8 C591.7,356.9 591.7,357 591.7,357.3 C591.7,357.6 591.7,357.7 591.7,357.8 L581.5,357.8 C581.4,359.4 581.9,361 582.9,362.3 C583.7,363.4 585.1,364 586.4,363.9 C587.2,363.9 588.1,363.8 588.9,363.6 C589.7,363.4 590.4,363 591.1,362.6 L591.4,363.8 C589.8,364.9 588.1,365.3 586.4,365.3 Z M581.6,356.5 L589.9,356.5 C590,355.2 589.6,353.8 588.9,352.8 C588.2,351.9 587.1,351.5 586,351.5 C584.8,351.5 583.7,352 583,352.9 C582.1,353.9 581.7,355.2 581.6,356.5 L581.6,356.5 Z" id="Shape" fill="#10162F"></path>
            <path d="M595,365 L595,350.4 L596.4,350.4 L596.6,352.6 C597.1,351.8 597.9,351.2 598.7,350.7 C599.6,350.3 600.6,350 601.6,350 C603,349.9 604.3,350.4 605.3,351.4 C606.2,352.7 606.6,354.3 606.5,355.8 L606.5,364.9 L604.8,364.9 L604.8,355.2 C604.8,354.2 604.6,353.2 604,352.4 C603.3,351.8 602.4,351.5 601.5,351.5 C600.3,351.4 599.2,351.8 598.3,352.5 C597.5,353.1 596.9,354.1 596.7,355.1 C596.7,355.5 596.7,356 596.7,356.4 L596.7,365 L595,365 L595,365 Z" id="Path" fill="#10162F"></path>
            <path d="M614.5,365.3 C613.5,365.4 612.6,365.1 611.8,364.5 C611.2,363.7 610.9,362.8 611,361.8 L611,351.6 L608.9,351.6 L609,350.6 L611,350.4 L611.4,347 L612.6,346.9 L612.6,350.3 L616.8,350.3 L616.8,351.5 L612.5,351.5 L612.5,361.3 C612.4,362 612.6,362.8 613,363.4 C613.5,363.8 614.1,364 614.8,363.9 C615.5,363.9 616.2,363.8 616.8,363.6 L616.9,364.9 C616.1,365.1 615.3,365.2 614.5,365.3 Z" id="Path" fill="#10162F"></path>
            <path d="M522.8,273.4 C521.9,273.4 521.1,273.2 520.3,272.8 C519.6,272.4 519,271.8 518.6,271.1 L518.6,278.7 L516.2,279 L516.2,258.5 L518.6,258.5 L518.6,260.5 C519,259.8 519.6,259.2 520.3,258.7 C521,258.2 521.9,258 522.7,258 C524.9,257.9 526.9,259 527.8,261 C528.5,262.4 528.8,263.9 528.8,265.5 C528.8,268.3 528.1,270.4 526.8,271.9 C525.8,273 524.3,273.6 522.8,273.4 Z M518.6,265.7 C518.6,269.6 520,271.6 522.7,271.6 C525.2,271.6 526.4,269.6 526.4,265.7 C526.4,263.5 526.1,262 525.4,261.2 C524.7,260.4 523.7,259.9 522.7,259.9 C520.4,259.9 519.1,261.2 518.7,263.9 C518.6,264.5 518.6,265.1 518.6,265.7 L518.6,265.7 Z" id="Shape" fill="#10162F"></path>
            <path d="M541.8,263 C541.8,260.9 540.9,259.9 539.1,259.9 C538.2,259.9 537.2,260 536.3,260.2 C535.6,260.3 534.9,260.5 534.2,260.8 L533.6,259 C535.3,258.4 537,258.1 538.8,258.1 C540.2,258 541.6,258.4 542.7,259.2 C543.7,260 544.3,261.3 544.2,262.6 L544.2,273.1 L542.2,273.1 L541.9,271.4 C541.3,272 540.5,272.5 539.7,272.9 C538.9,273.3 538,273.5 537.1,273.5 C536,273.5 534.9,273.1 534,272.4 C533.1,271.6 532.7,270.4 532.8,269.3 C532.7,268.1 533.3,266.9 534.4,266.3 C535.1,265.9 535.9,265.6 536.7,265.4 C537.5,265.2 538.6,265.1 539.9,264.9 L541.9,264.7 L541.8,263 L541.8,263 Z M541.8,269.8 L541.8,266.1 L539.8,266.4 C538.8,266.5 537.9,266.7 536.9,267 C535.9,267.3 535.1,268.2 535.1,269.3 C535.1,269.9 535.3,270.6 535.7,271.1 C536.2,271.6 536.8,271.8 537.5,271.7 C539.1,271.7 540.7,271 541.8,269.8 L541.8,269.8 Z" id="Shape" fill="#10162F"></path>
            <path d="M558.5,260.5 L558.5,252.5 L560.9,252.2 L560.9,273.1 L558.5,273.1 L558.5,270.8 C557.7,272.4 556.1,273.4 554.3,273.4 C552.5,273.5 550.8,272.7 549.8,271.2 C548.8,269.5 548.3,267.6 548.4,265.6 C548.4,262.9 549.1,260.9 550.4,259.5 C551.4,258.5 552.8,257.9 554.3,258 C555.2,258 556.2,258.2 557,258.7 C557.7,259.1 558.2,259.8 558.5,260.5 Z M558.5,265.7 C558.5,263.4 558.2,261.9 557.5,261.1 C556.8,260.3 555.7,259.8 554.6,259.9 C553,259.8 551.6,260.9 551.3,262.5 C551,263.6 550.9,264.7 550.9,265.9 C550.9,269.7 552.2,271.6 554.7,271.6 C557.2,271.6 558.5,269.6 558.5,265.7 L558.5,265.7 Z" id="Shape" fill="#10162F"></path>
            <path d="M574.9,260.5 L574.9,252.5 L577.3,252.2 L577.3,273.1 L574.9,273.1 L574.9,270.8 C574.1,272.4 572.5,273.4 570.7,273.4 C568.9,273.5 567.2,272.7 566.2,271.2 C565.2,269.5 564.7,267.6 564.8,265.6 C564.6,263.4 565.4,261.2 566.8,259.5 C567.8,258.5 569.2,257.9 570.7,258 C571.6,258 572.6,258.2 573.4,258.7 C574.1,259.1 574.6,259.8 574.9,260.5 Z M574.9,265.7 C574.9,263.4 574.6,261.9 573.9,261.1 C573.2,260.3 572.1,259.8 571,259.9 C569.4,259.8 568,260.9 567.7,262.5 C567.4,263.6 567.3,264.7 567.3,265.9 C567.3,269.7 568.6,271.6 571.1,271.6 C573.6,271.6 574.9,269.6 574.9,265.7 L574.9,265.7 Z" id="Shape" fill="#10162F"></path>
            <path d="M583,260.3 L583,258.4 L589.6,258.4 L589.6,271.2 L593.8,271.2 L593.8,273.1 L582.6,273.1 L582.6,271.2 L587.2,271.2 L587.2,260.3 L583,260.3 L583,260.3 Z M586.8,254.6 L586.8,253.3 C586.8,252.9 587,252.6 587.3,252.4 C587.9,251.9 588.8,251.9 589.5,252.4 C589.8,252.6 590,252.9 590,253.3 L590,254.6 C590,255 589.8,255.3 589.5,255.5 C588.9,256 588,256 587.3,255.5 C587,255.3 586.8,255 586.8,254.6 L586.8,254.6 Z" id="Shape" fill="#10162F"></path>
            <path d="M605.5,258 C608.5,258 610,259.9 610,263.8 L610,273.1 L607.6,273.1 L607.6,264.1 C607.6,263.4 607.6,262.6 607.4,261.9 C607.3,261.5 607.2,261.1 606.9,260.8 C606.3,260.2 605.5,259.8 604.7,259.9 C603.7,259.9 602.8,260.2 602.1,260.8 C601.4,261.4 601,262.3 601,263.2 L601,273.1 L598.6,273.1 L598.6,258.4 L600.8,258.4 L600.9,260 C602,258.7 603.7,257.9 605.5,258 Z" id="Path" fill="#10162F"></path>
            <path d="M624.2,270.3 C623.9,271.1 623.3,271.8 622.6,272.3 C621.9,272.8 621,273.1 620,273.1 C618.3,273.2 616.6,272.4 615.6,271 C614.5,269.5 613.9,267.6 614,265.7 C614,262.9 614.7,260.9 616.1,259.5 C617.2,258.5 618.6,258 620.1,258.1 C621.8,258.1 623.3,259 624.1,260.5 L624.2,258.5 L626.8,258.5 C626.7,260.7 626.7,263.6 626.7,267.2 L626.7,271.1 C626.7,274.2 626,276.4 624.7,277.5 C623.4,278.4 621.9,279 620.2,279.1 C619,279.2 617.9,279.3 616.7,279.3 L616.5,277.4 C617.9,277.4 619.3,277.3 620.7,277 C621.3,276.9 622,276.6 622.5,276.2 C622.9,275.9 623.2,275.5 623.5,275.1 C624.1,273.9 624.3,272.6 624.3,271.2 L624.2,270.3 L624.2,270.3 Z M623.1,261.1 C622.8,260.7 622.4,260.4 622,260.3 C621.5,260.1 620.9,260 620.4,260 C619.9,260 619.3,260.1 618.8,260.3 C618,260.7 617.3,261.4 617,262.3 C616.7,263.2 616.5,264.2 616.5,265.2 C616.5,265.9 616.5,266.7 616.6,267.4 C616.7,268.4 617.1,269.3 617.7,270 C618.3,270.7 619.3,271.1 620.2,271 C621.7,271.1 623.2,270.2 623.7,268.7 C624,267.9 624.2,267 624.2,266.1 C624.2,265.4 624.2,264.7 624.1,264 C624,263.5 623.9,262.9 623.7,262.4 C623.6,261.8 623.4,261.4 623.1,261.1 L623.1,261.1 Z" id="Shape" fill="#10162F"></path>
            <path d="M531.2,136.2 C531.6,134.8 532.9,133.9 534.3,133.9 C536.2,133.9 537.2,135.2 537.5,137.9 C537.5,138.4 537.6,139 537.6,139.6 L537.6,149 L535.4,149 L535.4,139.9 C535.5,138.8 535.4,137.7 535.1,136.6 C535,136.3 534.8,136 534.5,135.9 C534.3,135.8 534.1,135.8 533.9,135.8 C533.1,135.8 532.4,136.3 532.2,137.1 C531.9,138 531.8,139 531.9,139.9 L531.9,149 L529.9,149 L529.9,140.1 C529.9,138.1 529.7,136.9 529.2,136.3 C529,136 528.6,135.8 528.2,135.9 C527.7,135.9 527.3,136.1 527,136.5 C526.4,137.4 526,138.4 526.1,139.5 L526.1,149.1 L523.9,149.1 L523.9,134.4 L525.8,134.4 L526,136.3 C526.2,135.7 526.6,135.1 527.1,134.6 C527.5,134.1 528.2,133.9 528.8,133.9 C529.4,133.9 530,134.1 530.5,134.5 C530.7,135 531,135.5 531.2,136.2 Z" id="Path" fill="#10162F"></path>
            <path d="M550,138.9 C550,136.8 549.1,135.8 547.3,135.8 C546.4,135.8 545.4,135.9 544.5,136.1 C543.8,136.2 543.1,136.4 542.4,136.7 L541.8,134.9 C543.5,134.3 545.2,134 547,134 C548.4,133.9 549.8,134.3 550.9,135.1 C551.9,135.9 552.5,137.2 552.4,138.5 L552.4,149 L550.4,149 L550.1,147.3 C549.5,147.9 548.7,148.4 547.9,148.8 C547.1,149.2 546.2,149.4 545.3,149.4 C544.2,149.4 543.1,149 542.2,148.3 C541.3,147.5 540.9,146.3 541,145.2 C540.9,144 541.5,142.8 542.6,142.2 C543.3,141.8 544.1,141.5 544.9,141.3 C545.7,141.1 546.8,141 548.1,140.8 L550.1,140.6 L550,138.9 L550,138.9 Z M550,145.7 L550,142 L548,142.3 C547,142.4 546.1,142.6 545.1,142.9 C544.1,143.2 543.3,144.1 543.3,145.2 C543.3,145.8 543.5,146.5 543.9,147 C544.4,147.5 545,147.7 545.7,147.6 C547.3,147.6 548.9,146.9 550,145.7 L550,145.7 Z" id="Shape" fill="#10162F"></path>
            <path d="M562.3,149 L559.8,149 L559.8,134.4 L561.8,134.4 L562,137.1 C562.5,136.1 563.4,135.3 564.3,134.7 C565.3,134.2 566.4,133.9 567.6,133.9 L568.8,133.9 L568.8,136.2 L567.3,136.2 C566,136.1 564.7,136.5 563.6,137.4 C562.6,138.3 562.1,139.6 562.2,140.9 L562.3,149 L562.3,149 Z" id="Path" fill="#10162F"></path>
            <path d="M583.3,146.2 C583,147 582.4,147.7 581.7,148.2 C581,148.7 580.1,149 579.1,149 C577.4,149.1 575.7,148.3 574.7,146.9 C573.6,145.4 573,143.5 573.1,141.6 C573.1,138.8 573.8,136.8 575.2,135.4 C576.3,134.4 577.7,133.9 579.2,134 C580.9,134 582.4,134.9 583.2,136.4 L583.3,134.4 L585.8,134.4 C585.7,136.6 585.7,139.5 585.7,143.1 L585.7,147 C585.7,150.1 585,152.3 583.7,153.4 C582.4,154.3 580.9,154.9 579.2,155 C578,155.1 576.9,155.2 575.7,155.2 L575.5,153.3 C576.9,153.3 578.3,153.2 579.7,152.9 C580.3,152.8 581,152.5 581.5,152.1 C581.9,151.8 582.2,151.4 582.5,151 C583.1,149.8 583.3,148.5 583.3,147.1 L583.3,146.2 L583.3,146.2 Z M582.1,137 C581.8,136.6 581.4,136.3 581,136.2 C580.5,136 579.9,135.9 579.4,135.9 C578.8,135.9 578.3,136 577.8,136.2 C577,136.6 576.3,137.3 576,138.2 C575.7,139.1 575.5,140.1 575.5,141.1 C575.5,141.8 575.5,142.6 575.6,143.3 C575.7,144.3 576.1,145.2 576.7,145.9 C577.3,146.6 578.3,147 579.2,146.9 C580.7,147 582.2,146.1 582.7,144.6 C583,143.8 583.2,142.9 583.2,142 C583.2,141.3 583.2,140.6 583.1,139.9 C583,139.4 582.9,138.8 582.7,138.3 C582.6,137.7 582.4,137.3 582.1,137 L582.1,137 Z" id="Shape" fill="#10162F"></path>
            <path d="M591.2,136.2 L591.2,134.3 L597.8,134.3 L597.8,147.1 L602,147.1 L602,149 L590.8,149 L590.8,147.1 L595.4,147.1 L595.4,136.2 L591.2,136.2 L591.2,136.2 Z M595,130.5 L595,129.2 C595,128.8 595.2,128.5 595.5,128.3 C596.1,127.8 597,127.8 597.7,128.3 C598,128.5 598.2,128.8 598.2,129.2 L598.2,130.5 C598.2,130.9 598,131.2 597.7,131.4 C597.1,131.9 596.2,131.9 595.5,131.4 C595.2,131.2 595,130.9 595,130.5 L595,130.5 Z" id="Shape" fill="#10162F"></path>
            <path d="M613.7,133.9 C616.7,133.9 618.2,135.8 618.2,139.7 L618.2,149 L615.8,149 L615.8,140 C615.8,139.3 615.8,138.5 615.6,137.8 C615.5,137.4 615.4,137 615.1,136.7 C614.5,136.1 613.7,135.7 612.9,135.8 C611.9,135.8 611,136.1 610.3,136.7 C609.6,137.3 609.2,138.2 609.2,139.1 L609.2,149 L606.8,149 L606.8,134.4 L609,134.4 L609.1,136 C610.2,134.5 611.9,133.8 613.7,133.9 Z" id="Path" fill="#10162F"></path>
            <polygon id="Path" fill="#FFFFFF" points="479.8 22.3 479.8 2.3 473 2.3 473 0.7 488.5 0.7 488.5 2.3 481.7 2.3 481.7 22.3"></polygon>
            <path d="M490.8,22.3 L490.8,0.2 L492.6,0 L492.6,8 C492.6,8 492.6,8.1 492.6,8.1 C492.6,8.2 492.6,8.2 492.6,8.3 L492.6,8.7 C493.9,6.9 496,5.9 498.2,6 C501.7,6 503.4,8.1 503.4,12.3 L503.4,22.3 L501.6,22.3 L501.6,12.7 C501.7,11.4 501.4,10 500.8,8.8 C500.1,7.9 499,7.5 497.9,7.6 C496.7,7.6 495.4,7.9 494.4,8.7 C493.5,9.4 492.9,10.4 492.7,11.5 C492.7,11.9 492.7,12.5 492.7,13.2 L492.7,22.2 L490.8,22.3 L490.8,22.3 Z" id="Path" fill="#FFFFFF"></path>
            <path d="M514,22.7 C512,22.8 510.1,22 508.8,20.5 C507.4,18.8 506.7,16.7 506.9,14.5 C506.8,12.3 507.5,10.2 508.8,8.5 C510,7 511.8,6.1 513.7,6.1 C515.4,6 517.1,6.8 518.2,8.1 C519.4,9.6 520,11.5 519.9,13.5 C519.9,13.6 519.9,13.8 519.9,14 C519.9,14.2 519.9,14.5 519.9,14.6 L508.8,14.6 C508.7,16.3 509.2,18.1 510.3,19.5 C511.2,20.7 512.6,21.3 514.1,21.3 C515,21.3 515.9,21.2 516.8,20.9 C517.6,20.6 518.4,20.3 519.2,19.9 L519.5,21.3 C517.8,22.2 515.9,22.7 514,22.7 Z M508.8,13.1 L517.8,13.1 C517.9,11.6 517.5,10.2 516.6,9 C515.8,8.1 514.7,7.5 513.4,7.6 C512.1,7.6 510.9,8.1 510.1,9.1 C509.3,10.3 508.9,11.7 508.8,13.1 Z" id="Shape" fill="#FFFFFF"></path>
            <path d="M530.7,22.3 L530.7,0.7 L536.6,0.7 C539.3,0.7 541.2,1.1 542.5,2 C543.8,3 544.5,4.5 544.3,6.1 C544.3,6.3 544.3,6.5 544.3,6.6 C544.3,6.7 544.3,6.9 544.2,7.2 C544.2,7.5 544.1,7.7 544,8 C543.9,8.3 543.8,8.5 543.6,8.8 C543.4,9.1 543.2,9.4 543,9.6 C542.7,9.9 542.4,10.1 542,10.3 C541.6,10.5 541.1,10.7 540.7,10.9 C542.1,11 543.3,11.7 544.2,12.7 C545,13.7 545.4,14.9 545.4,16.2 C545.5,17.9 544.8,19.5 543.6,20.7 C542.4,21.8 540.5,22.3 538,22.3 L530.7,22.3 L530.7,22.3 Z M532.5,10.3 L537.5,10.3 C538.2,10.3 538.8,10.3 539.5,10.1 C540,10 540.6,9.8 541,9.5 C541.5,9.2 541.8,8.7 542,8.2 C542.2,7.6 542.4,6.9 542.3,6.2 C542.4,5 541.9,3.8 540.9,3 C539.5,2.3 538,2 536.5,2.1 L532.5,2.1 L532.5,10.3 L532.5,10.3 Z M532.5,20.9 L537.5,20.9 C541.4,20.9 543.4,19.4 543.4,16.3 C543.5,14.9 542.9,13.6 541.8,12.8 C540.2,12 538.5,11.7 536.7,11.8 L532.5,11.8 L532.5,20.9 L532.5,20.9 Z" id="Shape" fill="#FFFFFF"></path>
            <path d="M555,22.7 C553.6,22.7 552.3,22.3 551.2,21.6 C550.1,20.9 549.2,19.8 548.7,18.6 C548.1,17.3 547.8,15.8 547.8,14.4 C547.8,13.3 548,12.2 548.3,11.1 C548.6,10.1 549.1,9.2 549.7,8.5 C550.3,7.8 551.1,7.2 552,6.7 C553,6.3 554,6.1 555.1,6.1 C557.9,6 560.4,7.7 561.5,10.2 C562.1,11.5 562.3,13 562.3,14.4 C562.3,15.9 562,17.3 561.5,18.7 C561,19.9 560.1,21 559,21.7 C557.8,22.4 556.4,22.8 555,22.7 Z M555.2,21.3 C556.3,21.3 557.3,21 558.2,20.4 C559,19.8 559.6,18.9 560,18 C560.4,16.9 560.6,15.7 560.5,14.5 C560.6,12.7 560.1,11 559.2,9.5 C558.3,8.2 556.8,7.5 555.2,7.6 C554.1,7.6 553.1,7.9 552.2,8.5 C551.4,9.1 550.8,10 550.4,11 C550,12.1 549.8,13.3 549.8,14.5 C549.7,16.2 550.2,18 551.2,19.4 C552,20.6 553.6,21.3 555.2,21.3 Z" id="Shape" fill="#FFFFFF"></path>
            <polygon id="Path" fill="#FFFFFF" points="563.9 22.3 569.9 14.2 564.1 6.3 566.1 6.3 570.8 12.9 575.4 6.3 577.4 6.3 571.6 14.2 577.5 22.2 575.6 22.2 570.8 15.4 566 22.2"></polygon>
            <polygon id="Path" fill="#FFFFFF" points="587.4 22.3 587.4 0.7 590 0.7 598 19 605.8 0.7 608.3 0.7 608.3 22.4 606.5 22.4 606.5 7.8 606.6 2.9 606.1 4.7 599 21.2 597 21.2 589.8 4.7 589.2 2.9 589.3 7.9 589.3 22.4"></polygon>
            <path d="M619.6,22.7 C618.2,22.7 616.9,22.3 615.8,21.6 C614.7,20.9 613.8,19.8 613.3,18.6 C612.7,17.3 612.4,15.8 612.4,14.4 C612.4,13.3 612.6,12.2 612.9,11.1 C613.2,10.1 613.7,9.2 614.3,8.5 C614.9,7.8 615.7,7.2 616.6,6.7 C617.6,6.3 618.6,6.1 619.7,6.1 C622.4,6 625,7.6 626,10.2 C626.6,11.5 626.8,13 626.8,14.4 C626.8,15.9 626.5,17.3 626,18.6 C625.5,19.8 624.6,20.9 623.5,21.6 C622.4,22.3 621,22.7 619.6,22.7 Z M619.8,21.3 C620.9,21.3 621.9,21 622.8,20.4 C623.6,19.8 624.2,18.9 624.6,18 C625,16.9 625.2,15.7 625.1,14.5 C625.2,12.7 624.7,11 623.8,9.5 C622.9,8.2 621.4,7.5 619.8,7.6 C618.7,7.6 617.7,7.9 616.8,8.5 C616,9.1 615.4,10 615,11 C614.6,12.1 614.4,13.3 614.4,14.5 C614.3,16.2 614.8,18 615.8,19.4 C616.7,20.6 618.2,21.4 619.8,21.3 L619.8,21.3 Z" id="Shape" fill="#FFFFFF"></path>
            <path d="M636.5,22.7 C634.6,22.8 632.7,22 631.5,20.5 C630.2,18.7 629.6,16.6 629.7,14.4 C629.6,12.2 630.2,10.1 631.5,8.4 C632.7,6.9 634.5,6.1 636.3,6.1 C637.3,6.1 638.4,6.3 639.3,6.7 C640.3,7.1 641,7.8 641.5,8.7 L641.5,0.2 L643.3,0 L643.3,22.3 L641.8,22.3 L641.5,19.9 C641,20.8 640.2,21.5 639.3,21.9 C638.5,22.4 637.5,22.7 636.5,22.7 Z M636.5,21.3 C637.3,21.3 638.1,21.2 638.9,20.8 C639.6,20.5 640.1,20 640.5,19.4 C640.9,18.8 641.2,18.1 641.4,17.3 C641.6,16.4 641.7,15.6 641.7,14.7 C641.7,10 640,7.6 636.5,7.6 C635.7,7.6 635,7.8 634.3,8.2 C633.7,8.6 633.2,9.1 632.8,9.8 C632.4,10.5 632.2,11.2 632,12 C631.8,12.8 631.7,13.6 631.7,14.5 C631.7,15.2 631.8,15.9 631.9,16.6 C632,17.2 632.2,17.9 632.4,18.5 C632.6,19.1 632.9,19.6 633.3,20 C633.7,20.4 634.1,20.8 634.6,21 C635.2,21.1 635.9,21.3 636.5,21.3 L636.5,21.3 Z" id="Shape" fill="#FFFFFF"></path>
            <path d="M654.2,22.7 C652.2,22.8 650.3,22 649,20.5 C647.6,18.8 646.9,16.7 647.1,14.5 C647,12.3 647.7,10.2 649,8.5 C650.2,7 652,6.1 653.9,6.1 C655.6,6 657.3,6.8 658.4,8.1 C659.6,9.6 660.2,11.5 660.1,13.5 C660.1,13.6 660.1,13.8 660.1,14 C660.1,14.2 660.1,14.5 660.1,14.6 L649,14.6 C648.9,16.3 649.4,18.1 650.5,19.5 C651.4,20.7 652.8,21.3 654.3,21.3 C655.2,21.3 656.1,21.2 657,20.9 C657.8,20.6 658.6,20.3 659.4,19.9 L659.7,21.3 C658,22.2 656.1,22.7 654.2,22.7 Z M648.9,13.1 L658,13.1 C658.1,11.6 657.7,10.2 656.8,9 C656,8.1 654.9,7.5 653.6,7.6 C652.3,7.6 651.1,8.1 650.3,9.1 C649.5,10.3 649,11.7 648.9,13.1 L648.9,13.1 Z" id="Shape" fill="#FFFFFF"></path>
            <path d="M667.6,22.7 C666.5,22.8 665.5,22.5 664.7,21.8 C664,21 663.7,19.9 663.8,18.8 L663.8,0.2 L665.6,0 L665.6,18.7 C665.5,19.4 665.7,20.1 666.1,20.7 C666.5,21.1 667.1,21.3 667.7,21.3 C668.4,21.3 669.2,21.2 669.9,21 L670,22.4 C669.2,22.5 668.4,22.7 667.6,22.7 Z" id="Path" fill="#FFFFFF"></path>
            <path d="M527,199.7 C527.9,198.1 529.6,197.2 531.4,197.2 C533.1,197.1 534.8,197.9 535.7,199.3 C536.7,200.9 537.2,202.8 537.1,204.7 C537.1,207.5 536.4,209.6 535.1,211.1 C534.1,212.2 532.6,212.7 531.2,212.6 C530.3,212.7 529.5,212.4 528.7,212 C528,211.5 527.5,210.9 527,210.3 L527,212.3 L524.6,212.3 L524.6,191.7 L527,191.4 L527,199.7 L527,199.7 Z M527,206.7 C527.1,207.8 527.5,208.8 528.1,209.7 C529.5,211.1 531.8,211.1 533.2,209.7 C533.6,209.3 533.9,208.8 534.1,208.2 C534.4,207.3 534.5,206.3 534.5,205.4 C534.5,204.6 534.5,203.9 534.4,203.2 C534.4,202.1 534,201.1 533.4,200.2 C532.7,199.4 531.8,199 530.8,199.1 C529,198.9 527.4,200.2 527.1,202 C526.9,202.8 526.8,203.7 526.8,204.6 C527,205.2 527,206 527,206.7 L527,206.7 Z" id="Shape" fill="#10162F"></path>
            <path d="M551.6,199.3 C552.7,200.9 553.3,202.9 553.2,204.9 C553.3,206.9 552.7,208.9 551.5,210.5 C550.4,211.9 548.6,212.7 546.8,212.6 C545.8,212.6 544.9,212.4 544,212 C543.2,211.6 542.5,211.1 542,210.4 C540.9,208.8 540.4,206.8 540.5,204.9 C540.4,202.9 541,201 542.2,199.4 C543.4,198 545.1,197.2 547,197.3 C548.7,197.1 550.5,197.9 551.6,199.3 Z M546.8,210.7 C548.4,210.8 549.8,209.7 550.3,208.2 C550.6,207.3 550.8,206.4 550.8,205.4 C550.8,204.7 550.8,203.9 550.7,203.2 C550.6,202.1 550.2,201.1 549.5,200.2 C548.8,199.4 547.8,199 546.8,199.1 C545.2,199.1 543.8,200.1 543.4,201.7 C543.1,202.6 542.9,203.6 542.9,204.6 C542.8,206.1 543.1,207.6 543.7,209 C544.3,210.1 545.5,210.9 546.8,210.7 Z" id="Shape" fill="#10162F"></path>
            <path d="M562.3,212.3 L559.8,212.3 L559.8,197.7 L561.8,197.7 L562,200.4 C562.5,199.4 563.4,198.6 564.3,198 C565.3,197.5 566.4,197.2 567.6,197.2 L568.8,197.2 L568.8,199.4 L567.3,199.4 C566,199.3 564.7,199.7 563.6,200.6 C562.6,201.5 562.1,202.8 562.2,204.1 L562.3,212.3 L562.3,212.3 Z" id="Path" fill="#10162F"></path>
            <path d="M583.1,199.7 L583.1,191.7 L585.5,191.4 L585.5,212.3 L583.1,212.3 L583.1,210 C582.3,211.6 580.7,212.6 578.9,212.6 C577.1,212.7 575.4,211.9 574.4,210.4 C573.4,208.7 572.9,206.8 573,204.8 C573,202.1 573.7,200.1 575,198.7 C576,197.7 577.4,197.1 578.9,197.2 C579.8,197.2 580.8,197.4 581.6,197.9 C582.3,198.3 582.8,198.9 583.1,199.7 Z M583.1,204.9 C583.1,202.6 582.8,201.1 582.1,200.3 C581.4,199.5 580.3,199 579.2,199.1 C577.6,199 576.2,200.1 575.9,201.7 C575.6,202.8 575.5,203.9 575.5,205.1 C575.5,208.9 576.8,210.8 579.3,210.8 C581.8,210.8 583.1,208.8 583.1,204.9 Z" id="Shape" fill="#10162F"></path>
            <path d="M593.3,211.6 C592.3,210.9 591.5,210 591,208.8 C590.5,207.6 590.2,206.2 590.3,204.9 C590.3,203.6 590.5,202.2 591,201 C591.4,199.9 592.1,198.9 593,198.2 C593.9,197.5 594.9,197.1 596,197.1 C597.8,197 599.5,197.8 600.5,199.2 C601.5,200.7 602,202.6 601.9,204.4 L601.9,205.2 L592.6,205.2 C592.6,206.6 593,207.9 593.7,209.1 C594.4,210.1 595.6,210.7 596.8,210.7 C598.2,210.4 599.5,209.9 600.7,209.2 L601.5,210.8 C600.2,212 598.5,212.6 596.8,212.5 C595.6,212.7 594.3,212.3 593.3,211.6 Z M599.7,203.6 C599.5,200.6 598.5,199.1 596.5,199.1 C594.3,199.1 593.1,200.6 592.8,203.6 L599.7,203.6 Z" id="Shape" fill="#10162F"></path>
            <path d="M611.4,212.3 L609,212.3 L609,197.7 L611,197.7 L611.2,200.4 C611.7,199.4 612.6,198.6 613.5,198 C614.5,197.5 615.6,197.2 616.7,197.2 L617.9,197.2 L617.9,199.4 L616.4,199.4 C615.1,199.3 613.8,199.7 612.7,200.6 C611.7,201.5 611.2,202.8 611.3,204.1 L611.4,212.3 L611.4,212.3 Z" id="Path" fill="#10162F"></path>
            <path d="M-4.26325641e-14,363.5 L-4.26325641e-14,346.9 L1.3,346.8 L1.3,352.8 C1.3,352.8 1.3,352.9 1.3,352.9 C1.3,352.9 1.3,353 1.3,353 L1.3,353.3 C2.3,352 3.8,351.2 5.5,351.3 C8.1,351.3 9.4,352.9 9.4,356 L9.4,363.5 L8,363.5 L8,356.3 C8.1,355.3 7.9,354.3 7.4,353.4 C6.9,352.7 6,352.4 5.2,352.5 C4.3,352.5 3.3,352.8 2.6,353.3 C1.9,353.8 1.5,354.6 1.3,355.4 C1.3,355.7 1.3,356.1 1.3,356.7 L1.3,363.5 L-4.26325641e-14,363.5 L-4.26325641e-14,363.5 Z" id="Path" fill="#10162F"></path>
            <path d="M17.4,363.8 C15.9,363.9 14.5,363.3 13.5,362.1 C12.5,360.8 12,359.2 12,357.6 C11.9,356 12.4,354.4 13.4,353.2 C14.3,352.1 15.6,351.4 17.1,351.4 C18.4,351.4 19.6,351.9 20.5,352.9 C21.4,354 21.8,355.5 21.8,356.9 C21.8,357 21.8,357.1 21.8,357.3 C21.8,357.5 21.8,357.6 21.8,357.7 L13.5,357.7 C13.4,359 13.8,360.3 14.6,361.3 C15.3,362.2 16.4,362.7 17.5,362.7 C18.2,362.7 18.9,362.6 19.5,362.4 C20.1,362.2 20.7,361.9 21.3,361.6 L21.5,362.6 C20.2,363.4 18.8,363.8 17.4,363.8 Z M13.5,356.6 L20.3,356.6 C20.4,355.5 20.1,354.4 19.4,353.5 C18.8,352.8 17.9,352.4 17,352.4 C16,352.4 15.1,352.8 14.5,353.5 C13.9,354.5 13.5,355.5 13.5,356.6 Z" id="Shape" fill="#10162F"></path>
            <path d="M24.6,349.1 L24.6,347.3 L25.9,347.3 L25.9,349.1 L24.6,349.1 Z M24.6,363.5 L24.6,351.5 L26,351.5 L26,363.5 L24.6,363.5 Z" id="Shape" fill="#10162F"></path>
            <path d="M31.2,369.1 L31,367.9 L33.5,367.9 C34,367.9 34.5,367.9 35,367.8 C35.4,367.7 35.7,367.6 36.1,367.4 C36.4,367.2 36.7,367 36.9,366.8 C37.1,366.5 37.3,366.3 37.4,366 C37.5,365.7 37.6,365.3 37.7,364.9 C37.8,364.5 37.8,364.1 37.8,363.7 C37.8,363.3 37.8,362.9 37.8,362.3 C37.8,362.4 37.8,362.4 37.8,362.3 L37.7,361.5 C37.3,362.1 36.7,362.7 36.1,363.1 C35.4,363.5 34.6,363.7 33.8,363.7 C33.1,363.7 32.5,363.6 31.9,363.3 C31.4,363.1 30.9,362.7 30.5,362.3 C30.1,361.9 29.8,361.4 29.6,360.9 C29.4,360.4 29.2,359.9 29,359.3 C28.9,358.8 28.8,358.3 28.8,357.8 C28.8,357.2 28.9,356.6 29,356 C29.1,355.4 29.3,354.8 29.6,354.3 C29.9,353.8 30.2,353.3 30.6,352.9 C31,352.5 31.5,352.1 32.1,351.9 C32.8,351.7 33.5,351.5 34.2,351.5 C34.9,351.5 35.6,351.6 36.2,352 C36.8,352.4 37.4,352.9 37.8,353.5 L37.9,351.8 L39.1,351.8 L39.1,362.9 C39.1,363.4 39.1,363.8 39.1,364.1 C39.1,364.5 39,364.9 39,365.3 C38.9,365.7 38.8,366.1 38.7,366.5 C38.5,366.9 38.3,367.2 38.1,367.6 C37.8,368 37.5,368.3 37.1,368.5 C36.6,368.8 36.1,369 35.6,369.1 C34.9,369.3 34.2,369.3 33.5,369.3 L31.2,369.1 L31.2,369.1 Z M33.9,362.4 C34.4,362.4 34.9,362.3 35.3,362.1 C35.7,361.9 36.1,361.7 36.4,361.4 C36.7,361.1 36.9,360.8 37.1,360.4 C37.3,360 37.4,359.6 37.5,359.2 C37.6,358.8 37.6,358.4 37.6,358 L37.6,356.8 C37.6,356.3 37.5,355.7 37.4,355.2 C37.3,354.7 37,354.2 36.8,353.8 C36.5,353.4 36.1,353 35.6,352.8 C35.1,352.5 34.5,352.4 33.8,352.4 C33.3,352.4 32.8,352.5 32.3,352.7 C31.9,352.9 31.5,353.2 31.2,353.5 C30.9,353.9 30.7,354.3 30.5,354.7 C30.3,355.1 30.2,355.6 30.1,356.1 C30,356.6 30,357.1 30,357.6 C30,358 30,358.5 30.1,358.9 C30.2,359.3 30.3,359.8 30.5,360.2 C30.7,360.6 30.9,361 31.2,361.3 C31.5,361.6 31.9,361.9 32.3,362.1 C32.9,362.3 33.4,362.4 33.9,362.4 Z" id="Shape" fill="#10162F"></path>
            <path d="M42.1,363.5 L42.1,346.9 L43.4,346.8 L43.4,352.8 C43.4,352.8 43.4,352.9 43.4,352.9 C43.4,352.9 43.4,353 43.4,353 L43.4,353.3 C44.4,352 45.9,351.2 47.6,351.3 C50.2,351.3 51.5,352.9 51.5,356 L51.5,363.5 L50.1,363.5 L50.1,356.3 C50.2,355.3 50,354.3 49.5,353.4 C49,352.7 48.1,352.4 47.3,352.5 C46.4,352.5 45.4,352.8 44.7,353.3 C44,353.8 43.6,354.6 43.4,355.4 C43.4,355.7 43.4,356.1 43.4,356.7 L43.4,363.5 L42.1,363.5 L42.1,363.5 Z" id="Path" fill="#10162F"></path>
            <path d="M58,363.8 C57.2,363.9 56.4,363.6 55.8,363.1 C55.3,362.5 55,361.7 55.1,360.9 L55.1,352.6 L53.4,352.6 L53.5,351.8 L55.1,351.7 L55.5,349 L56.5,348.9 L56.5,351.7 L60,351.7 L60,352.7 L56.5,352.7 L56.5,360.7 C56.4,361.3 56.6,361.9 56.9,362.4 C57.3,362.7 57.8,362.9 58.4,362.8 C59,362.8 59.5,362.7 60.1,362.6 L60.2,363.6 C59.4,363.6 58.7,363.7 58,363.8 Z" id="Path" fill="#10162F"></path>
            <polygon id="Path" fill="#10162F" points="310.2 296.1 310.2 294.9 284.8 294.9 284.8 356.9 74.2 356.9 74.2 358.2 284.8 358.2 284.8 420.2 310.2 420.2 310.2 419 286 419 286 296.1"></polygon>
            <rect id="Rectangle" fill="#204056" x="197.8" y="356.9" width="62.1" height="1.2"></rect>
            <path d="M546,719.8 L542.7,707.8 L544.1,707.8 L546.9,718.5 C548.9,712.1 550,708.6 550.2,707.8 L551.9,707.8 C554.1,714.9 555.2,718.5 555.2,718.5 L557.8,707.9 L559.2,707.9 L555.9,719.9 L554.3,719.9 C554.3,719.9 553.8,718.2 552.8,714.9 C551.8,711.6 551.2,709.6 551,709 C550.9,709.4 550.6,710.5 550,712.3 C549.4,714.1 548.9,715.8 548.3,717.5 C547.8,719.1 547.5,719.9 547.5,719.9 L546,719.8 L546,719.8 Z" id="Path" fill="#10162F"></path>
            <path d="M561.2,705.4 L561.2,703.6 L562.5,703.6 L562.5,705.4 L561.2,705.4 Z M561.2,719.8 L561.2,707.8 L562.6,707.8 L562.6,719.8 L561.2,719.8 Z" id="Shape" fill="#10162F"></path>
            <path d="M570.4,720 C569,720.1 567.6,719.5 566.7,718.3 C565.7,717 565.3,715.4 565.4,713.7 C565.3,712.1 565.8,710.5 566.8,709.2 C567.7,708.1 569,707.4 570.4,707.5 C571.2,707.5 571.9,707.7 572.6,708 C573.3,708.3 573.9,708.8 574.3,709.5 L574.3,703.2 L575.6,703.1 L575.6,719.8 L574.5,719.8 L574.3,718 C573.9,718.7 573.3,719.2 572.6,719.5 C571.9,719.9 571.2,720 570.4,720 Z M570.4,718.9 C571,718.9 571.6,718.8 572.2,718.5 C572.7,718.3 573.1,717.9 573.4,717.5 C573.7,717 573.9,716.5 574.1,715.9 C574.3,715.3 574.3,714.6 574.3,713.9 C574.3,710.3 573,708.6 570.4,708.6 C569.8,708.6 569.3,708.7 568.8,709 C568.3,709.3 567.9,709.7 567.7,710.2 C567.4,710.7 567.2,711.3 567.1,711.8 C567,712.4 566.9,713 566.9,713.6 C566.9,714.1 566.9,714.7 567,715.2 C567.1,715.7 567.2,716.1 567.4,716.6 C567.6,717 567.8,717.4 568.1,717.7 C568.4,718 568.7,718.3 569.1,718.5 C569.4,718.9 569.9,719 570.4,718.9 L570.4,718.9 Z" id="Shape" fill="#10162F"></path>
            <path d="M582.2,720 C581.4,720.1 580.6,719.8 580,719.3 C579.5,718.7 579.2,717.9 579.3,717.1 L579.3,708.8 L577.6,708.8 L577.7,708 L579.3,707.8 L579.7,705.1 L580.7,705 L580.7,707.8 L584.2,707.8 L584.2,708.8 L580.7,708.8 L580.7,716.8 C580.6,717.4 580.8,718 581.1,718.5 C581.5,718.8 582,719 582.6,718.9 C583.2,718.9 583.7,718.8 584.3,718.7 L584.4,719.7 C583.5,719.9 582.9,720 582.2,720 Z" id="Path" fill="#10162F"></path>
            <path d="M586.2,719.8 L586.2,703.2 L587.5,703.1 L587.5,709.1 C587.5,709.1 587.5,709.2 587.5,709.2 C587.5,709.2 587.5,709.3 587.5,709.3 L587.5,709.6 C588.5,708.3 590,707.5 591.7,707.6 C594.3,707.6 595.6,709.2 595.6,712.3 L595.6,719.8 L594.3,719.8 L594.3,712.6 C594.4,711.6 594.2,710.6 593.7,709.7 C593.2,709 592.3,708.7 591.5,708.8 C590.6,708.8 589.6,709.1 588.9,709.6 C588.2,710.1 587.8,710.9 587.6,711.7 C587.6,712 587.6,712.4 587.6,713 L587.6,719.8 L586.2,719.8 L586.2,719.8 Z" id="Path" fill="#10162F"></path>
            <polygon id="Path" fill="#10162F" points="818.7 458.4 320.9 458.4 320.9 433 322.1 433 322.1 457.2 817.4 457.2 817.4 433 818.7 433"></polygon>
            <rect id="Rectangle" fill="#10162F" x="569.2" y="457.8" width="1.2" height="211.2"></rect>
            <rect id="Rectangle" fill="#204056" x="569.2" y="482.1" width="1.2" height="62.1"></rect>
        </g>
    </g>
</svg>