<?xml version="1.0" encoding="UTF-8"?>
<svg width="1188px" height="750px" viewBox="0 0 1188 750" version="1.1" xmlns="http://www.w3.org/2000/svg" xmlns:xlink="http://www.w3.org/1999/xlink">
    <title>CSS box model</title>
    <g id="CSS-box-model" stroke="none" stroke-width="1" fill="none" fill-rule="evenodd">
        <g id="css-box-model" transform="translate(41.200000, 101.300000)" fill-rule="nonzero">
            <g id="Group" transform="translate(135.500000, 0.000000)">
                <rect id="Rectangle" fill="#F5FCFF" x="124.3" y="124.1" width="620.7" height="248.3"></rect>
                <rect id="Rectangle" fill="#66C4FF" x="186.4" y="186.2" width="496.6" height="124.1"></rect>
                <path d="M854.3,0 L846.9,0 L846.9,1.2 L854.3,1.2 L854.3,0 L854.3,0 Z M839.4,0 L831.9,0 L831.9,1.2 L839.4,1.2 L839.4,0 L839.4,0 Z M824.5,0 L817,0 L817,1.2 L824.5,1.2 L824.5,0 L824.5,0 Z M809.6,0 L802.1,0 L802.1,1.2 L809.6,1.2 L809.6,0 L809.6,0 Z M794.7,0 L787.2,0 L787.2,1.2 L794.7,1.2 L794.7,0 L794.7,0 Z M779.8,0 L772.3,0 L772.3,1.2 L779.8,1.2 L779.8,0 L779.8,0 L779.8,0 Z M764.9,0 L757.4,0 L757.4,1.2 L764.9,1.2 L764.9,0 L764.9,0 Z M750,0 L742.5,0 L742.5,1.2 L750,1.2 L750,0 L750,0 Z M735.1,0 L727.6,0 L727.6,1.2 L735.1,1.2 L735.1,0 L735.1,0 Z M720.2,0 L712.7,0 L712.7,1.2 L720.2,1.2 L720.2,0 L720.2,0 Z M705.3,0 L697.8,0 L697.8,1.2 L705.3,1.2 L705.3,0 L705.3,0 L705.3,0 Z M690.4,0 L682.9,0 L682.9,1.2 L690.4,1.2 L690.4,0 L690.4,0 Z M675.5,0 L668,0 L668,1.2 L675.5,1.2 L675.5,0 L675.5,0 Z M660.6,0 L653.1,0 L653.1,1.2 L660.6,1.2 L660.6,0 L660.6,0 Z M645.7,0 L638.3,0 L638.3,1.2 L645.8,1.2 L645.7,0 L645.7,0 L645.7,0 Z M630.8,0 L623.3,0 L623.3,1.2 L630.8,1.2 L630.8,0 L630.8,0 Z M615.9,0 L608.4,0 L608.4,1.2 L615.9,1.2 L615.9,0 L615.9,0 Z M601,0 L593.5,0 L593.5,1.2 L601,1.2 L601,0 L601,0 Z M586.1,0 L578.6,0 L578.6,1.2 L586.1,1.2 L586.1,0 L586.1,0 Z M571.2,0 L563.7,0 L563.7,1.2 L571.2,1.2 L571.2,0 L571.2,0 Z M556.3,0 L548.8,0 L548.8,1.2 L556.3,1.2 L556.3,0 L556.3,0 L556.3,0 Z M541.4,0 L533.9,0 L533.9,1.2 L541.4,1.2 L541.4,0 L541.4,0 Z M526.5,0 L519,0 L519,1.2 L526.5,1.2 L526.5,0 L526.5,0 Z M511.6,0 L504.2,0 L504.2,1.2 L511.7,1.2 L511.6,0 L511.6,0 L511.6,0 Z M496.7,0 L489.3,0 L489.3,1.2 L496.8,1.2 L496.7,0 L496.7,0 L496.7,0 Z M481.8,0 L474.4,0 L474.4,1.2 L481.9,1.2 L481.8,0 L481.8,0 L481.8,0 Z M466.9,0 L459.4,0 L459.4,1.2 L466.9,1.2 L466.9,0 L466.9,0 Z M452,0 L444.5,0 L444.5,1.2 L452,1.2 L452,0 L452,0 Z M437.1,0 L429.6,0 L429.6,1.2 L437.1,1.2 L437.1,0 L437.1,0 Z M422.2,0 L414.7,0 L414.7,1.2 L422.3,1.2 L422.3,0 L422.3,0 L422.2,0 Z M407.3,0 L399.8,0 L399.8,1.2 L407.3,1.2 L407.3,0 L407.3,0 Z M392.4,0 L384.9,0 L384.9,1.2 L392.4,1.2 L392.4,0 L392.4,0 Z M377.5,0 L370,0 L370,1.2 L377.5,1.2 L377.5,0 L377.5,0 Z M362.6,0 L355.1,0 L355.1,1.2 L362.6,1.2 L362.6,0 L362.6,0 Z M347.7,0 L340.3,0 L340.3,1.2 L347.8,1.2 L347.7,0 L347.7,0 L347.7,0 Z M332.8,0 L325.3,0 L325.3,1.2 L332.8,1.2 L332.8,0 L332.8,0 Z M317.9,0 L310.4,0 L310.4,1.2 L317.9,1.2 L317.9,0 L317.9,0 Z M303,0 L295.5,0 L295.5,1.2 L303,1.2 L303,0 L303,0 Z M288.1,0 L280.6,0 L280.6,1.2 L288.1,1.2 L288.1,0 L288.1,0 Z M273.2,0 L265.7,0 L265.7,1.2 L273.3,1.2 L273.3,0 L273.3,0 L273.2,0 Z M258.3,0 L250.8,0 L250.8,1.2 L258.3,1.2 L258.3,0 L258.3,0 Z M243.4,0 L235.9,0 L235.9,1.2 L243.4,1.2 L243.4,0 L243.4,0 Z M228.5,0 L221,0 L221,1.2 L228.5,1.2 L228.5,0 L228.5,0 Z M213.6,0 L206.3,0 L206.3,1.2 L213.8,1.2 L213.8,0 L213.8,0 L213.6,0 Z M198.7,0 L191.2,0 L191.2,1.2 L198.7,1.2 L198.7,0 L198.7,0 Z M183.8,0 L176.3,0 L176.3,1.2 L183.8,1.2 L183.8,0 L183.8,0 Z M168.9,0 L161.4,0 L161.4,1.2 L168.9,1.2 L168.9,0 L168.9,0 Z M154,0 L146.5,0 L146.5,1.2 L154,1.2 L154,0 L154,0 Z M139.1,0 L131.6,0 L131.6,1.2 L139.1,1.2 L139.1,0 L139.1,0 Z M124.2,0 L116.7,0 L116.7,1.2 L124.3,1.2 L124.3,0 L124.3,0 L124.2,0 Z M109.3,0 L101.8,0 L101.8,1.2 L109.3,1.2 L109.3,0 L109.3,0 Z M94.4,0 L86.9,0 L86.9,1.2 L94.4,1.2 L94.4,0 L94.4,0 Z M79.5,0 L72.1,0 L72.1,1.2 L79.5,1.2 L79.5,0 L79.5,0 Z M64.6,0 L57.3,0 L57.3,1.2 L64.7,1.2 L64.7,0 L64.7,0 L64.6,0 Z M49.7,0 L42.4,0 L42.4,1.2 L49.8,1.2 L49.8,0 L49.8,0 L49.7,0 Z M34.8,0 L27.5,0 L27.5,1.2 L34.9,1.2 L34.9,0 L34.9,0 L34.8,0 Z M19.9,0 L12.6,0 L12.6,1.2 L20,1.2 L20,0 L20,0 L19.9,0 Z M5,0 L5.68434189e-14,0 L5.68434189e-14,1.2 L5.68434189e-14,1.2 L5.68434189e-14,2.4 L1.2,2.4 L1.2,1.2 L4.9,1.2 L5,0 L5,0 L5,0 Z M1.3,9.9 L0.1,9.9 L0.1,17.3 L1.3,17.3 L1.3,9.9 L1.3,9.9 Z M1.3,24.8 L0.1,24.8 L0.1,32.2 L1.3,32.2 L1.3,24.8 L1.3,24.8 L1.3,24.8 Z M1.3,39.7 L0.1,39.7 L0.1,47.2 L1.3,47.2 L1.3,39.7 L1.3,39.7 L1.3,39.7 Z M1.3,54.6 L0.1,54.6 L0.1,62.1 L1.3,62.1 L1.3,54.6 L1.3,54.6 L1.3,54.6 Z M1.3,69.5 L0.1,69.5 L0.1,77 L1.3,77 L1.3,69.5 L1.3,69.5 Z M1.3,84.4 L0.1,84.4 L0.1,91.9 L1.3,91.9 L1.3,84.4 L1.3,84.4 Z M1.3,99.3 L0.1,99.3 L0.1,106.7 L1.3,106.7 L1.3,99.3 L1.3,99.3 L1.3,99.3 Z M1.3,114.2 L0.1,114.2 L0.1,121.7 L1.3,121.7 L1.3,114.2 L1.3,114.2 Z M1.3,129.1 L0.1,129.1 L0.1,136.6 L1.3,136.6 L1.3,129.1 L1.3,129.1 Z M1.3,144 L0.1,144 L0.1,151.5 L1.3,151.5 L1.3,144 L1.3,144 Z M1.3,158.9 L0.1,158.9 L0.1,166.4 L1.3,166.4 L1.3,158.9 L1.3,158.9 Z M1.3,173.8 L0.1,173.8 L0.1,181.3 L1.3,181.3 L1.3,173.8 L1.3,173.8 Z M1.3,188.7 L0.1,188.7 L0.1,196.2 L1.3,196.2 L1.3,188.7 L1.3,188.7 L1.3,188.7 Z M1.3,203.6 L0.1,203.6 L0.1,211.1 L1.3,211.1 L1.3,203.6 L1.3,203.6 Z M1.3,218.5 L0.1,218.5 L0.1,226 L1.3,226 L1.3,218.5 L1.3,218.5 Z M1.3,233.4 L0.1,233.4 L0.1,240.9 L1.3,240.9 L1.3,233.4 L1.3,233.4 Z M1.3,248.3 L0.1,248.3 L0.1,255.7 L1.3,255.7 L1.3,248.3 L1.3,248.3 L1.3,248.3 Z M1.3,263.2 L0.1,263.2 L0.1,270.7 L1.3,270.7 L1.3,263.2 L1.3,263.2 Z M1.3,278.1 L0.1,278.1 L0.1,285.6 L1.3,285.6 L1.3,278.1 L1.3,278.1 Z M1.3,293 L0.1,293 L0.1,300.5 L1.3,300.5 L1.3,293 L1.3,293 Z M1.3,307.9 L0.1,307.9 L0.1,315.4 L1.3,315.4 L1.3,307.9 L1.3,307.9 Z M1.3,322.8 L0.1,322.8 L0.1,330.3 L1.3,330.3 L1.3,322.7 L1.3,322.7 L1.3,322.8 Z M1.3,337.7 L0.1,337.7 L0.1,345.2 L1.3,345.2 L1.3,337.7 L1.3,337.7 Z M1.3,352.6 L0.1,352.6 L0.1,360.1 L1.3,360.1 L1.3,352.6 L1.3,352.6 Z M1.3,367.5 L0.1,367.5 L0.1,375 L1.3,375 L1.3,367.5 L1.3,367.5 Z M1.3,382.4 L0.1,382.4 L0.1,389.9 L1.3,389.9 L1.3,382.4 L1.3,382.4 Z M1.3,397.3 L0.1,397.3 L0.1,404.7 L1.3,404.7 L1.3,397.3 L1.3,397.3 L1.3,397.3 Z M1.3,412.2 L0.1,412.2 L0.1,419.7 L1.3,419.7 L1.3,412.2 L1.3,412.2 Z M1.3,427.1 L0.1,427.1 L0.1,434.6 L1.3,434.6 L1.3,427.1 L1.3,427.1 Z M1.3,442 L0.1,442 L0.1,449.5 L1.3,449.5 L1.3,442 L1.3,442 Z M1.3,456.9 L0.1,456.9 L0.1,464.4 L1.3,464.4 L1.3,456.9 L1.3,456.9 Z M1.3,471.8 L0.1,471.8 L0.1,479.3 L1.3,479.3 L1.3,471.7 L1.3,471.7 L1.3,471.8 Z M1.3,486.7 L0.1,486.7 L0.1,494.2 L1.3,494.2 L1.3,486.7 L1.3,486.7 Z M12.4,495.4 L5,495.4 L5,496.6 L12.4,496.6 L12.4,495.3 L12.4,495.3 L12.4,495.4 Z M27.3,495.4 L19.9,495.4 L19.9,496.6 L27.3,496.6 L27.3,495.3 L27.3,495.3 L27.3,495.4 Z M42.2,495.4 L34.8,495.4 L34.8,496.6 L42.2,496.6 L42.2,495.3 L42.2,495.3 L42.2,495.4 Z M57.1,495.4 L49.7,495.4 L49.7,496.6 L57.3,496.6 L57.3,495.3 L57.3,495.3 L57.1,495.4 Z M72,495.4 L64.6,495.4 L64.6,496.6 L72,496.6 L72,495.3 L72,495.3 L72,495.4 Z M86.9,495.4 L79.4,495.4 L79.4,496.6 L86.9,496.6 L86.9,495.3 L86.9,495.3 L86.9,495.4 Z M101.8,495.4 L94.3,495.4 L94.3,496.6 L101.8,496.6 L101.8,495.3 L101.8,495.3 L101.8,495.4 Z M116.7,495.4 L109.3,495.4 L109.3,496.6 L116.8,496.6 L116.8,495.3 L116.8,495.3 L116.8,495.4 L116.7,495.4 Z M131.6,495.4 L124.3,495.4 L124.3,496.6 L131.8,496.6 L131.8,495.3 L131.8,495.3 L131.6,495.4 Z M146.5,495.4 L139,495.4 L139,496.6 L146.5,496.6 L146.5,495.3 L146.5,495.3 L146.5,495.4 Z M161.4,495.4 L153.9,495.4 L153.9,496.6 L161.4,496.6 L161.4,495.3 L161.4,495.3 L161.4,495.4 Z M176.3,495.4 L168.8,495.4 L168.8,496.6 L176.3,496.6 L176.3,495.3 L176.3,495.3 L176.3,495.4 Z M191.2,495.4 L183.7,495.4 L183.7,496.6 L191.2,496.6 L191.2,495.3 L191.2,495.3 L191.2,495.4 Z M206.1,495.4 L198.6,495.4 L198.6,496.6 L206.2,496.6 L206.2,495.3 L206.2,495.3 L206.1,495.4 Z M221,495.4 L213.5,495.4 L213.5,496.6 L221,496.6 L221,495.3 L221,495.3 L221,495.4 Z M235.9,495.4 L228.4,495.4 L228.4,496.6 L235.9,496.6 L235.9,495.3 L235.9,495.3 L235.9,495.4 Z M250.8,495.4 L243.5,495.4 L243.5,496.6 L251,496.6 L251,495.3 L251,495.3 L250.8,495.4 Z M265.7,495.4 L258.4,495.4 L258.4,496.6 L265.9,496.6 L265.9,495.3 L265.9,495.3 L265.7,495.4 Z M280.6,495.4 L273.3,495.4 L273.3,496.6 L280.8,496.6 L280.8,495.3 L280.8,495.3 L280.6,495.4 Z M295.5,495.4 L288,495.4 L288,496.6 L295.5,496.6 L295.5,495.3 L295.5,495.3 L295.5,495.4 Z M310.4,495.4 L302.9,495.4 L302.9,496.6 L310.4,496.6 L310.4,495.3 L310.4,495.3 L310.4,495.4 Z M325.3,495.4 L317.8,495.4 L317.8,496.6 L325.3,496.6 L325.3,495.3 L325.3,495.3 L325.3,495.4 Z M340.2,495.4 L332.7,495.4 L332.7,496.6 L340.2,496.6 L340.2,495.3 L340.2,495.3 L340.2,495.4 Z M355.1,495.4 L347.6,495.4 L347.6,496.6 L355.1,496.6 L355.1,495.3 L355.1,495.3 L355.1,495.4 Z M370,495.4 L362.5,495.4 L362.5,496.6 L370,496.6 L370,495.3 L370,495.3 L370,495.4 Z M384.9,495.4 L377.4,495.4 L377.4,496.6 L384.9,496.6 L384.9,495.3 L384.9,495.3 L384.9,495.4 Z M399.8,495.4 L392.3,495.4 L392.3,496.6 L399.8,496.6 L399.8,495.3 L399.8,495.3 L399.8,495.4 Z M414.7,495.4 L407.3,495.4 L407.3,496.6 L414.8,496.6 L414.8,495.3 L414.8,495.3 L414.8,495.4 L414.7,495.4 Z M429.6,495.4 L422.3,495.4 L422.3,496.6 L429.8,496.6 L429.8,495.3 L429.8,495.3 L429.6,495.4 Z M444.5,495.4 L437,495.4 L437,496.6 L444.5,496.6 L444.5,495.3 L444.5,495.3 L444.5,495.4 Z M459.4,495.4 L451.9,495.4 L451.9,496.6 L459.4,496.6 L459.4,495.3 L459.4,495.3 L459.4,495.4 Z M474.3,495.4 L466.8,495.4 L466.8,496.6 L474.3,496.6 L474.3,495.3 L474.3,495.3 L474.3,495.4 Z M489.2,495.4 L481.7,495.4 L481.7,496.6 L489.2,496.6 L489.2,495.3 L489.2,495.3 L489.2,495.4 Z M504.1,495.4 L496.6,495.4 L496.6,496.6 L504.1,496.6 L504.1,495.3 L504.1,495.3 L504.1,495.4 Z M519,495.4 L511.5,495.4 L511.5,496.6 L519,496.6 L519,495.3 L519,495.3 L519,495.4 Z M533.9,495.4 L526.4,495.4 L526.4,496.6 L533.9,496.6 L533.9,495.3 L533.9,495.3 L533.9,495.4 Z M548.8,495.4 L541.3,495.4 L541.3,496.6 L548.8,496.6 L548.8,495.3 L548.8,495.3 L548.8,495.4 Z M563.7,495.4 L556.3,495.4 L556.3,496.6 L563.8,496.6 L563.8,495.3 L563.8,495.3 L563.7,495.4 Z M578.6,495.4 L571.1,495.4 L571.1,496.6 L578.6,496.6 L578.6,495.3 L578.6,495.3 L578.6,495.4 Z M593.5,495.4 L586,495.4 L586,496.6 L593.5,496.6 L593.5,495.3 L593.5,495.3 L593.5,495.4 Z M608.4,495.4 L600.9,495.4 L600.9,496.6 L608.4,496.6 L608.4,495.3 L608.4,495.3 L608.4,495.4 Z M623.3,495.4 L615.8,495.4 L615.8,496.6 L623.3,496.6 L623.3,495.3 L623.3,495.3 L623.3,495.4 Z M638.2,495.4 L630.7,495.4 L630.7,496.6 L638.2,496.6 L638.2,495.3 L638.2,495.3 L638.2,495.4 Z M653.1,495.4 L645.6,495.4 L645.6,496.6 L653.1,496.6 L653.1,495.3 L653.1,495.3 L653.1,495.4 Z M668,495.4 L660.5,495.4 L660.5,496.6 L668,496.6 L668,495.3 L668,495.3 L668,495.4 Z M682.9,495.4 L675.4,495.4 L675.4,496.6 L682.9,496.6 L682.9,495.3 L682.9,495.3 L682.9,495.4 Z M697.8,495.4 L690.3,495.4 L690.3,496.6 L697.8,496.6 L697.8,495.3 L697.8,495.3 L697.8,495.4 Z M712.7,495.4 L705.3,495.4 L705.3,496.6 L712.8,496.6 L712.8,495.3 L712.8,495.3 L712.7,495.4 Z M727.6,495.4 L720.2,495.4 L720.2,496.6 L727.7,496.6 L727.7,495.3 L727.7,495.3 L727.6,495.4 Z M742.5,495.4 L735.1,495.4 L735.1,496.6 L742.6,496.6 L742.6,495.3 L742.6,495.3 L742.5,495.4 Z M757.4,495.4 L749.9,495.4 L749.9,496.6 L757.4,496.6 L757.4,495.3 L757.4,495.3 L757.4,495.4 Z M772.3,495.4 L764.8,495.4 L764.8,496.6 L772.2,496.6 L772.2,495.3 L772.2,495.3 L772.3,495.4 Z M787.2,495.4 L779.7,495.4 L779.7,496.6 L787.2,496.6 L787.2,495.3 L787.2,495.3 L787.2,495.4 Z M802.1,495.4 L794.6,495.4 L794.6,496.6 L802.1,496.6 L802.1,495.3 L802.1,495.3 L802.1,495.4 Z M817,495.4 L809.5,495.4 L809.5,496.6 L817,496.6 L817,495.3 L817,495.3 L817,495.4 Z M831.9,495.4 L824.4,495.4 L824.4,496.6 L831.9,496.6 L831.9,495.3 L831.9,495.3 L831.9,495.4 Z M846.8,495.4 L839.3,495.4 L839.3,496.6 L846.8,496.6 L846.8,495.3 L846.8,495.3 L846.8,495.4 Z M861.7,495.4 L854.3,495.4 L854.3,496.6 L861.7,496.6 L861.7,495.3 L861.7,495.3 L861.7,495.4 Z M869.2,489.2 L868,489.2 L868,496.7 L869.2,496.7 L869.2,489.2 L869.2,489.2 Z M869.2,474.3 L868,474.3 L868,481.8 L869.2,481.8 L869.2,474.3 L869.2,474.3 Z M869.2,459.4 L868,459.4 L868,466.7 L869.2,466.7 L869.2,459.2 L869.2,459.2 L869.2,459.4 Z M869.2,444.5 L868,444.5 L868,452 L869.2,452 L869.2,444.5 L869.2,444.5 L869.2,444.5 Z M869.2,429.6 L868,429.6 L868,437.1 L869.2,437.1 L869.2,429.6 L869.2,429.6 L869.2,429.6 Z M869.2,414.7 L868,414.7 L868,422.2 L869.2,422.2 L869.2,414.7 L869.2,414.7 L869.2,414.7 Z M869.2,399.8 L868,399.8 L868,407.3 L869.2,407.3 L869.2,399.8 L869.2,399.8 L869.2,399.8 Z M869.2,384.9 L868,384.9 L868,392.4 L869.2,392.4 L869.2,384.9 L869.2,384.9 Z M869.2,370 L868,370 L868,377.5 L869.2,377.5 L869.2,370 L869.2,370 Z M869.2,355.1 L868,355.1 L868,362.6 L869.2,362.6 L869.2,355.1 L869.2,355.1 Z M869.2,340.2 L868,340.2 L868,347.7 L869.2,347.7 L869.2,340.2 L869.2,340.2 Z M869.2,325.3 L868,325.3 L868,332.7 L869.2,332.7 L869.2,325.3 L869.2,325.3 L869.2,325.3 Z M869.2,310.4 L868,310.4 L868,317.9 L869.2,317.9 L869.2,310.4 L869.2,310.4 Z M869.2,295.5 L868,295.5 L868,303 L869.2,303 L869.2,295.5 L869.2,295.5 Z M869.2,280.6 L868,280.6 L868,288.1 L869.2,288.1 L869.2,280.6 L869.2,280.6 Z M869.2,265.7 L868,265.7 L868,273.2 L869.2,273.2 L869.2,265.7 L869.2,265.7 Z M869.2,250.8 L868,250.8 L868,258.3 L869.2,258.3 L869.2,250.8 L869.2,250.8 L869.2,250.8 Z M869.2,235.9 L868,235.9 L868,243.4 L869.2,243.4 L869.2,235.9 L869.2,235.9 Z M869.2,221 L868,221 L868,228.5 L869.2,228.5 L869.2,221 L869.2,221 Z M869.2,206.1 L868,206.1 L868,213.6 L869.2,213.6 L869.2,206.1 L869.2,206.1 Z M869.2,191.2 L868,191.2 L868,198.7 L869.2,198.7 L869.2,191.2 L869.2,191.2 Z M869.2,176.3 L868,176.3 L868,183.7 L869.2,183.7 L869.2,176.3 L869.2,176.3 L869.2,176.3 Z M869.2,161.4 L868,161.4 L868,168.9 L869.2,168.9 L869.2,161.4 L869.2,161.4 Z M869.2,146.5 L868,146.5 L868,154 L869.2,154 L869.2,146.5 L869.2,146.5 Z M869.2,131.6 L868,131.6 L868,139.1 L869.2,139.1 L869.2,131.6 L869.2,131.6 Z M869.2,116.7 L868,116.7 L868,124.2 L869.2,124.2 L869.2,116.7 L869.2,116.7 L869.2,116.7 Z M869.2,101.8 L868,101.8 L868,109.3 L869.2,109.3 L869.2,101.8 L869.2,101.8 Z M869.2,86.9 L868,86.9 L868,94.4 L869.2,94.4 L869.2,86.9 L869.2,86.9 Z M869.2,72 L868,72 L868,79.5 L869.2,79.5 L869.2,72 L869.2,72 Z M869.2,57.1 L868,57.1 L868,64.6 L869.2,64.6 L869.2,57.1 L869.2,57.1 Z M869.2,42.2 L868,42.2 L868,49.7 L869.2,49.7 L869.2,42.2 L869.2,42.2 Z M869.2,27.3 L868,27.3 L868,34.7 L869.2,34.7 L869.2,27.3 L869.2,27.3 L869.2,27.3 Z M869.2,12.4 L868,12.4 L868,19.8 L869.2,19.8 L869.2,12.4 L869.2,12.4 Z M869.2,0 L861.8,0 L861.8,1.2 L868,1.2 L868,4.9 L869.2,4.9 L869.2,0 L869.2,0 L869.2,0 Z" id="Shape" fill="#1557FF"></path>
                <path d="M62.3,62.1 L62.3,434.5 L807.1,434.5 L807.1,62.1 L62.3,62.1 Z M745,372.4 L124.3,372.4 L124.3,124.1 L745,124.1 L745,372.4 L745,372.4 Z" id="Shape" fill="#66C4FF"></path>
                <path d="M668.1,186.2 L660.6,186.2 L660.6,187.4 L668.1,187.4 L668.1,186.2 L668.1,186.2 Z M653.2,186.2 L645.7,186.2 L645.7,187.4 L653.2,187.4 L653.2,186.2 L653.2,186.2 Z M638.3,186.2 L630.8,186.2 L630.8,187.4 L638.3,187.4 L638.3,186.2 L638.3,186.2 L638.3,186.2 Z M623.4,186.2 L615.9,186.2 L615.9,187.4 L623.4,187.4 L623.4,186.2 L623.4,186.2 Z M608.5,186.2 L601,186.2 L601,187.4 L608.5,187.4 L608.5,186.2 L608.5,186.2 Z M593.6,186.2 L586.1,186.2 L586.1,187.4 L593.6,187.4 L593.6,186.2 L593.6,186.2 Z M578.7,186.2 L571.2,186.2 L571.2,187.4 L578.7,187.4 L578.7,186.2 L578.7,186.2 Z M563.8,186.2 L556.3,186.2 L556.3,187.4 L563.8,187.4 L563.8,186.2 L563.8,186.2 L563.8,186.2 Z M548.9,186.2 L541.4,186.2 L541.4,187.4 L548.9,187.4 L548.9,186.2 L548.9,186.2 Z M534,186.2 L526.5,186.2 L526.5,187.4 L534,187.4 L534,186.2 L534,186.2 Z M519.1,186.2 L511.6,186.2 L511.6,187.4 L519.1,187.4 L519.1,186.2 L519.1,186.2 Z M504.2,186.2 L496.7,186.2 L496.7,187.4 L504.2,187.4 L504.2,186.2 L504.2,186.2 Z M489.3,186.2 L481.8,186.2 L481.8,187.4 L489.3,187.4 L489.3,186.2 L489.3,186.2 L489.3,186.2 Z M474.4,186.2 L466.9,186.2 L466.9,187.4 L474.4,187.4 L474.4,186.2 L474.4,186.2 Z M459.5,186.2 L452,186.2 L452,187.4 L459.5,187.4 L459.5,186.2 L459.5,186.2 Z M444.6,186.2 L437.1,186.2 L437.1,187.4 L444.6,187.4 L444.6,186.2 L444.6,186.2 Z M429.7,186.2 L422.3,186.2 L422.3,187.4 L429.8,187.4 L429.7,186.2 L429.7,186.2 L429.7,186.2 Z M414.8,186.2 L407.3,186.2 L407.3,187.4 L414.8,187.4 L414.8,186.2 L414.8,186.2 Z M399.9,186.2 L392.4,186.2 L392.4,187.4 L399.9,187.4 L399.9,186.2 L399.9,186.2 Z M385,186.2 L377.5,186.2 L377.5,187.4 L385,187.4 L385,186.2 L385,186.2 Z M370.1,186.2 L362.6,186.2 L362.6,187.4 L370.1,187.4 L370.1,186.2 L370.1,186.2 Z M355.2,186.2 L347.7,186.2 L347.7,187.4 L355.2,187.4 L355.2,186.2 L355.2,186.2 Z M340.3,186.2 L332.8,186.2 L332.8,187.4 L340.3,187.4 L340.3,186.2 L340.3,186.2 L340.3,186.2 Z M325.4,186.2 L317.9,186.2 L317.9,187.4 L325.4,187.4 L325.4,186.2 L325.4,186.2 Z M310.5,186.2 L303,186.2 L303,187.4 L310.5,187.4 L310.5,186.2 L310.5,186.2 Z M295.6,186.2 L288.1,186.2 L288.1,187.4 L295.6,187.4 L295.6,186.2 L295.6,186.2 Z M280.7,186.2 L273.3,186.2 L273.3,187.4 L280.8,187.4 L280.7,186.2 L280.7,186.2 L280.7,186.2 Z M265.8,186.2 L258.4,186.2 L258.4,187.4 L265.9,187.4 L265.8,186.2 L265.8,186.2 L265.8,186.2 Z M250.9,186.2 L243.5,186.2 L243.5,187.4 L251,187.4 L250.9,186.2 L250.9,186.2 L250.9,186.2 Z M236,186.2 L228.5,186.2 L228.5,187.4 L236,187.4 L236,186.2 L236,186.2 Z M221.1,186.2 L213.6,186.2 L213.6,187.4 L221.1,187.4 L221.1,186.2 L221.1,186.2 Z M206.2,186.2 L198.7,186.2 L198.7,187.4 L206.3,187.4 L206.3,186.2 L206.3,186.2 L206.2,186.2 Z M191.3,186.2 L186.3,186.2 L186.3,187.4 L186.3,187.4 L186.3,188.7 L187.5,188.7 L187.5,187.5 L191.2,187.5 L191.3,186.2 L191.3,186.2 L191.3,186.2 Z M187.5,196.1 L186.4,196.1 L186.4,203.6 L187.6,203.6 L187.6,196.1 L187.6,196.1 L187.5,196.1 Z M187.5,211 L186.4,211 L186.4,218.5 L187.6,218.5 L187.6,211 L187.6,211 L187.5,211 Z M187.5,225.9 L186.4,225.9 L186.4,233.4 L187.6,233.4 L187.6,225.9 L187.6,225.9 L187.5,225.9 Z M187.5,240.8 L186.4,240.8 L186.4,248.3 L187.6,248.3 L187.6,240.8 L187.6,240.8 L187.5,240.8 Z M187.5,255.7 L186.4,255.7 L186.4,263.2 L187.6,263.2 L187.6,255.7 L187.6,255.7 L187.5,255.7 Z M187.5,270.6 L186.4,270.6 L186.4,278.1 L187.6,278.1 L187.6,270.6 L187.6,270.6 L187.5,270.6 Z M187.5,285.5 L186.4,285.5 L186.4,293 L187.6,293 L187.6,285.5 L187.6,285.5 L187.5,285.5 Z M187.5,300.4 L186.4,300.4 L186.4,307.9 L187.6,307.9 L187.6,300.4 L187.6,300.4 L187.5,300.4 Z M198.7,309.1 L191.3,309.1 L191.3,310.3 L198.8,310.3 L198.8,309.1 L198.7,309.1 Z M213.6,309.1 L206.3,309.1 L206.3,310.3 L213.8,310.3 L213.8,309.1 L213.8,309.1 L213.6,309.1 Z M228.5,309.1 L221,309.1 L221,310.3 L228.5,310.3 L228.5,309.1 L228.5,309.1 Z M243.4,309.1 L235.9,309.1 L235.9,310.3 L243.4,310.3 L243.4,309.1 L243.4,309.1 Z M258.3,309.1 L250.8,309.1 L250.8,310.3 L258.3,310.3 L258.3,309.1 L258.3,309.1 Z M273.2,309.1 L265.7,309.1 L265.7,310.3 L273.2,310.3 L273.2,309.1 L273.2,309.1 L273.2,309.1 Z M288.1,309.1 L280.6,309.1 L280.6,310.3 L288.1,310.3 L288.1,309.1 L288.1,309.1 Z M303,309.1 L295.5,309.1 L295.5,310.3 L303,310.3 L303,309.1 L303,309.1 Z M317.9,309.1 L310.4,309.1 L310.4,310.3 L317.9,310.3 L317.9,309.1 L317.9,309.1 Z M332.8,309.1 L325.3,309.1 L325.3,310.3 L332.8,310.3 L332.8,309.1 L332.8,309.1 Z M347.7,309.1 L340.3,309.1 L340.3,310.3 L347.8,310.3 L347.7,309.1 L347.7,309.1 L347.7,309.1 Z M362.6,309.1 L355.1,309.1 L355.1,310.3 L362.6,310.3 L362.6,309.1 L362.6,309.1 Z M377.5,309.1 L370,309.1 L370,310.3 L377.5,310.3 L377.5,309.1 L377.5,309.1 Z M392.4,309.1 L384.9,309.1 L384.9,310.3 L392.4,310.3 L392.4,309.1 L392.4,309.1 Z M407.3,309.1 L399.8,309.1 L399.8,310.3 L407.3,310.3 L407.3,309.1 L407.3,309.1 Z M422.2,309.1 L414.7,309.1 L414.7,310.3 L422.2,310.3 L422.2,309.1 L422.2,309.1 L422.2,309.1 Z M437.1,309.1 L429.6,309.1 L429.6,310.3 L437.1,310.3 L437.1,309.1 L437.1,309.1 Z M452,309.1 L444.5,309.1 L444.5,310.3 L452,310.3 L452,309.1 L452,309.1 Z M466.9,309.1 L459.4,309.1 L459.4,310.3 L466.9,310.3 L466.9,309.1 L466.9,309.1 Z M481.8,309.1 L474.4,309.1 L474.4,310.3 L481.9,310.3 L481.8,309.1 L481.8,309.1 L481.8,309.1 Z M496.7,309.1 L489.3,309.1 L489.3,310.3 L496.8,310.3 L496.7,309.1 L496.7,309.1 L496.7,309.1 Z M511.6,309.1 L504.2,309.1 L504.2,310.3 L511.7,310.3 L511.6,309.1 L511.6,309.1 L511.6,309.1 Z M526.5,309.1 L519,309.1 L519,310.3 L526.5,310.3 L526.5,309.1 L526.5,309.1 Z M541.4,309.1 L533.9,309.1 L533.9,310.3 L541.4,310.3 L541.4,309.1 L541.4,309.1 Z M556.3,309.1 L548.8,309.1 L548.8,310.3 L556.2,310.3 L556.3,309.1 L556.3,309.1 L556.3,309.1 Z M571.2,309.1 L563.7,309.1 L563.7,310.3 L571.2,310.3 L571.2,309.1 L571.2,309.1 Z M586.1,309.1 L578.6,309.1 L578.6,310.3 L586.1,310.3 L586.1,309.1 L586.1,309.1 Z M601,309.1 L593.5,309.1 L593.5,310.3 L601,310.3 L601,309.1 L601,309.1 Z M615.9,309.1 L608.4,309.1 L608.4,310.3 L615.9,310.3 L615.9,309.1 L615.9,309.1 Z M630.8,309.1 L623.3,309.1 L623.3,310.3 L630.8,310.3 L630.8,309.1 L630.8,309.1 Z M645.7,309.1 L638.3,309.1 L638.3,310.3 L645.8,310.3 L645.7,309.1 L645.7,309.1 L645.7,309.1 Z M660.6,309.1 L653.1,309.1 L653.1,310.3 L660.6,310.3 L660.6,309.1 L660.6,309.1 Z M675.5,309.1 L668,309.1 L668,310.3 L675.5,310.3 L675.5,309.1 L675.5,309.1 Z M683,302.9 L681.8,302.9 L681.8,310.4 L683,310.4 L683,302.9 L683,302.9 Z M683,288 L681.8,288 L681.8,295.4 L683,295.4 L683,288 L683,288 L683,288 Z M683,273.1 L681.8,273.1 L681.8,280.6 L683,280.6 L683,273.1 L683,273.1 Z M683,258.2 L681.8,258.2 L681.8,265.7 L683,265.7 L683,258.2 L683,258.2 Z M683,243.3 L681.8,243.3 L681.8,250.7 L683,250.7 L683,243.3 L683,243.3 L683,243.3 Z M683,228.4 L681.8,228.4 L681.8,235.9 L683,235.9 L683,228.4 L683,228.4 Z M683,213.5 L681.8,213.5 L681.8,221 L683,221 L683,213.5 L683,213.5 Z M683,198.6 L681.8,198.6 L681.8,206.1 L683,206.1 L683,198.6 L683,198.6 Z M683,186.2 L675.5,186.2 L675.5,187.4 L681.7,187.4 L681.7,191.1 L682.9,191.1 L682.9,186.2 L683,186.2 L683,186.2 Z" id="Shape" fill="#1557FF"></path>
            </g>
            <path d="M533.5,255.8 C532.2,255.8 530.9,255.5 529.8,254.8 C528.8,254.1 528,253.2 527.5,252.1 C527,250.9 526.7,249.7 526.7,248.4 C526.7,247.4 526.8,246.4 527.2,245.4 C527.5,244.5 527.9,243.7 528.5,242.9 C529.1,242.2 529.8,241.6 530.7,241.2 C531.6,240.8 532.6,240.6 533.6,240.6 C534.3,240.6 535,240.7 535.7,240.9 C536.3,241 536.8,241.3 537.2,241.6 L536.7,242.8 C535.7,242.3 534.6,242 533.5,242 C532.1,241.9 530.7,242.6 529.9,243.7 C529,245 528.5,246.6 528.6,248.3 C528.5,249.9 529,251.4 529.9,252.7 C530.8,253.8 532.1,254.4 533.5,254.4 C534.7,254.4 535.9,254.1 536.9,253.6 L537.1,254.8 C536.6,255.1 536.1,255.4 535.5,255.5 C534.8,255.7 534.1,255.8 533.5,255.8 Z" id="Path" fill="#10162F"></path>
            <path d="M546.1,255.8 C544.9,255.8 543.6,255.5 542.6,254.8 C541.6,254.1 540.8,253.2 540.3,252.1 C539.8,250.9 539.5,249.6 539.5,248.2 C539.5,247.2 539.6,246.2 540,245.2 C540.3,244.3 540.7,243.5 541.3,242.8 C541.9,242.1 542.6,241.6 543.4,241.2 C544.3,240.8 545.2,240.6 546.2,240.6 C548.7,240.5 551,242 552,244.3 C552.5,245.5 552.8,246.8 552.8,248.2 C552.8,249.5 552.6,250.9 552,252.1 C551.5,253.2 550.7,254.1 549.7,254.8 C548.6,255.5 547.4,255.8 546.1,255.8 Z M546.2,254.5 C547.2,254.5 548.1,254.2 548.9,253.6 C549.6,253 550.2,252.3 550.5,251.4 C550.9,250.4 551,249.3 551,248.2 C551.1,246.6 550.6,245 549.8,243.7 C549,242.5 547.6,241.9 546.1,242 C545.1,242 544.2,242.3 543.4,242.9 C542.6,243.5 542.1,244.3 541.7,245.1 C541.3,246.1 541.2,247.2 541.2,248.3 C541.1,249.9 541.6,251.5 542.5,252.8 C543.4,253.9 544.8,254.6 546.2,254.5 Z" id="Shape" fill="#10162F"></path>
            <path d="M556.1,255.5 L556.1,240.9 L557.5,240.9 L557.7,243.1 C558.2,242.3 559,241.7 559.8,241.2 C560.7,240.8 561.7,240.5 562.7,240.5 C564.1,240.4 565.4,240.9 566.4,241.9 C567.3,243.2 567.7,244.8 567.6,246.3 L567.6,255.4 L565.9,255.4 L565.9,245.7 C565.9,244.7 565.7,243.7 565.1,242.9 C564.4,242.3 563.5,242 562.6,242 C561.4,241.9 560.3,242.3 559.4,243 C558.6,243.6 558,244.5 557.8,245.5 C557.8,245.9 557.8,246.4 557.8,246.8 L557.8,255.4 L556.1,255.4 L556.1,255.5 Z" id="Path" fill="#10162F"></path>
            <path d="M575.5,255.8 C574.5,255.9 573.6,255.6 572.8,255 C572.2,254.2 571.9,253.3 572,252.3 L572,242.1 L569.9,242.1 L570,241.1 L572,240.9 L572.4,237.5 L573.6,237.4 L573.6,240.8 L577.9,240.8 L577.9,242 L573.6,242 L573.6,251.8 C573.5,252.5 573.7,253.3 574.1,253.9 C574.6,254.3 575.2,254.5 575.9,254.4 C576.6,254.4 577.3,254.3 577.9,254.1 L578,255.4 C577.2,255.6 576.4,255.7 575.5,255.8 Z" id="Path" fill="#10162F"></path>
            <path d="M586.4,255.8 C584.6,255.9 582.8,255.2 581.6,253.8 C580.3,252.3 579.7,250.3 579.8,248.3 C579.7,246.3 580.3,244.4 581.5,242.8 C582.6,241.4 584.2,240.6 586,240.6 C587.6,240.5 589.1,241.2 590.1,242.4 C591.2,243.8 591.8,245.6 591.7,247.3 C591.7,247.4 591.7,247.5 591.7,247.8 C591.7,248.1 591.7,248.2 591.7,248.3 L581.5,248.3 C581.4,249.9 581.9,251.5 582.9,252.8 C583.7,253.9 585.1,254.5 586.4,254.4 C587.2,254.4 588.1,254.3 588.9,254.1 C589.7,253.9 590.4,253.5 591.1,253.1 L591.4,254.3 C589.8,255.4 588.1,255.8 586.4,255.8 Z M581.6,247 L589.9,247 C590,245.7 589.6,244.3 588.9,243.3 C588.2,242.4 587.1,242 586,242 C584.8,242 583.7,242.5 583,243.4 C582.1,244.4 581.7,245.7 581.6,247 L581.6,247 Z" id="Shape" fill="#10162F"></path>
            <path d="M595,255.5 L595,240.9 L596.4,240.9 L596.6,243.1 C597.1,242.3 597.9,241.7 598.7,241.2 C599.6,240.8 600.6,240.5 601.6,240.5 C603,240.4 604.3,240.9 605.3,241.9 C606.2,243.2 606.6,244.8 606.5,246.3 L606.5,255.4 L604.8,255.4 L604.8,245.7 C604.8,244.7 604.6,243.7 604,242.9 C603.3,242.3 602.4,242 601.5,242 C600.3,241.9 599.2,242.3 598.3,243 C597.5,243.6 596.9,244.6 596.7,245.6 C596.7,246 596.7,246.5 596.7,246.9 L596.7,255.5 L595,255.5 L595,255.5 Z" id="Path" fill="#10162F"></path>
            <path d="M614.5,255.8 C613.5,255.9 612.6,255.6 611.8,255 C611.2,254.2 610.9,253.3 611,252.3 L611,242.1 L608.9,242.1 L609,241.1 L611,240.9 L611.4,237.5 L612.6,237.4 L612.6,240.8 L616.8,240.8 L616.8,242 L612.5,242 L612.5,251.8 C612.4,252.5 612.6,253.3 613,253.9 C613.5,254.3 614.1,254.5 614.8,254.4 C615.5,254.4 616.2,254.3 616.8,254.1 L616.9,255.4 C616.1,255.6 615.3,255.7 614.5,255.8 Z" id="Path" fill="#10162F"></path>
            <path d="M522.8,163.9 C521.9,163.9 521.1,163.7 520.3,163.3 C519.6,162.9 519,162.3 518.6,161.6 L518.6,169.2 L516.2,169.5 L516.2,149 L518.6,149 L518.6,151 C519,150.3 519.6,149.7 520.3,149.2 C521,148.7 521.9,148.5 522.7,148.5 C524.9,148.4 526.9,149.5 527.8,151.5 C528.5,152.9 528.8,154.4 528.8,156 C528.8,158.8 528.1,160.9 526.8,162.4 C525.8,163.5 524.3,164.1 522.8,163.9 Z M518.6,156.2 C518.6,160.1 520,162.1 522.7,162.1 C525.2,162.1 526.4,160.1 526.4,156.2 C526.4,154 526.1,152.5 525.4,151.7 C524.7,150.9 523.7,150.4 522.7,150.4 C520.4,150.4 519.1,151.7 518.7,154.4 C518.6,155 518.6,155.6 518.6,156.2 L518.6,156.2 Z" id="Shape" fill="#10162F"></path>
            <path d="M541.8,153.5 C541.8,151.4 540.9,150.4 539.1,150.4 C538.2,150.4 537.2,150.5 536.3,150.7 C535.6,150.8 534.9,151 534.2,151.3 L533.6,149.5 C535.3,148.9 537,148.6 538.8,148.6 C540.2,148.5 541.6,148.9 542.7,149.7 C543.7,150.5 544.3,151.8 544.2,153.1 L544.2,163.6 L542.2,163.6 L541.9,161.9 C541.3,162.5 540.5,163 539.7,163.4 C538.9,163.8 538,164 537.1,164 C536,164 534.9,163.6 534,162.9 C533.1,162.1 532.7,160.9 532.8,159.8 C532.7,158.6 533.3,157.4 534.4,156.8 C535.1,156.4 535.9,156.1 536.7,155.9 C537.5,155.7 538.6,155.6 539.9,155.4 L541.9,155.2 L541.8,153.5 L541.8,153.5 Z M541.8,160.3 L541.8,156.6 L539.8,156.9 C538.8,157 537.9,157.2 536.9,157.5 C535.9,157.8 535.1,158.7 535.1,159.8 C535.1,160.4 535.3,161.1 535.7,161.6 C536.2,162.1 536.8,162.3 537.5,162.2 C539.1,162.2 540.7,161.5 541.8,160.3 L541.8,160.3 Z" id="Shape" fill="#10162F"></path>
            <path d="M558.5,151 L558.5,143 L560.9,142.7 L560.9,163.6 L558.5,163.6 L558.5,161.3 C557.7,162.9 556.1,163.9 554.3,163.9 C552.5,164 550.8,163.2 549.8,161.7 C548.8,160 548.3,158.1 548.4,156.1 C548.4,153.4 549.1,151.4 550.4,150 C551.4,149 552.8,148.4 554.3,148.5 C555.2,148.5 556.2,148.7 557,149.2 C557.7,149.6 558.2,150.3 558.5,151 Z M558.5,156.2 C558.5,153.9 558.2,152.4 557.5,151.6 C556.8,150.8 555.7,150.3 554.6,150.4 C553,150.3 551.6,151.4 551.3,153 C551,154.1 550.9,155.2 550.9,156.4 C550.9,160.2 552.2,162.1 554.7,162.1 C557.2,162.1 558.5,160.1 558.5,156.2 L558.5,156.2 Z" id="Shape" fill="#10162F"></path>
            <path d="M574.9,151 L574.9,143 L577.3,142.7 L577.3,163.6 L574.9,163.6 L574.9,161.3 C574.1,162.9 572.5,163.9 570.7,163.9 C568.9,164 567.2,163.2 566.2,161.7 C565.2,160 564.7,158.1 564.8,156.1 C564.6,153.9 565.4,151.7 566.8,150 C567.8,149 569.2,148.4 570.7,148.5 C571.6,148.5 572.6,148.7 573.4,149.2 C574.1,149.6 574.6,150.3 574.9,151 Z M574.9,156.2 C574.9,153.9 574.6,152.4 573.9,151.6 C573.2,150.8 572.1,150.3 571,150.4 C569.4,150.3 568,151.4 567.7,153 C567.4,154.1 567.3,155.2 567.3,156.4 C567.3,160.2 568.6,162.1 571.1,162.1 C573.6,162.1 574.9,160.1 574.9,156.2 L574.9,156.2 Z" id="Shape" fill="#10162F"></path>
            <path d="M583,150.8 L583,148.9 L589.6,148.9 L589.6,161.7 L593.8,161.7 L593.8,163.6 L582.6,163.6 L582.6,161.7 L587.2,161.7 L587.2,150.8 L583,150.8 L583,150.8 Z M586.8,145.1 L586.8,143.8 C586.8,143.4 587,143.1 587.3,142.9 C587.9,142.4 588.8,142.4 589.5,142.9 C589.8,143.1 590,143.4 590,143.8 L590,145.1 C590,145.5 589.8,145.8 589.5,146 C588.9,146.5 588,146.5 587.3,146 C587,145.8 586.8,145.5 586.8,145.1 L586.8,145.1 Z" id="Shape" fill="#10162F"></path>
            <path d="M605.5,148.5 C608.5,148.5 610,150.4 610,154.3 L610,163.6 L607.6,163.6 L607.6,154.6 C607.6,153.9 607.6,153.1 607.4,152.4 C607.3,152 607.2,151.6 606.9,151.3 C606.3,150.7 605.5,150.3 604.7,150.4 C603.7,150.4 602.8,150.7 602.1,151.3 C601.4,151.9 601,152.8 601,153.7 L601,163.6 L598.6,163.6 L598.6,148.9 L600.8,148.9 L600.9,150.5 C602,149.2 603.7,148.4 605.5,148.5 Z" id="Path" fill="#10162F"></path>
            <path d="M624.2,160.8 C623.9,161.6 623.3,162.3 622.6,162.8 C621.9,163.3 621,163.6 620,163.6 C618.3,163.7 616.6,162.9 615.6,161.5 C614.5,160 613.9,158.1 614,156.2 C614,153.4 614.7,151.4 616.1,150 C617.2,149 618.6,148.5 620.1,148.6 C621.8,148.6 623.3,149.5 624.1,151 L624.2,149 L626.8,149 C626.7,151.2 626.7,154.1 626.7,157.7 L626.7,161.6 C626.7,164.7 626,166.9 624.7,168 C623.4,168.9 621.9,169.5 620.2,169.6 C619,169.7 617.9,169.8 616.7,169.8 L616.5,167.9 C617.9,167.9 619.3,167.8 620.7,167.5 C621.3,167.4 622,167.1 622.5,166.7 C622.9,166.4 623.2,166 623.5,165.6 C624.1,164.4 624.3,163.1 624.3,161.7 L624.2,160.8 L624.2,160.8 Z M623.1,151.6 C622.8,151.2 622.4,150.9 622,150.8 C621.5,150.6 620.9,150.5 620.4,150.5 C619.9,150.5 619.3,150.6 618.8,150.8 C618,151.2 617.3,151.9 617,152.8 C616.7,153.7 616.5,154.7 616.5,155.7 C616.5,156.4 616.5,157.2 616.6,157.9 C616.7,158.9 617.1,159.8 617.7,160.5 C618.3,161.2 619.3,161.6 620.2,161.5 C621.7,161.6 623.2,160.7 623.7,159.2 C624,158.4 624.2,157.5 624.2,156.6 C624.2,155.9 624.2,155.2 624.1,154.5 C624,154 623.9,153.4 623.7,152.9 C623.6,152.3 623.4,151.9 623.1,151.6 L623.1,151.6 Z" id="Shape" fill="#10162F"></path>
            <path d="M531.2,26.7 C531.6,25.3 532.9,24.4 534.3,24.4 C536.2,24.4 537.2,25.7 537.5,28.4 C537.5,28.9 537.6,29.5 537.6,30.1 L537.6,39.5 L535.4,39.5 L535.4,30.4 C535.5,29.3 535.4,28.2 535.1,27.1 C535,26.8 534.8,26.5 534.5,26.4 C534.3,26.3 534.1,26.3 533.9,26.3 C533.1,26.3 532.4,26.8 532.2,27.6 C531.9,28.5 531.8,29.5 531.9,30.4 L531.9,39.5 L529.9,39.5 L529.9,30.6 C529.9,28.6 529.7,27.4 529.2,26.8 C529,26.5 528.6,26.3 528.2,26.4 C527.7,26.4 527.3,26.6 527,27 C526.4,27.9 526,28.9 526.1,30 L526.1,39.6 L523.9,39.6 L523.9,24.9 L525.8,24.9 L526,26.8 C526.2,26.2 526.6,25.6 527.1,25.1 C527.5,24.6 528.2,24.4 528.8,24.4 C529.4,24.4 530,24.6 530.5,25 C530.7,25.5 531,26 531.2,26.7 Z" id="Path" fill="#10162F"></path>
            <path d="M550,29.4 C550,27.3 549.1,26.3 547.3,26.3 C546.4,26.3 545.4,26.4 544.5,26.6 C543.8,26.7 543.1,26.9 542.4,27.2 L541.8,25.4 C543.5,24.8 545.2,24.5 547,24.5 C548.4,24.4 549.8,24.8 550.9,25.6 C551.9,26.4 552.5,27.7 552.4,29 L552.4,39.5 L550.4,39.5 L550.1,37.8 C549.5,38.4 548.7,38.9 547.9,39.3 C547.1,39.7 546.2,39.9 545.3,39.9 C544.2,39.9 543.1,39.5 542.2,38.8 C541.3,38 540.9,36.8 541,35.7 C540.9,34.5 541.5,33.3 542.6,32.7 C543.3,32.3 544.1,32 544.9,31.8 C545.7,31.6 546.8,31.5 548.1,31.3 L550.1,31.1 L550,29.4 L550,29.4 Z M550,36.2 L550,32.5 L548,32.8 C547,32.9 546.1,33.1 545.1,33.4 C544.1,33.7 543.3,34.6 543.3,35.7 C543.3,36.3 543.5,37 543.9,37.5 C544.4,38 545,38.2 545.7,38.1 C547.3,38.1 548.9,37.4 550,36.2 L550,36.2 Z" id="Shape" fill="#10162F"></path>
            <path d="M562.3,39.5 L559.8,39.5 L559.8,24.9 L561.8,24.9 L562,27.6 C562.5,26.6 563.4,25.8 564.3,25.2 C565.3,24.7 566.4,24.4 567.6,24.4 L568.8,24.4 L568.8,26.7 L567.3,26.7 C566,26.6 564.7,27 563.6,27.9 C562.6,28.8 562.1,30.1 562.2,31.4 L562.3,39.5 L562.3,39.5 Z" id="Path" fill="#10162F"></path>
            <path d="M583.3,36.7 C583,37.5 582.4,38.2 581.7,38.7 C581,39.2 580.1,39.5 579.1,39.5 C577.4,39.6 575.7,38.8 574.7,37.4 C573.6,35.9 573,34 573.1,32.1 C573.1,29.3 573.8,27.3 575.2,25.9 C576.3,24.9 577.7,24.4 579.2,24.5 C580.9,24.5 582.4,25.4 583.2,26.9 L583.3,24.9 L585.8,24.9 C585.7,27.1 585.7,30 585.7,33.6 L585.7,37.5 C585.7,40.6 585,42.8 583.7,43.9 C582.4,44.8 580.9,45.4 579.2,45.5 C578,45.6 576.9,45.7 575.7,45.7 L575.5,43.8 C576.9,43.8 578.3,43.7 579.7,43.4 C580.3,43.3 581,43 581.5,42.6 C581.9,42.3 582.2,41.9 582.5,41.5 C583.1,40.3 583.3,39 583.3,37.6 L583.3,36.7 L583.3,36.7 Z M582.1,27.5 C581.8,27.1 581.4,26.8 581,26.7 C580.5,26.5 579.9,26.4 579.4,26.4 C578.8,26.4 578.3,26.5 577.8,26.7 C577,27.1 576.3,27.8 576,28.7 C575.7,29.6 575.5,30.6 575.5,31.6 C575.5,32.3 575.5,33.1 575.6,33.8 C575.7,34.8 576.1,35.7 576.7,36.4 C577.3,37.1 578.3,37.5 579.2,37.4 C580.7,37.5 582.2,36.6 582.7,35.1 C583,34.3 583.2,33.4 583.2,32.5 C583.2,31.8 583.2,31.1 583.1,30.4 C583,29.9 582.9,29.3 582.7,28.8 C582.6,28.2 582.4,27.8 582.1,27.5 L582.1,27.5 Z" id="Shape" fill="#10162F"></path>
            <path d="M591.2,26.7 L591.2,24.8 L597.8,24.8 L597.8,37.6 L602,37.6 L602,39.5 L590.8,39.5 L590.8,37.6 L595.4,37.6 L595.4,26.7 L591.2,26.7 L591.2,26.7 Z M595,21 L595,19.7 C595,19.3 595.2,19 595.5,18.8 C596.1,18.3 597,18.3 597.7,18.8 C598,19 598.2,19.3 598.2,19.7 L598.2,21 C598.2,21.4 598,21.7 597.7,21.9 C597.1,22.4 596.2,22.4 595.5,21.9 C595.2,21.7 595,21.4 595,21 L595,21 Z" id="Shape" fill="#10162F"></path>
            <path d="M613.7,24.4 C616.7,24.4 618.2,26.3 618.2,30.2 L618.2,39.5 L615.8,39.5 L615.8,30.5 C615.8,29.8 615.8,29 615.6,28.3 C615.5,27.9 615.4,27.5 615.1,27.2 C614.5,26.6 613.7,26.2 612.9,26.3 C611.9,26.3 611,26.6 610.3,27.2 C609.6,27.8 609.2,28.7 609.2,29.6 L609.2,39.5 L606.8,39.5 L606.8,24.9 L609,24.9 L609.1,26.5 C610.2,25 611.9,24.3 613.7,24.4 Z" id="Path" fill="#10162F"></path>
            <path d="M527,90.2 C527.9,88.6 529.6,87.7 531.4,87.7 C533.1,87.6 534.8,88.4 535.7,89.8 C536.7,91.4 537.2,93.3 537.1,95.2 C537.1,98 536.4,100.1 535.1,101.6 C534.1,102.7 532.6,103.2 531.2,103.1 C530.3,103.2 529.5,102.9 528.7,102.5 C528,102 527.5,101.4 527,100.8 L527,102.8 L524.6,102.8 L524.6,82.2 L527,81.9 L527,90.2 L527,90.2 Z M527,97.2 C527.1,98.3 527.5,99.3 528.1,100.2 C529.5,101.6 531.8,101.6 533.2,100.2 C533.6,99.8 533.9,99.3 534.1,98.7 C534.4,97.8 534.5,96.8 534.5,95.9 C534.5,95.1 534.5,94.4 534.4,93.7 C534.4,92.6 534,91.6 533.4,90.7 C532.7,89.9 531.8,89.5 530.8,89.6 C529,89.4 527.4,90.7 527.1,92.5 C526.9,93.3 526.8,94.2 526.8,95.1 C527,95.7 527,96.5 527,97.2 L527,97.2 Z" id="Shape" fill="#10162F"></path>
            <path d="M551.6,89.8 C552.7,91.4 553.3,93.4 553.2,95.4 C553.3,97.4 552.7,99.4 551.5,101 C550.4,102.4 548.6,103.2 546.8,103.1 C545.8,103.1 544.9,102.9 544,102.5 C543.2,102.1 542.5,101.6 542,100.9 C540.9,99.3 540.4,97.3 540.5,95.4 C540.4,93.4 541,91.5 542.2,89.9 C543.4,88.5 545.1,87.7 547,87.8 C548.7,87.6 550.5,88.4 551.6,89.8 Z M546.8,101.2 C548.4,101.3 549.8,100.2 550.3,98.7 C550.6,97.8 550.8,96.9 550.8,95.9 C550.8,95.2 550.8,94.4 550.7,93.7 C550.6,92.6 550.2,91.6 549.5,90.7 C548.8,89.9 547.8,89.5 546.8,89.6 C545.2,89.6 543.8,90.6 543.4,92.2 C543.1,93.1 542.9,94.1 542.9,95.1 C542.8,96.6 543.1,98.1 543.7,99.5 C544.3,100.6 545.5,101.4 546.8,101.2 Z" id="Shape" fill="#10162F"></path>
            <path d="M562.3,102.8 L559.8,102.8 L559.8,88.2 L561.8,88.2 L562,90.9 C562.5,89.9 563.4,89.1 564.3,88.5 C565.3,88 566.4,87.7 567.6,87.7 L568.8,87.7 L568.8,89.9 L567.3,89.9 C566,89.8 564.7,90.2 563.6,91.1 C562.6,92 562.1,93.3 562.2,94.6 L562.3,102.8 L562.3,102.8 Z" id="Path" fill="#10162F"></path>
            <path d="M583.1,90.2 L583.1,82.2 L585.5,81.9 L585.5,102.8 L583.1,102.8 L583.1,100.5 C582.3,102.1 580.7,103.1 578.9,103.1 C577.1,103.2 575.4,102.4 574.4,100.9 C573.4,99.2 572.9,97.3 573,95.3 C573,92.6 573.7,90.6 575,89.2 C576,88.2 577.4,87.6 578.9,87.7 C579.8,87.7 580.8,87.9 581.6,88.4 C582.3,88.8 582.8,89.4 583.1,90.2 Z M583.1,95.4 C583.1,93.1 582.8,91.6 582.1,90.8 C581.4,90 580.3,89.5 579.2,89.6 C577.6,89.5 576.2,90.6 575.9,92.2 C575.6,93.3 575.5,94.4 575.5,95.6 C575.5,99.4 576.8,101.3 579.3,101.3 C581.8,101.3 583.1,99.3 583.1,95.4 Z" id="Shape" fill="#10162F"></path>
            <path d="M593.3,102.1 C592.3,101.4 591.5,100.5 591,99.3 C590.5,98.1 590.2,96.7 590.3,95.4 C590.3,94.1 590.5,92.7 591,91.5 C591.4,90.4 592.1,89.4 593,88.7 C593.9,88 594.9,87.6 596,87.6 C597.8,87.5 599.5,88.3 600.5,89.7 C601.5,91.2 602,93.1 601.9,94.9 L601.9,95.7 L592.6,95.7 C592.6,97.1 593,98.4 593.7,99.6 C594.4,100.6 595.6,101.2 596.8,101.2 C598.2,100.9 599.5,100.4 600.7,99.7 L601.5,101.3 C600.2,102.5 598.5,103.1 596.8,103 C595.6,103.2 594.3,102.8 593.3,102.1 Z M599.7,94.1 C599.5,91.1 598.5,89.6 596.5,89.6 C594.3,89.6 593.1,91.1 592.8,94.1 L599.7,94.1 Z" id="Shape" fill="#10162F"></path>
            <path d="M611.4,102.8 L609,102.8 L609,88.2 L611,88.2 L611.2,90.9 C611.7,89.9 612.6,89.1 613.5,88.5 C614.5,88 615.6,87.7 616.7,87.7 L617.9,87.7 L617.9,89.9 L616.4,89.9 C615.1,89.8 613.8,90.2 612.7,91.1 C611.7,92 611.2,93.3 611.3,94.6 L611.4,102.8 L611.4,102.8 Z" id="Path" fill="#10162F"></path>
            <path d="M1.42108547e-14,254 L1.42108547e-14,237.4 L1.3,237.3 L1.3,243.3 C1.3,243.3 1.3,243.4 1.3,243.4 C1.3,243.4 1.3,243.5 1.3,243.5 L1.3,243.8 C2.3,242.5 3.8,241.7 5.5,241.8 C8.1,241.8 9.4,243.4 9.4,246.5 L9.4,254 L8,254 L8,246.8 C8.1,245.8 7.9,244.8 7.4,243.9 C6.9,243.2 6,242.9 5.2,243 C4.3,243 3.3,243.3 2.6,243.8 C1.9,244.3 1.5,245.1 1.3,245.9 C1.3,246.2 1.3,246.6 1.3,247.2 L1.3,254 L1.42108547e-14,254 L1.42108547e-14,254 Z" id="Path" fill="#10162F"></path>
            <path d="M17.4,254.3 C15.9,254.4 14.5,253.8 13.5,252.6 C12.5,251.3 12,249.7 12,248.1 C11.9,246.5 12.4,244.9 13.4,243.7 C14.3,242.6 15.6,241.9 17.1,241.9 C18.4,241.9 19.6,242.4 20.5,243.4 C21.4,244.5 21.8,246 21.8,247.4 C21.8,247.5 21.8,247.6 21.8,247.8 C21.8,248 21.8,248.1 21.8,248.2 L13.5,248.2 C13.4,249.5 13.8,250.8 14.6,251.8 C15.3,252.7 16.4,253.2 17.5,253.2 C18.2,253.2 18.9,253.1 19.5,252.9 C20.1,252.7 20.7,252.4 21.3,252.1 L21.5,253.1 C20.2,253.9 18.8,254.3 17.4,254.3 Z M13.5,247.1 L20.3,247.1 C20.4,246 20.1,244.9 19.4,244 C18.8,243.3 17.9,242.9 17,242.9 C16,242.9 15.1,243.3 14.5,244 C13.9,245 13.5,246 13.5,247.1 Z" id="Shape" fill="#10162F"></path>
            <path d="M24.6,239.6 L24.6,237.8 L25.9,237.8 L25.9,239.6 L24.6,239.6 Z M24.6,254 L24.6,242 L26,242 L26,254 L24.6,254 Z" id="Shape" fill="#10162F"></path>
            <path d="M31.2,259.6 L31,258.4 L33.5,258.4 C34,258.4 34.5,258.4 35,258.3 C35.4,258.2 35.7,258.1 36.1,257.9 C36.4,257.7 36.7,257.5 36.9,257.3 C37.1,257 37.3,256.8 37.4,256.5 C37.5,256.2 37.6,255.8 37.7,255.4 C37.8,255 37.8,254.6 37.8,254.2 C37.8,253.8 37.8,253.4 37.8,252.8 C37.8,252.9 37.8,252.9 37.8,252.8 L37.7,252 C37.3,252.6 36.7,253.2 36.1,253.6 C35.4,254 34.6,254.2 33.8,254.2 C33.1,254.2 32.5,254.1 31.9,253.8 C31.4,253.6 30.9,253.2 30.5,252.8 C30.1,252.4 29.8,251.9 29.6,251.4 C29.4,250.9 29.2,250.4 29,249.8 C28.9,249.3 28.8,248.8 28.8,248.3 C28.8,247.7 28.9,247.1 29,246.5 C29.1,245.9 29.3,245.3 29.6,244.8 C29.9,244.3 30.2,243.8 30.6,243.4 C31,243 31.5,242.6 32.1,242.4 C32.8,242.2 33.5,242 34.2,242 C34.9,242 35.6,242.1 36.2,242.5 C36.8,242.9 37.4,243.4 37.8,244 L37.9,242.3 L39.1,242.3 L39.1,253.4 C39.1,253.9 39.1,254.3 39.1,254.6 C39.1,255 39,255.4 39,255.8 C38.9,256.2 38.8,256.6 38.7,257 C38.5,257.4 38.3,257.7 38.1,258.1 C37.8,258.5 37.5,258.8 37.1,259 C36.6,259.3 36.1,259.5 35.6,259.6 C34.9,259.8 34.2,259.8 33.5,259.8 L31.2,259.6 L31.2,259.6 Z M33.9,252.9 C34.4,252.9 34.9,252.8 35.3,252.6 C35.7,252.4 36.1,252.2 36.4,251.9 C36.7,251.6 36.9,251.3 37.1,250.9 C37.3,250.5 37.4,250.1 37.5,249.7 C37.6,249.3 37.6,248.9 37.6,248.5 L37.6,247.3 C37.6,246.8 37.5,246.2 37.4,245.7 C37.3,245.2 37,244.7 36.8,244.3 C36.5,243.9 36.1,243.5 35.6,243.3 C35.1,243 34.5,242.9 33.8,242.9 C33.3,242.9 32.8,243 32.3,243.2 C31.9,243.4 31.5,243.7 31.2,244 C30.9,244.4 30.7,244.8 30.5,245.2 C30.3,245.6 30.2,246.1 30.1,246.6 C30,247.1 30,247.6 30,248.1 C30,248.5 30,249 30.1,249.4 C30.2,249.8 30.3,250.3 30.5,250.7 C30.7,251.1 30.9,251.5 31.2,251.8 C31.5,252.1 31.9,252.4 32.3,252.6 C32.9,252.8 33.4,252.9 33.9,252.9 Z" id="Shape" fill="#10162F"></path>
            <path d="M42.1,254 L42.1,237.4 L43.4,237.3 L43.4,243.3 C43.4,243.3 43.4,243.4 43.4,243.4 C43.4,243.4 43.4,243.5 43.4,243.5 L43.4,243.8 C44.4,242.5 45.9,241.7 47.6,241.8 C50.2,241.8 51.5,243.4 51.5,246.5 L51.5,254 L50.1,254 L50.1,246.8 C50.2,245.8 50,244.8 49.5,243.9 C49,243.2 48.1,242.9 47.3,243 C46.4,243 45.4,243.3 44.7,243.8 C44,244.3 43.6,245.1 43.4,245.9 C43.4,246.2 43.4,246.6 43.4,247.2 L43.4,254 L42.1,254 L42.1,254 Z" id="Path" fill="#10162F"></path>
            <path d="M58,254.3 C57.2,254.4 56.4,254.1 55.8,253.6 C55.3,253 55,252.2 55.1,251.4 L55.1,243.1 L53.4,243.1 L53.5,242.3 L55.1,242.2 L55.5,239.5 L56.5,239.4 L56.5,242.2 L60,242.2 L60,243.2 L56.5,243.2 L56.5,251.2 C56.4,251.8 56.6,252.4 56.9,252.9 C57.3,253.2 57.8,253.4 58.4,253.3 C59,253.3 59.5,253.2 60.1,253.1 L60.2,254.1 C59.4,254.1 58.7,254.2 58,254.3 Z" id="Path" fill="#10162F"></path>
            <polygon id="Path" fill="#10162F" points="310.2 186.6 310.2 185.4 284.8 185.4 284.8 247.4 74.2 247.4 74.2 248.7 284.8 248.7 284.8 310.7 310.2 310.7 310.2 309.5 286 309.5 286 186.6"></polygon>
            <rect id="Rectangle" fill="#204056" x="197.8" y="247.4" width="62.1" height="1.2"></rect>
            <path d="M546,610.3 L542.7,598.3 L544.1,598.3 L546.9,609 C548.9,602.6 550,599.1 550.2,598.3 L551.9,598.3 C554.1,605.4 555.2,609 555.2,609 L557.8,598.4 L559.2,598.4 L555.9,610.4 L554.3,610.4 C554.3,610.4 553.8,608.7 552.8,605.4 C551.8,602.1 551.2,600.1 551,599.5 C550.9,599.9 550.6,601 550,602.8 C549.4,604.6 548.9,606.3 548.3,608 C547.8,609.6 547.5,610.4 547.5,610.4 L546,610.3 L546,610.3 Z" id="Path" fill="#10162F"></path>
            <path d="M561.2,595.9 L561.2,594.1 L562.5,594.1 L562.5,595.9 L561.2,595.9 Z M561.2,610.3 L561.2,598.3 L562.6,598.3 L562.6,610.3 L561.2,610.3 Z" id="Shape" fill="#10162F"></path>
            <path d="M570.4,610.5 C569,610.6 567.6,610 566.7,608.8 C565.7,607.5 565.3,605.9 565.4,604.2 C565.3,602.6 565.8,601 566.8,599.7 C567.7,598.6 569,597.9 570.4,598 C571.2,598 571.9,598.2 572.6,598.5 C573.3,598.8 573.9,599.3 574.3,600 L574.3,593.7 L575.6,593.6 L575.6,610.3 L574.5,610.3 L574.3,608.5 C573.9,609.2 573.3,609.7 572.6,610 C571.9,610.4 571.2,610.5 570.4,610.5 Z M570.4,609.4 C571,609.4 571.6,609.3 572.2,609 C572.7,608.8 573.1,608.4 573.4,608 C573.7,607.5 573.9,607 574.1,606.4 C574.3,605.8 574.3,605.1 574.3,604.4 C574.3,600.8 573,599.1 570.4,599.1 C569.8,599.1 569.3,599.2 568.8,599.5 C568.3,599.8 567.9,600.2 567.7,600.7 C567.4,601.2 567.2,601.8 567.1,602.3 C567,602.9 566.9,603.5 566.9,604.1 C566.9,604.6 566.9,605.2 567,605.7 C567.1,606.2 567.2,606.6 567.4,607.1 C567.6,607.5 567.8,607.9 568.1,608.2 C568.4,608.5 568.7,608.8 569.1,609 C569.4,609.4 569.9,609.5 570.4,609.4 L570.4,609.4 Z" id="Shape" fill="#10162F"></path>
            <path d="M582.2,610.5 C581.4,610.6 580.6,610.3 580,609.8 C579.5,609.2 579.2,608.4 579.3,607.6 L579.3,599.3 L577.6,599.3 L577.7,598.5 L579.3,598.3 L579.7,595.6 L580.7,595.5 L580.7,598.3 L584.2,598.3 L584.2,599.3 L580.7,599.3 L580.7,607.3 C580.6,607.9 580.8,608.5 581.1,609 C581.5,609.3 582,609.5 582.6,609.4 C583.2,609.4 583.7,609.3 584.3,609.2 L584.4,610.2 C583.5,610.4 582.9,610.5 582.2,610.5 Z" id="Path" fill="#10162F"></path>
            <path d="M586.2,610.3 L586.2,593.7 L587.5,593.6 L587.5,599.6 C587.5,599.6 587.5,599.7 587.5,599.7 C587.5,599.7 587.5,599.8 587.5,599.8 L587.5,600.1 C588.5,598.8 590,598 591.7,598.1 C594.3,598.1 595.6,599.7 595.6,602.8 L595.6,610.3 L594.3,610.3 L594.3,603.1 C594.4,602.1 594.2,601.1 593.7,600.2 C593.2,599.5 592.3,599.2 591.5,599.3 C590.6,599.3 589.6,599.6 588.9,600.1 C588.2,600.6 587.8,601.4 587.6,602.2 C587.6,602.5 587.6,602.9 587.6,603.5 L587.6,610.3 L586.2,610.3 L586.2,610.3 Z" id="Path" fill="#10162F"></path>
            <polygon id="Path" fill="#10162F" points="818.7 348.9 320.9 348.9 320.9 323.5 322.1 323.5 322.1 347.7 817.4 347.7 817.4 323.5 818.7 323.5"></polygon>
            <rect id="Rectangle" fill="#10162F" x="569.2" y="348.3" width="1.2" height="211.2"></rect>
            <rect id="Rectangle" fill="#204056" x="569.2" y="372.6" width="1.2" height="62.1"></rect>
        </g>
    </g>
</svg>