<?xml version="1.0" encoding="utf-8"?>
<!-- Generator: Adobe Illustrator 23.0.3, SVG Export Plug-In . SVG Version: 6.00 Build 0)  -->
<svg version="1.1" id="BG" xmlns="http://www.w3.org/2000/svg" xmlns:xlink="http://www.w3.org/1999/xlink" x="0px" y="0px"
	 viewBox="0 0 1214 941" style="enable-background:new 0 0 1214 941;" xml:space="preserve">
<style type="text/css">
	.st0{opacity:0.2;fill:#4E768D;enable-background:new    ;}
	.st1{fill:#4E768D;}
	.st2{fill:#FFFFFF;}
	.st3{fill:#7A98A9;}
	.st4{fill:#204056;}
</style>
<rect x="305" y="345.4" class="st0" width="620.7" height="248.3"/>
<rect x="367.1" y="407.5" class="st0" width="496.6" height="124.1"/>
<path class="st1" d="M1035,221.3h-7.4v1.2h7.4V221.3L1035,221.3z M1020.1,221.3h-7.5v1.2h7.5V221.3L1020.1,221.3z M1005.2,221.3
	h-7.5v1.2h7.5V221.3L1005.2,221.3z M990.3,221.3h-7.5v1.2h7.5V221.3L990.3,221.3z M975.4,221.3h-7.5v1.2h7.5V221.3L975.4,221.3z
	 M960.5,221.3H953v1.2h7.5L960.5,221.3L960.5,221.3L960.5,221.3z M945.6,221.3h-7.5v1.2h7.5V221.3L945.6,221.3z M930.7,221.3h-7.5
	v1.2h7.5V221.3L930.7,221.3z M915.8,221.3h-7.5v1.2h7.5V221.3L915.8,221.3z M900.9,221.3h-7.5v1.2h7.5V221.3L900.9,221.3z
	 M886,221.3h-7.5v1.2h7.5L886,221.3L886,221.3L886,221.3z M871.1,221.3h-7.5v1.2h7.5V221.3L871.1,221.3z M856.2,221.3h-7.5v1.2h7.5
	V221.3L856.2,221.3z M841.3,221.3h-7.5v1.2h7.5V221.3L841.3,221.3z M826.4,221.3H819v1.2h7.5L826.4,221.3L826.4,221.3L826.4,221.3z
	 M811.5,221.3H804v1.2h7.5V221.3L811.5,221.3z M796.6,221.3h-7.5v1.2h7.5V221.3L796.6,221.3z M781.7,221.3h-7.5v1.2h7.5V221.3
	L781.7,221.3z M766.8,221.3h-7.5v1.2h7.5V221.3L766.8,221.3z M751.9,221.3h-7.5v1.2h7.5V221.3L751.9,221.3z M737,221.3h-7.5v1.2h7.5
	L737,221.3L737,221.3L737,221.3z M722.1,221.3h-7.5v1.2h7.5V221.3L722.1,221.3z M707.2,221.3h-7.5v1.2h7.5V221.3L707.2,221.3z
	 M692.3,221.3h-7.4v1.2h7.5L692.3,221.3L692.3,221.3L692.3,221.3z M677.4,221.3H670v1.2h7.5L677.4,221.3L677.4,221.3L677.4,221.3z
	 M662.5,221.3h-7.4v1.2h7.5L662.5,221.3L662.5,221.3L662.5,221.3z M647.6,221.3h-7.5v1.2h7.5V221.3L647.6,221.3z M632.7,221.3h-7.5
	v1.2h7.5V221.3L632.7,221.3z M617.8,221.3h-7.5v1.2h7.5V221.3L617.8,221.3z M602.9,221.3h-7.5v1.2h7.6v-1.2l0,0H602.9z M588,221.3
	h-7.5v1.2h7.5V221.3L588,221.3z M573.1,221.3h-7.5v1.2h7.5V221.3L573.1,221.3z M558.2,221.3h-7.5v1.2h7.5V221.3L558.2,221.3z
	 M543.3,221.3h-7.5v1.2h7.5V221.3L543.3,221.3z M528.4,221.3H521v1.2h7.5L528.4,221.3L528.4,221.3L528.4,221.3z M513.5,221.3H506
	v1.2h7.5V221.3L513.5,221.3z M498.6,221.3h-7.5v1.2h7.5V221.3L498.6,221.3z M483.7,221.3h-7.5v1.2h7.5V221.3L483.7,221.3z
	 M468.8,221.3h-7.5v1.2h7.5V221.3L468.8,221.3z M453.9,221.3h-7.5v1.2h7.6v-1.2l0,0H453.9z M439,221.3h-7.5v1.2h7.5V221.3L439,221.3
	z M424.1,221.3h-7.5v1.2h7.5V221.3L424.1,221.3z M409.2,221.3h-7.5v1.2h7.5V221.3L409.2,221.3z M394.3,221.3H387v1.2h7.5v-1.2l0,0
	H394.3z M379.4,221.3h-7.5v1.2h7.5V221.3L379.4,221.3z M364.5,221.3H357v1.2h7.5V221.3L364.5,221.3z M349.6,221.3h-7.5v1.2h7.5
	V221.3L349.6,221.3z M334.7,221.3h-7.5v1.2h7.5V221.3L334.7,221.3z M319.8,221.3h-7.5v1.2h7.5V221.3L319.8,221.3z M304.9,221.3h-7.5
	v1.2h7.6v-1.2l0,0H304.9z M290,221.3h-7.5v1.2h7.5V221.3L290,221.3z M275.1,221.3h-7.5v1.2h7.5V221.3L275.1,221.3z M260.2,221.3
	h-7.4v1.2h7.4V221.3L260.2,221.3z M245.3,221.3H238v1.2h7.4v-1.2l0,0H245.3z M230.4,221.3h-7.3v1.2h7.4v-1.2l0,0H230.4z
	 M215.5,221.3h-7.3v1.2h7.4v-1.2l0,0H215.5z M200.6,221.3h-7.3v1.2h7.4v-1.2l0,0H200.6z M185.7,221.3h-5v1.2l0,0v1.2h1.2v-1.2h3.7
	L185.7,221.3L185.7,221.3L185.7,221.3z M182,231.2h-1.2v7.4h1.2V231.2L182,231.2z M182,246.1h-1.2v7.4h1.2V246.1L182,246.1
	L182,246.1z M182,261h-1.2v7.5h1.2V261L182,261L182,261z M182,275.9h-1.2v7.5h1.2V275.9L182,275.9L182,275.9z M182,290.8h-1.2v7.5
	h1.2V290.8L182,290.8z M182,305.7h-1.2v7.5h1.2V305.7L182,305.7z M182,320.6h-1.2v7.4h1.2V320.6L182,320.6L182,320.6z M182,335.5
	h-1.2v7.5h1.2V335.5L182,335.5z M182,350.4h-1.2v7.5h1.2V350.4L182,350.4z M182,365.3h-1.2v7.5h1.2V365.3L182,365.3z M182,380.2
	h-1.2v7.5h1.2V380.2L182,380.2z M182,395.1h-1.2v7.5h1.2V395.1L182,395.1z M182,410h-1.2v7.5h1.2V410L182,410L182,410z M182,424.9
	h-1.2v7.5h1.2V424.9L182,424.9z M182,439.8h-1.2v7.5h1.2V439.8L182,439.8z M182,454.7h-1.2v7.5h1.2V454.7L182,454.7z M182,469.6
	h-1.2v7.4h1.2V469.6L182,469.6L182,469.6z M182,484.5h-1.2v7.5h1.2V484.5L182,484.5z M182,499.4h-1.2v7.5h1.2V499.4L182,499.4z
	 M182,514.3h-1.2v7.5h1.2V514.3L182,514.3z M182,529.2h-1.2v7.5h1.2V529.2L182,529.2z M182,544.1h-1.2v7.5h1.2V544l0,0V544.1z
	 M182,559h-1.2v7.5h1.2V559L182,559z M182,573.9h-1.2v7.5h1.2V573.9L182,573.9z M182,588.8h-1.2v7.5h1.2V588.8L182,588.8z
	 M182,603.7h-1.2v7.5h1.2V603.7L182,603.7z M182,618.6h-1.2v7.4h1.2V618.6L182,618.6L182,618.6z M182,633.5h-1.2v7.5h1.2V633.5
	L182,633.5z M182,648.4h-1.2v7.5h1.2V648.4L182,648.4z M182,663.3h-1.2v7.5h1.2V663.3L182,663.3z M182,678.2h-1.2v7.5h1.2V678.2
	L182,678.2z M182,693.1h-1.2v7.5h1.2V693l0,0V693.1z M182,708h-1.2v7.5h1.2V708L182,708z M193.1,716.7h-7.4v1.2h7.4v-1.3l0,0V716.7z
	 M208,716.7h-7.4v1.2h7.4v-1.3l0,0V716.7z M222.9,716.7h-7.4v1.2h7.4v-1.3l0,0V716.7z M237.8,716.7h-7.4v1.2h7.6v-1.3l0,0
	L237.8,716.7z M252.7,716.7h-7.4v1.2h7.4v-1.3l0,0V716.7z M267.6,716.7h-7.5v1.2h7.5v-1.3l0,0V716.7z M282.5,716.7h-7.5v1.2h7.5
	v-1.3l0,0V716.7z M297.4,716.7H290v1.2h7.5v-1.3l0,0V716.7z M312.3,716.7H305v1.2h7.5v-1.3l0,0L312.3,716.7z M327.2,716.7h-7.5v1.2
	h7.5v-1.3l0,0V716.7z M342.1,716.7h-7.5v1.2h7.5v-1.3l0,0V716.7z M357,716.7h-7.5v1.2h7.5v-1.3l0,0V716.7z M371.9,716.7h-7.5v1.2
	h7.5v-1.3l0,0V716.7z M386.8,716.7h-7.5v1.2h7.6v-1.3l0,0L386.8,716.7z M401.7,716.7h-7.5v1.2h7.5v-1.3l0,0V716.7z M416.6,716.7
	h-7.5v1.2h7.5v-1.3l0,0V716.7z M431.5,716.7h-7.3v1.2h7.5v-1.3l0,0L431.5,716.7z M446.4,716.7h-7.3v1.2h7.5v-1.3l0,0L446.4,716.7z
	 M461.3,716.7H454v1.2h7.5v-1.3l0,0L461.3,716.7z M476.2,716.7h-7.5v1.2h7.5v-1.3l0,0V716.7z M491.1,716.7h-7.5v1.2h7.5v-1.3l0,0
	V716.7z M506,716.7h-7.5v1.2h7.5v-1.3l0,0V716.7z M520.9,716.7h-7.5v1.2h7.5v-1.3l0,0L520.9,716.7z M535.8,716.7h-7.5v1.2h7.5v-1.3
	l0,0V716.7z M550.7,716.7h-7.5v1.2h7.5v-1.3l0,0V716.7z M565.6,716.7h-7.5v1.2h7.5v-1.3l0,0V716.7z M580.5,716.7h-7.5v1.2h7.5v-1.3
	l0,0V716.7z M595.4,716.7H588v1.2h7.5v-1.3l0,0V716.7z M610.3,716.7H603v1.2h7.5v-1.3l0,0L610.3,716.7z M625.2,716.7h-7.5v1.2h7.5
	v-1.3l0,0V716.7z M640.1,716.7h-7.5v1.2h7.5v-1.3l0,0V716.7z M655,716.7h-7.5v1.2h7.5v-1.3l0,0V716.7z M669.9,716.7h-7.5v1.2h7.5
	v-1.3l0,0L669.9,716.7z M684.8,716.7h-7.5v1.2h7.5v-1.3l0,0V716.7z M699.7,716.7h-7.5v1.2h7.5v-1.3l0,0V716.7z M714.6,716.7h-7.5
	v1.2h7.5v-1.3l0,0V716.7z M729.5,716.7h-7.5v1.2h7.5v-1.3l0,0V716.7z M744.4,716.7H737v1.2h7.5v-1.3l0,0L744.4,716.7z M759.3,716.7
	h-7.5v1.2h7.5v-1.3l0,0V716.7z M774.2,716.7h-7.5v1.2h7.5v-1.3l0,0V716.7z M789.1,716.7h-7.5v1.2h7.5v-1.3l0,0V716.7z M804,716.7
	h-7.5v1.2h7.5v-1.3l0,0V716.7z M818.9,716.7h-7.5v1.2h7.5v-1.3l0,0L818.9,716.7z M833.8,716.7h-7.5v1.2h7.5v-1.3l0,0V716.7z
	 M848.7,716.7h-7.5v1.2h7.5v-1.3l0,0V716.7z M863.6,716.7h-7.5v1.2h7.5v-1.3l0,0V716.7z M878.5,716.7h-7.5v1.2h7.5v-1.3l0,0V716.7z
	 M893.4,716.7H886v1.2h7.5v-1.3l0,0L893.4,716.7z M908.3,716.7h-7.4v1.2h7.5v-1.3l0,0L908.3,716.7z M923.2,716.7h-7.4v1.2h7.5v-1.3
	l0,0L923.2,716.7z M938.1,716.7h-7.5v1.2h7.5v-1.3l0,0V716.7z M953,716.7h-7.5v1.2h7.4v-1.3l0,0L953,716.7z M967.9,716.7h-7.5v1.2
	h7.5v-1.3l0,0V716.7z M982.8,716.7h-7.5v1.2h7.5v-1.3l0,0V716.7z M997.7,716.7h-7.5v1.2h7.5v-1.3l0,0V716.7z M1012.6,716.7h-7.5v1.2
	h7.5v-1.3l0,0V716.7z M1027.5,716.7h-7.5v1.2h7.5v-1.3l0,0V716.7z M1042.4,716.7h-7.4v1.2h7.4v-1.3l0,0V716.7z M1049.9,710.5h-1.2
	v7.5h1.2V710.5L1049.9,710.5z M1049.9,695.6h-1.2v7.5h1.2V695.6L1049.9,695.6z M1049.9,680.7h-1.2v7.3h1.2v-7.5l0,0V680.7z
	 M1049.9,665.8h-1.2v7.5h1.2V665.8L1049.9,665.8L1049.9,665.8z M1049.9,650.9h-1.2v7.5h1.2V650.9L1049.9,650.9L1049.9,650.9z
	 M1049.9,636h-1.2v7.5h1.2V636L1049.9,636L1049.9,636z M1049.9,621.1h-1.2v7.5h1.2V621.1L1049.9,621.1L1049.9,621.1z M1049.9,606.2
	h-1.2v7.5h1.2V606.2L1049.9,606.2z M1049.9,591.3h-1.2v7.5h1.2V591.3L1049.9,591.3z M1049.9,576.4h-1.2v7.5h1.2V576.4L1049.9,576.4z
	 M1049.9,561.5h-1.2v7.5h1.2V561.5L1049.9,561.5z M1049.9,546.6h-1.2v7.4h1.2V546.6L1049.9,546.6L1049.9,546.6z M1049.9,531.7h-1.2
	v7.5h1.2V531.7L1049.9,531.7z M1049.9,516.8h-1.2v7.5h1.2V516.8L1049.9,516.8z M1049.9,501.9h-1.2v7.5h1.2V501.9L1049.9,501.9z
	 M1049.9,487h-1.2v7.5h1.2V487L1049.9,487z M1049.9,472.1h-1.2v7.5h1.2V472.1L1049.9,472.1L1049.9,472.1z M1049.9,457.2h-1.2v7.5
	h1.2V457.2L1049.9,457.2z M1049.9,442.3h-1.2v7.5h1.2V442.3L1049.9,442.3z M1049.9,427.4h-1.2v7.5h1.2V427.4L1049.9,427.4z
	 M1049.9,412.5h-1.2v7.5h1.2V412.5L1049.9,412.5z M1049.9,397.6h-1.2v7.4h1.2V397.6L1049.9,397.6L1049.9,397.6z M1049.9,382.7h-1.2
	v7.5h1.2V382.7L1049.9,382.7z M1049.9,367.8h-1.2v7.5h1.2V367.8L1049.9,367.8z M1049.9,352.9h-1.2v7.5h1.2V352.9L1049.9,352.9z
	 M1049.9,338h-1.2v7.5h1.2V338L1049.9,338L1049.9,338z M1049.9,323.1h-1.2v7.5h1.2V323.1L1049.9,323.1z M1049.9,308.2h-1.2v7.5h1.2
	V308.2L1049.9,308.2z M1049.9,293.3h-1.2v7.5h1.2V293.3L1049.9,293.3z M1049.9,278.4h-1.2v7.5h1.2V278.4L1049.9,278.4z
	 M1049.9,263.5h-1.2v7.5h1.2V263.5L1049.9,263.5z M1049.9,248.6h-1.2v7.4h1.2V248.6L1049.9,248.6L1049.9,248.6z M1049.9,233.7h-1.2
	v7.4h1.2V233.7L1049.9,233.7z M1049.9,221.3h-7.4v1.2h6.2v3.7h1.2V221.3L1049.9,221.3L1049.9,221.3z"/>
<path class="st1" d="M243,283.4v372.4h744.8V283.4H243z M925.7,593.7H305V345.4h620.7L925.7,593.7L925.7,593.7z"/>
<path class="st1" d="M848.8,407.5h-7.5v1.2h7.5V407.5L848.8,407.5z M833.9,407.5h-7.5v1.2h7.5V407.5L833.9,407.5z M819,407.5h-7.5
	v1.2h7.5L819,407.5L819,407.5L819,407.5z M804.1,407.5h-7.5v1.2h7.5V407.5L804.1,407.5z M789.2,407.5h-7.5v1.2h7.5V407.5
	L789.2,407.5z M774.3,407.5h-7.5v1.2h7.5V407.5L774.3,407.5z M759.4,407.5h-7.5v1.2h7.5V407.5L759.4,407.5z M744.5,407.5H737v1.2
	h7.5L744.5,407.5L744.5,407.5L744.5,407.5z M729.6,407.5h-7.5v1.2h7.5V407.5L729.6,407.5z M714.7,407.5h-7.5v1.2h7.5V407.5
	L714.7,407.5z M699.8,407.5h-7.5v1.2h7.5V407.5L699.8,407.5z M684.9,407.5h-7.5v1.2h7.5V407.5L684.9,407.5z M670,407.5h-7.5v1.2h7.5
	L670,407.5L670,407.5L670,407.5z M655.1,407.5h-7.5v1.2h7.5V407.5L655.1,407.5z M640.2,407.5h-7.5v1.2h7.5V407.5L640.2,407.5z
	 M625.3,407.5h-7.5v1.2h7.5V407.5L625.3,407.5z M610.4,407.5H603v1.2h7.5L610.4,407.5L610.4,407.5L610.4,407.5z M595.5,407.5H588
	v1.2h7.5V407.5L595.5,407.5z M580.6,407.5h-7.5v1.2h7.5V407.5L580.6,407.5z M565.7,407.5h-7.5v1.2h7.5V407.5L565.7,407.5z
	 M550.8,407.5h-7.5v1.2h7.5V407.5L550.8,407.5z M535.9,407.5h-7.5v1.2h7.5V407.5L535.9,407.5z M521,407.5h-7.5v1.2h7.5L521,407.5
	L521,407.5L521,407.5z M506.1,407.5h-7.5v1.2h7.5V407.5L506.1,407.5z M491.2,407.5h-7.5v1.2h7.5V407.5L491.2,407.5z M476.3,407.5
	h-7.5v1.2h7.5V407.5L476.3,407.5z M461.4,407.5H454v1.2h7.5L461.4,407.5L461.4,407.5L461.4,407.5z M446.5,407.5h-7.4v1.2h7.5
	L446.5,407.5L446.5,407.5L446.5,407.5z M431.6,407.5h-7.4v1.2h7.5L431.6,407.5L431.6,407.5L431.6,407.5z M416.7,407.5h-7.5v1.2h7.5
	V407.5L416.7,407.5z M401.8,407.5h-7.5v1.2h7.5V407.5L401.8,407.5z M386.9,407.5h-7.5v1.2h7.6v-1.2l0,0H386.9z M372,407.5h-5v1.2
	l0,0v1.3h1.2v-1.2h3.7L372,407.5L372,407.5L372,407.5z M368.2,417.4h-1.1v7.5h1.2v-7.5l0,0H368.2z M368.2,432.3h-1.1v7.5h1.2v-7.5
	l0,0H368.2z M368.2,447.2h-1.1v7.5h1.2v-7.5l0,0H368.2z M368.2,462.1h-1.1v7.5h1.2v-7.5l0,0H368.2z M368.2,477h-1.1v7.5h1.2V477l0,0
	L368.2,477z M368.2,491.9h-1.1v7.5h1.2v-7.5l0,0L368.2,491.9z M368.2,506.8h-1.1v7.5h1.2v-7.5l0,0L368.2,506.8z M368.2,521.7h-1.1
	v7.5h1.2v-7.5l0,0L368.2,521.7z M379.4,530.4H372v1.2h7.5V530.4L379.4,530.4z M394.3,530.4H387v1.2h7.5v-1.2l0,0H394.3z
	 M409.2,530.4h-7.5v1.2h7.5V530.4L409.2,530.4z M424.1,530.4h-7.5v1.2h7.5V530.4L424.1,530.4z M439,530.4h-7.5v1.2h7.5V530.4
	L439,530.4z M453.9,530.4h-7.5v1.2h7.5L453.9,530.4L453.9,530.4L453.9,530.4z M468.8,530.4h-7.5v1.2h7.5V530.4L468.8,530.4z
	 M483.7,530.4h-7.5v1.2h7.5V530.4L483.7,530.4z M498.6,530.4h-7.5v1.2h7.5V530.4L498.6,530.4z M513.5,530.4h-7.5v1.2h7.5V530.4
	L513.5,530.4z M528.4,530.4H521v1.2h7.5L528.4,530.4L528.4,530.4L528.4,530.4z M543.3,530.4h-7.5v1.2h7.5V530.4L543.3,530.4z
	 M558.2,530.4h-7.5v1.2h7.5V530.4L558.2,530.4z M573.1,530.4h-7.5v1.2h7.5V530.4L573.1,530.4z M588,530.4h-7.5v1.2h7.5V530.4
	L588,530.4z M602.9,530.4h-7.5v1.2h7.5L602.9,530.4L602.9,530.4L602.9,530.4z M617.8,530.4h-7.5v1.2h7.5V530.4L617.8,530.4z
	 M632.7,530.4h-7.5v1.2h7.5V530.4L632.7,530.4z M647.6,530.4h-7.5v1.2h7.5V530.4L647.6,530.4z M662.5,530.4h-7.4v1.2h7.5
	L662.5,530.4L662.5,530.4L662.5,530.4z M677.4,530.4H670v1.2h7.5L677.4,530.4L677.4,530.4L677.4,530.4z M692.3,530.4h-7.4v1.2h7.5
	L692.3,530.4L692.3,530.4L692.3,530.4z M707.2,530.4h-7.5v1.2h7.5V530.4L707.2,530.4z M722.1,530.4h-7.5v1.2h7.5V530.4L722.1,530.4z
	 M737,530.4h-7.5v1.2h7.4L737,530.4L737,530.4L737,530.4z M751.9,530.4h-7.5v1.2h7.5V530.4L751.9,530.4z M766.8,530.4h-7.5v1.2h7.5
	V530.4L766.8,530.4z M781.7,530.4h-7.5v1.2h7.5V530.4L781.7,530.4z M796.6,530.4h-7.5v1.2h7.5V530.4L796.6,530.4z M811.5,530.4h-7.5
	v1.2h7.5V530.4L811.5,530.4z M826.4,530.4H819v1.2h7.5L826.4,530.4L826.4,530.4L826.4,530.4z M841.3,530.4h-7.5v1.2h7.5V530.4
	L841.3,530.4z M856.2,530.4h-7.5v1.2h7.5V530.4L856.2,530.4z M863.7,524.2h-1.2v7.5h1.2V524.2L863.7,524.2z M863.7,509.3h-1.2v7.4
	h1.2V509.3L863.7,509.3L863.7,509.3z M863.7,494.4h-1.2v7.5h1.2V494.4L863.7,494.4z M863.7,479.5h-1.2v7.5h1.2V479.5L863.7,479.5z
	 M863.7,464.6h-1.2v7.4h1.2V464.6L863.7,464.6L863.7,464.6z M863.7,449.7h-1.2v7.5h1.2V449.7L863.7,449.7z M863.7,434.8h-1.2v7.5
	h1.2V434.8L863.7,434.8z M863.7,419.9h-1.2v7.5h1.2V419.9L863.7,419.9z M863.7,407.5h-7.5v1.2h6.2v3.7h1.2V407.5L863.7,407.5
	L863.7,407.5z"/>
<path class="st2" d="M578.7,477.1c-1.3,0-2.6-0.3-3.7-1c-1-0.7-1.8-1.6-2.3-2.7c-0.5-1.2-0.8-2.4-0.8-3.7c0-1,0.1-2,0.5-3
	c0.3-0.9,0.7-1.7,1.3-2.5c0.6-0.7,1.3-1.3,2.2-1.7c0.9-0.4,1.9-0.6,2.9-0.6c0.7,0,1.4,0.1,2.1,0.3c0.6,0.1,1.1,0.4,1.5,0.7l-0.5,1.2
	c-1-0.5-2.1-0.8-3.2-0.8c-1.4-0.1-2.8,0.6-3.6,1.7c-0.9,1.3-1.4,2.9-1.3,4.6c-0.1,1.6,0.4,3.1,1.3,4.4c0.9,1.1,2.2,1.7,3.6,1.7
	c1.2,0,2.4-0.3,3.4-0.8l0.2,1.2c-0.5,0.3-1,0.6-1.6,0.7C580,477,579.3,477.1,578.7,477.1z"/>
<path class="st2" d="M591.3,477.1c-1.2,0-2.5-0.3-3.5-1c-1-0.7-1.8-1.6-2.3-2.7c-0.5-1.2-0.8-2.5-0.8-3.9c0-1,0.1-2,0.5-3
	c0.3-0.9,0.7-1.7,1.3-2.4c0.6-0.7,1.3-1.2,2.1-1.6c0.9-0.4,1.8-0.6,2.8-0.6c2.5-0.1,4.8,1.4,5.8,3.7c0.5,1.2,0.8,2.5,0.8,3.9
	c0,1.3-0.2,2.7-0.8,3.9c-0.5,1.1-1.3,2-2.3,2.7C593.8,476.8,592.6,477.1,591.3,477.1z M591.4,475.8c1,0,1.9-0.3,2.7-0.9
	c0.7-0.6,1.3-1.3,1.6-2.2c0.4-1,0.5-2.1,0.5-3.2c0.1-1.6-0.4-3.2-1.2-4.5c-0.8-1.2-2.2-1.8-3.7-1.7c-1,0-1.9,0.3-2.7,0.9
	c-0.8,0.6-1.3,1.4-1.7,2.2c-0.4,1-0.5,2.1-0.5,3.2c-0.1,1.6,0.4,3.2,1.3,4.5C588.6,475.2,590,475.9,591.4,475.8z"/>
<path class="st2" d="M601.3,476.8v-14.6h1.4l0.2,2.2c0.5-0.8,1.3-1.4,2.1-1.9c0.9-0.4,1.9-0.7,2.9-0.7c1.4-0.1,2.7,0.4,3.7,1.4
	c0.9,1.3,1.3,2.9,1.2,4.4v9.1h-1.7V467c0-1-0.2-2-0.8-2.8c-0.7-0.6-1.6-0.9-2.5-0.9c-1.2-0.1-2.3,0.3-3.2,1
	c-0.8,0.6-1.4,1.5-1.6,2.5c0,0.4,0,0.9,0,1.3v8.6H601.3L601.3,476.8z"/>
<path class="st2" d="M620.7,477.1c-1,0.1-1.9-0.2-2.7-0.8c-0.6-0.8-0.9-1.7-0.8-2.7v-10.2h-2.1l0.1-1l2-0.2l0.4-3.4l1.2-0.1v3.4h4.3
	v1.2h-4.3v9.8c-0.1,0.7,0.1,1.5,0.5,2.1c0.5,0.4,1.1,0.6,1.8,0.5c0.7,0,1.4-0.1,2-0.3l0.1,1.3C622.4,476.9,621.6,477,620.7,477.1z"
	/>
<path class="st2" d="M631.6,477.1c-1.8,0.1-3.6-0.6-4.8-2c-1.3-1.5-1.9-3.5-1.8-5.5c-0.1-2,0.5-3.9,1.7-5.5c1.1-1.4,2.7-2.2,4.5-2.2
	c1.6-0.1,3.1,0.6,4.1,1.8c1.1,1.4,1.7,3.2,1.6,4.9c0,0.1,0,0.2,0,0.5s0,0.4,0,0.5h-10.2c-0.1,1.6,0.4,3.2,1.4,4.5
	c0.8,1.1,2.2,1.7,3.5,1.6c0.8,0,1.7-0.1,2.5-0.3c0.8-0.2,1.5-0.6,2.2-1l0.3,1.2C635,476.7,633.3,477.1,631.6,477.1z M626.8,468.3
	h8.3c0.1-1.3-0.3-2.7-1-3.7c-0.7-0.9-1.8-1.3-2.9-1.3c-1.2,0-2.3,0.5-3,1.4C627.3,465.7,626.9,467,626.8,468.3L626.8,468.3z"/>
<path class="st2" d="M640.2,476.8v-14.6h1.4l0.2,2.2c0.5-0.8,1.3-1.4,2.1-1.9c0.9-0.4,1.9-0.7,2.9-0.7c1.4-0.1,2.7,0.4,3.7,1.4
	c0.9,1.3,1.3,2.9,1.2,4.4v9.1h-1.7V467c0-1-0.2-2-0.8-2.8c-0.7-0.6-1.6-0.9-2.5-0.9c-1.2-0.1-2.3,0.3-3.2,1
	c-0.8,0.6-1.4,1.6-1.6,2.6c0,0.4,0,0.9,0,1.3v8.6L640.2,476.8L640.2,476.8z"/>
<path class="st2" d="M659.7,477.1c-1,0.1-1.9-0.2-2.7-0.8c-0.6-0.8-0.9-1.7-0.8-2.7v-10.2h-2.1l0.1-1l2-0.2l0.4-3.4l1.2-0.1v3.4h4.2
	v1.2h-4.3v9.8c-0.1,0.7,0.1,1.5,0.5,2.1c0.5,0.4,1.1,0.6,1.8,0.5c0.7,0,1.4-0.1,2-0.3l0.1,1.3C661.3,476.9,660.5,477,659.7,477.1z"
	/>
<path class="st3" d="M568,385.2c-0.9,0-1.7-0.2-2.5-0.6c-0.7-0.4-1.3-1-1.7-1.7v7.6l-2.4,0.3v-20.5h2.4v2c0.4-0.7,1-1.3,1.7-1.8
	c0.7-0.5,1.6-0.7,2.4-0.7c2.2-0.1,4.2,1,5.1,3c0.7,1.4,1,2.9,1,4.5c0,2.8-0.7,4.9-2,6.4C571,384.8,569.5,385.4,568,385.2z
	 M563.8,377.5c0,3.9,1.4,5.9,4.1,5.9c2.5,0,3.7-2,3.7-5.9c0-2.2-0.3-3.7-1-4.5c-0.7-0.8-1.7-1.3-2.7-1.3c-2.3,0-3.6,1.3-4,4
	C563.8,376.3,563.8,376.9,563.8,377.5L563.8,377.5z"/>
<path class="st3" d="M587,374.8c0-2.1-0.9-3.1-2.7-3.1c-0.9,0-1.9,0.1-2.8,0.3c-0.7,0.1-1.4,0.3-2.1,0.6l-0.6-1.8
	c1.7-0.6,3.4-0.9,5.2-0.9c1.4-0.1,2.8,0.3,3.9,1.1c1,0.8,1.6,2.1,1.5,3.4v10.5h-2l-0.3-1.7c-0.6,0.6-1.4,1.1-2.2,1.5
	c-0.8,0.4-1.7,0.6-2.6,0.6c-1.1,0-2.2-0.4-3.1-1.1c-0.9-0.8-1.3-2-1.2-3.1c-0.1-1.2,0.5-2.4,1.6-3c0.7-0.4,1.5-0.7,2.3-0.9
	c0.8-0.2,1.9-0.3,3.2-0.5l2-0.2L587,374.8L587,374.8z M587,381.6v-3.7l-2,0.3c-1,0.1-1.9,0.3-2.9,0.6c-1,0.3-1.8,1.2-1.8,2.3
	c0,0.6,0.2,1.3,0.6,1.8c0.5,0.5,1.1,0.7,1.8,0.6C584.3,383.5,585.9,382.8,587,381.6L587,381.6z"/>
<path class="st3" d="M603.7,372.3v-8l2.4-0.3v20.9h-2.4v-2.3c-0.8,1.6-2.4,2.6-4.2,2.6c-1.8,0.1-3.5-0.7-4.5-2.2
	c-1-1.7-1.5-3.6-1.4-5.6c0-2.7,0.7-4.7,2-6.1c1-1,2.4-1.6,3.9-1.5c0.9,0,1.9,0.2,2.7,0.7C602.9,370.9,603.4,371.6,603.7,372.3z
	 M603.7,377.5c0-2.3-0.3-3.8-1-4.6c-0.7-0.8-1.8-1.3-2.9-1.2c-1.6-0.1-3,1-3.3,2.6c-0.3,1.1-0.4,2.2-0.4,3.4c0,3.8,1.3,5.7,3.8,5.7
	C602.4,383.4,603.7,381.4,603.7,377.5L603.7,377.5z"/>
<path class="st3" d="M620.1,372.3v-8l2.4-0.3v20.9h-2.4v-2.3c-0.8,1.6-2.4,2.6-4.2,2.6c-1.8,0.1-3.5-0.7-4.5-2.2
	c-1-1.7-1.5-3.6-1.4-5.6c-0.2-2.2,0.6-4.4,2-6.1c1-1,2.4-1.6,3.9-1.5c0.9,0,1.9,0.2,2.7,0.7C619.3,370.9,619.8,371.6,620.1,372.3z
	 M620.1,377.5c0-2.3-0.3-3.8-1-4.6c-0.7-0.8-1.8-1.3-2.9-1.2c-1.6-0.1-3,1-3.3,2.6c-0.3,1.1-0.4,2.2-0.4,3.4c0,3.8,1.3,5.7,3.8,5.7
	C618.8,383.4,620.1,381.4,620.1,377.5L620.1,377.5z"/>
<path class="st3" d="M628.2,372.1v-1.9h6.6V383h4.2v1.9h-11.2V383h4.6v-10.9H628.2L628.2,372.1z M632,366.4v-1.3
	c0-0.4,0.2-0.7,0.5-0.9c0.6-0.5,1.5-0.5,2.2,0c0.3,0.2,0.5,0.5,0.5,0.9v1.3c0,0.4-0.2,0.7-0.5,0.9c-0.6,0.5-1.5,0.5-2.2,0
	C632.2,367.1,632,366.8,632,366.4L632,366.4z"/>
<path class="st3" d="M650.7,369.8c3,0,4.5,1.9,4.5,5.8v9.3h-2.4v-9c0-0.7,0-1.5-0.2-2.2c-0.1-0.4-0.2-0.8-0.5-1.1
	c-0.6-0.6-1.4-1-2.2-0.9c-1,0-1.9,0.3-2.6,0.9c-0.7,0.6-1.1,1.5-1.1,2.4v9.9h-2.4v-14.7h2.2l0.1,1.6
	C647.2,370.5,648.9,369.7,650.7,369.8z"/>
<path class="st3" d="M669.4,382.1c-0.3,0.8-0.9,1.5-1.6,2c-0.7,0.5-1.6,0.8-2.6,0.8c-1.7,0.1-3.4-0.7-4.4-2.1
	c-1.1-1.5-1.7-3.4-1.6-5.3c0-2.8,0.7-4.8,2.1-6.2c1.1-1,2.5-1.5,4-1.4c1.7,0,3.2,0.9,4,2.4l0.1-2h2.6c-0.1,2.2-0.1,5.1-0.1,8.7v3.9
	c0,3.1-0.7,5.3-2,6.4c-1.3,0.9-2.8,1.5-4.5,1.6c-1.2,0.1-2.3,0.2-3.5,0.2l-0.2-1.9c1.4,0,2.8-0.1,4.2-0.4c0.6-0.1,1.3-0.4,1.8-0.8
	c0.4-0.3,0.7-0.7,1-1.1c0.6-1.2,0.8-2.5,0.8-3.9L669.4,382.1L669.4,382.1z M668.3,372.9c-0.3-0.4-0.7-0.7-1.1-0.8
	c-0.5-0.2-1.1-0.3-1.6-0.3c-0.5,0-1.1,0.1-1.6,0.3c-0.8,0.4-1.5,1.1-1.8,2c-0.3,0.9-0.5,1.9-0.5,2.9c0,0.7,0,1.5,0.1,2.2
	c0.1,1,0.5,1.9,1.1,2.6c0.6,0.7,1.6,1.1,2.5,1c1.5,0.1,3-0.8,3.5-2.3c0.3-0.8,0.5-1.7,0.5-2.6c0-0.7,0-1.4-0.1-2.1
	c-0.1-0.5-0.2-1.1-0.4-1.6C668.8,373.6,668.6,373.2,668.3,372.9L668.3,372.9z"/>
<path class="st3" d="M576.4,248c0.4-1.4,1.7-2.3,3.1-2.3c1.9,0,2.9,1.3,3.2,4c0,0.5,0.1,1.1,0.1,1.7v9.4h-2.2v-9.1
	c0.1-1.1,0-2.2-0.3-3.3c-0.1-0.3-0.3-0.6-0.6-0.7c-0.2-0.1-0.4-0.1-0.6-0.1c-0.8,0-1.5,0.5-1.7,1.3c-0.3,0.9-0.4,1.9-0.3,2.8v9.1h-2
	v-8.9c0-2-0.2-3.2-0.7-3.8c-0.2-0.3-0.6-0.5-1-0.4c-0.5,0-0.9,0.2-1.2,0.6c-0.6,0.9-1,1.9-0.9,3v9.6h-2.2v-14.7h1.9l0.2,1.9
	c0.2-0.6,0.6-1.2,1.1-1.7c0.4-0.5,1.1-0.7,1.7-0.7c0.6,0,1.2,0.2,1.7,0.6C575.9,246.8,576.2,247.3,576.4,248z"/>
<path class="st3" d="M595.2,250.7c0-2.1-0.9-3.1-2.7-3.1c-0.9,0-1.9,0.1-2.8,0.3c-0.7,0.1-1.4,0.3-2.1,0.6l-0.6-1.8
	c1.7-0.6,3.4-0.9,5.2-0.9c1.4-0.1,2.8,0.3,3.9,1.1c1,0.8,1.6,2.1,1.5,3.4v10.5h-2l-0.3-1.7c-0.6,0.6-1.4,1.1-2.2,1.5
	c-0.8,0.4-1.7,0.6-2.6,0.6c-1.1,0-2.2-0.4-3.1-1.1c-0.9-0.8-1.3-2-1.2-3.1c-0.1-1.2,0.5-2.4,1.6-3c0.7-0.4,1.5-0.7,2.3-0.9
	c0.8-0.2,1.9-0.3,3.2-0.5l2-0.2L595.2,250.7L595.2,250.7z M595.2,257.5v-3.7l-2,0.3c-1,0.1-1.9,0.3-2.9,0.6c-1,0.3-1.8,1.2-1.8,2.3
	c0,0.6,0.2,1.3,0.6,1.8c0.5,0.5,1.1,0.7,1.8,0.6C592.5,259.4,594.1,258.7,595.2,257.5L595.2,257.5z"/>
<path class="st3" d="M607.5,260.8H605v-14.6h2l0.2,2.7c0.5-1,1.4-1.8,2.3-2.4c1-0.5,2.1-0.8,3.3-0.8h1.2v2.3h-1.5
	c-1.3-0.1-2.6,0.3-3.7,1.2c-1,0.9-1.5,2.2-1.4,3.5L607.5,260.8L607.5,260.8z"/>
<path class="st3" d="M628.5,258c-0.3,0.8-0.9,1.5-1.6,2c-0.7,0.5-1.6,0.8-2.6,0.8c-1.7,0.1-3.4-0.7-4.4-2.1
	c-1.1-1.5-1.7-3.4-1.6-5.3c0-2.8,0.7-4.8,2.1-6.2c1.1-1,2.5-1.5,4-1.4c1.7,0,3.2,0.9,4,2.4l0.1-2h2.5c-0.1,2.2-0.1,5.1-0.1,8.7v3.9
	c0,3.1-0.7,5.3-2,6.4c-1.3,0.9-2.8,1.5-4.5,1.6c-1.2,0.1-2.3,0.2-3.5,0.2l-0.2-1.9c1.4,0,2.8-0.1,4.2-0.4c0.6-0.1,1.3-0.4,1.8-0.8
	c0.4-0.3,0.7-0.7,1-1.1c0.6-1.2,0.8-2.5,0.8-3.9L628.5,258L628.5,258z M627.3,248.8c-0.3-0.4-0.7-0.7-1.1-0.8
	c-0.5-0.2-1.1-0.3-1.6-0.3c-0.6,0-1.1,0.1-1.6,0.3c-0.8,0.4-1.5,1.1-1.8,2c-0.3,0.9-0.5,1.9-0.5,2.9c0,0.7,0,1.5,0.1,2.2
	c0.1,1,0.5,1.9,1.1,2.6c0.6,0.7,1.6,1.1,2.5,1c1.5,0.1,3-0.8,3.5-2.3c0.3-0.8,0.5-1.7,0.5-2.6c0-0.7,0-1.4-0.1-2.1
	c-0.1-0.5-0.2-1.1-0.4-1.6C627.8,249.5,627.6,249.1,627.3,248.8L627.3,248.8z"/>
<path class="st3" d="M636.4,248v-1.9h6.6v12.8h4.2v1.9h-11.2v-1.9h4.6V248H636.4L636.4,248z M640.2,242.3V241c0-0.4,0.2-0.7,0.5-0.9
	c0.6-0.5,1.5-0.5,2.2,0c0.3,0.2,0.5,0.5,0.5,0.9v1.3c0,0.4-0.2,0.7-0.5,0.9c-0.6,0.5-1.5,0.5-2.2,0
	C640.4,243,640.2,242.7,640.2,242.3L640.2,242.3z"/>
<path class="st3" d="M658.9,245.7c3,0,4.5,1.9,4.5,5.8v9.3H661v-9c0-0.7,0-1.5-0.2-2.2c-0.1-0.4-0.2-0.8-0.5-1.1
	c-0.6-0.6-1.4-1-2.2-0.9c-1,0-1.9,0.3-2.6,0.9c-0.7,0.6-1.1,1.5-1.1,2.4v9.9H652v-14.6h2.2l0.1,1.6
	C655.4,246.3,657.1,245.6,658.9,245.7z"/>
<path class="st2" d="M525,134.1v-20h-6.8v-1.6h15.5v1.6h-6.8v20H525z"/>
<path class="st2" d="M536,134.1V112l1.8-0.2v8c0,0,0,0.1,0,0.1c0,0.1,0,0.1,0,0.2v0.4c1.3-1.8,3.4-2.8,5.6-2.7
	c3.5,0,5.2,2.1,5.2,6.3v10h-1.8v-9.6c0.1-1.3-0.2-2.7-0.8-3.9c-0.7-0.9-1.8-1.3-2.9-1.2c-1.2,0-2.5,0.3-3.5,1.1
	c-0.9,0.7-1.5,1.7-1.7,2.8c0,0.4,0,1,0,1.7v9L536,134.1L536,134.1z"/>
<path class="st2" d="M559.2,134.5c-2,0.1-3.9-0.7-5.2-2.2c-1.4-1.7-2.1-3.8-1.9-6c-0.1-2.2,0.6-4.3,1.9-6c1.2-1.5,3-2.4,4.9-2.4
	c1.7-0.1,3.4,0.7,4.5,2c1.2,1.5,1.8,3.4,1.7,5.4c0,0.1,0,0.3,0,0.5s0,0.5,0,0.6h-11.1c-0.1,1.7,0.4,3.5,1.5,4.9
	c0.9,1.2,2.3,1.8,3.8,1.8c0.9,0,1.8-0.1,2.7-0.4c0.8-0.3,1.6-0.6,2.4-1l0.3,1.4C563,134,561.1,134.5,559.2,134.5z M554,124.9h9
	c0.1-1.5-0.3-2.9-1.2-4.1c-0.8-0.9-1.9-1.5-3.2-1.4c-1.3,0-2.5,0.5-3.3,1.5C554.5,122.1,554.1,123.5,554,124.9z"/>
<path class="st2" d="M575.9,134.1v-21.6h5.9c2.7,0,4.6,0.4,5.9,1.3c1.3,1,2,2.5,1.8,4.1c0,0.2,0,0.4,0,0.5c0,0.1,0,0.3-0.1,0.6
	c0,0.3-0.1,0.5-0.2,0.8c-0.1,0.3-0.2,0.5-0.4,0.8c-0.2,0.3-0.4,0.6-0.6,0.8c-0.3,0.3-0.6,0.5-1,0.7c-0.4,0.2-0.9,0.4-1.3,0.6
	c1.4,0.1,2.6,0.8,3.5,1.8c0.8,1,1.2,2.2,1.2,3.5c0.1,1.7-0.6,3.3-1.8,4.5c-1.2,1.1-3.1,1.6-5.6,1.6L575.9,134.1L575.9,134.1z
	 M577.7,122.1h5c0.7,0,1.3,0,2-0.2c0.5-0.1,1.1-0.3,1.5-0.6c0.5-0.3,0.8-0.8,1-1.3c0.2-0.6,0.4-1.3,0.3-2c0.1-1.2-0.4-2.4-1.4-3.2
	c-1.4-0.7-2.9-1-4.4-0.9h-4L577.7,122.1L577.7,122.1z M577.7,132.7h5c3.9,0,5.9-1.5,5.9-4.6c0.1-1.4-0.5-2.7-1.6-3.5
	c-1.6-0.8-3.3-1.1-5.1-1h-4.2V132.7L577.7,132.7z"/>
<path class="st2" d="M600.2,134.5c-1.4,0-2.7-0.4-3.8-1.1c-1.1-0.7-2-1.8-2.5-3c-0.6-1.3-0.9-2.8-0.9-4.2c0-1.1,0.2-2.2,0.5-3.3
	c0.3-1,0.8-1.9,1.4-2.6c0.6-0.7,1.4-1.3,2.3-1.8c1-0.4,2-0.6,3.1-0.6c2.8-0.1,5.3,1.6,6.4,4.1c0.6,1.3,0.8,2.8,0.8,4.2
	c0,1.5-0.3,2.9-0.8,4.3c-0.5,1.2-1.4,2.3-2.5,3C603,134.2,601.6,134.6,600.2,134.5z M600.4,133.1c1.1,0,2.1-0.3,3-0.9
	c0.8-0.6,1.4-1.5,1.8-2.4c0.4-1.1,0.6-2.3,0.5-3.5c0.1-1.8-0.4-3.5-1.3-5c-0.9-1.3-2.4-2-4-1.9c-1.1,0-2.1,0.3-3,0.9
	c-0.8,0.6-1.4,1.5-1.8,2.5c-0.4,1.1-0.6,2.3-0.6,3.5c-0.1,1.7,0.4,3.5,1.4,4.9C597.2,132.4,598.8,133.1,600.4,133.1z"/>
<path class="st2" d="M609.1,134.1l6-8.1l-5.8-7.9h2l4.7,6.6l4.6-6.6h2l-5.8,7.9l5.9,8h-1.9l-4.8-6.8l-4.8,6.8L609.1,134.1
	L609.1,134.1z"/>
<path class="st2" d="M632.6,134.1v-21.6h2.6l8,18.3l7.8-18.3h2.5v21.7h-1.8v-14.6l0.1-4.9l-0.5,1.8l-7.1,16.5h-2l-7.2-16.5l-0.6-1.8
	l0.1,5v14.5L632.6,134.1L632.6,134.1z"/>
<path class="st2" d="M664.8,134.5c-1.4,0-2.7-0.4-3.8-1.1c-1.1-0.7-2-1.8-2.5-3c-0.6-1.3-0.9-2.8-0.9-4.2c0-1.1,0.2-2.2,0.5-3.3
	c0.3-1,0.8-1.9,1.4-2.6c0.6-0.7,1.4-1.3,2.3-1.8c1-0.4,2-0.6,3.1-0.6c2.7-0.1,5.3,1.5,6.3,4.1c0.6,1.3,0.8,2.8,0.8,4.2
	c0,1.5-0.3,2.9-0.8,4.2c-0.5,1.2-1.4,2.3-2.5,3C667.6,134.1,666.2,134.5,664.8,134.5z M665,133.1c1.1,0,2.1-0.3,3-0.9
	c0.8-0.6,1.4-1.5,1.8-2.4c0.4-1.1,0.6-2.3,0.5-3.5c0.1-1.8-0.4-3.5-1.3-5c-0.9-1.3-2.4-2-4-1.9c-1.1,0-2.1,0.3-3,0.9
	c-0.8,0.6-1.4,1.5-1.8,2.5c-0.4,1.1-0.6,2.3-0.6,3.5c-0.1,1.7,0.4,3.5,1.4,4.9C661.9,132.4,663.4,133.2,665,133.1L665,133.1z"/>
<path class="st2" d="M681.7,134.5c-1.9,0.1-3.8-0.7-5-2.2c-1.3-1.8-1.9-3.9-1.8-6.1c-0.1-2.2,0.5-4.3,1.8-6c1.2-1.5,3-2.3,4.8-2.3
	c1,0,2.1,0.2,3,0.6c1,0.4,1.7,1.1,2.2,2V112l1.8-0.2v22.3h-1.5l-0.3-2.4c-0.5,0.9-1.3,1.6-2.2,2
	C683.7,134.2,682.7,134.5,681.7,134.5z M681.7,133.1c0.8,0,1.6-0.1,2.4-0.5c0.7-0.3,1.2-0.8,1.6-1.4c0.4-0.6,0.7-1.3,0.9-2.1
	c0.2-0.9,0.3-1.7,0.3-2.6c0-4.7-1.7-7.1-5.2-7.1c-0.8,0-1.5,0.2-2.2,0.6c-0.6,0.4-1.1,0.9-1.5,1.6c-0.4,0.7-0.6,1.4-0.8,2.2
	c-0.2,0.8-0.3,1.6-0.3,2.5c0,0.7,0.1,1.4,0.2,2.1c0.1,0.6,0.3,1.3,0.5,1.9c0.2,0.6,0.5,1.1,0.9,1.5c0.4,0.4,0.8,0.8,1.3,1
	C680.4,132.9,681.1,133.1,681.7,133.1L681.7,133.1z"/>
<path class="st2" d="M699.4,134.5c-2,0.1-3.9-0.7-5.2-2.2c-1.4-1.7-2.1-3.8-1.9-6c-0.1-2.2,0.6-4.3,1.9-6c1.2-1.5,3-2.4,4.9-2.4
	c1.7-0.1,3.4,0.7,4.5,2c1.2,1.5,1.8,3.4,1.7,5.4c0,0.1,0,0.3,0,0.5s0,0.5,0,0.6h-11.1c-0.1,1.7,0.4,3.5,1.5,4.9
	c0.9,1.2,2.3,1.8,3.8,1.8c0.9,0,1.8-0.1,2.7-0.4c0.8-0.3,1.6-0.6,2.4-1l0.3,1.4C703.2,134,701.3,134.5,699.4,134.5z M694.1,124.9
	h9.1c0.1-1.5-0.3-2.9-1.2-4.1c-0.8-0.9-1.9-1.5-3.2-1.4c-1.3,0-2.5,0.5-3.3,1.5C694.7,122.1,694.2,123.5,694.1,124.9L694.1,124.9z"
	/>
<path class="st2" d="M712.8,134.5c-1.1,0.1-2.1-0.2-2.9-0.9c-0.7-0.8-1-1.9-0.9-3V112l1.8-0.2v18.7c-0.1,0.7,0.1,1.4,0.5,2
	c0.4,0.4,1,0.6,1.6,0.6c0.7,0,1.5-0.1,2.2-0.3l0.1,1.4C714.4,134.3,713.6,134.5,712.8,134.5z"/>
<path class="st4" d="M572.2,311.5c0.9-1.6,2.6-2.5,4.4-2.5c1.7-0.1,3.4,0.7,4.3,2.1c1,1.6,1.5,3.5,1.4,5.4c0,2.8-0.7,4.9-2,6.4
	c-1,1.1-2.5,1.6-3.9,1.5c-0.9,0.1-1.7-0.2-2.5-0.6c-0.7-0.5-1.2-1.1-1.7-1.7v2h-2.4v-20.6l2.4-0.3L572.2,311.5L572.2,311.5z
	 M572.2,318.5c0.1,1.1,0.5,2.1,1.1,3c1.4,1.4,3.7,1.4,5.1,0c0.4-0.4,0.7-0.9,0.9-1.5c0.3-0.9,0.4-1.9,0.4-2.8c0-0.8,0-1.5-0.1-2.2
	c0-1.1-0.4-2.1-1-3c-0.7-0.8-1.6-1.2-2.6-1.1c-1.8-0.2-3.4,1.1-3.7,2.9c-0.2,0.8-0.3,1.7-0.3,2.6C572.2,317,572.2,317.8,572.2,318.5
	L572.2,318.5z"/>
<path class="st4" d="M596.8,311.1c1.1,1.6,1.7,3.6,1.6,5.6c0.1,2-0.5,4-1.7,5.6c-1.1,1.4-2.9,2.2-4.7,2.1c-1,0-1.9-0.2-2.8-0.6
	c-0.8-0.4-1.5-0.9-2-1.6c-1.1-1.6-1.6-3.6-1.5-5.5c-0.1-2,0.5-3.9,1.7-5.5c1.2-1.4,2.9-2.2,4.8-2.1
	C593.9,308.9,595.7,309.7,596.8,311.1z M592,322.5c1.6,0.1,3-1,3.5-2.5c0.3-0.9,0.5-1.8,0.5-2.8c0-0.7,0-1.5-0.1-2.2
	c-0.1-1.1-0.5-2.1-1.2-3c-0.7-0.8-1.7-1.2-2.7-1.1c-1.6,0-3,1-3.4,2.6c-0.3,0.9-0.5,1.9-0.5,2.9c-0.1,1.5,0.2,3,0.8,4.4
	C589.5,321.9,590.7,322.7,592,322.5z"/>
<path class="st4" d="M607.5,324.1H605v-14.6h2l0.2,2.7c0.5-1,1.4-1.8,2.3-2.4c1-0.5,2.1-0.8,3.3-0.8h1.2v2.2h-1.5
	c-1.3-0.1-2.6,0.3-3.7,1.2c-1,0.9-1.5,2.2-1.4,3.5L607.5,324.1L607.5,324.1z"/>
<path class="st4" d="M628.3,311.5v-8l2.4-0.3v20.9h-2.4v-2.3c-0.8,1.6-2.4,2.6-4.2,2.6c-1.8,0.1-3.5-0.7-4.5-2.2
	c-1-1.7-1.5-3.6-1.4-5.6c0-2.7,0.7-4.7,2-6.1c1-1,2.4-1.6,3.9-1.5c0.9,0,1.9,0.2,2.7,0.7C627.5,310.1,628,310.7,628.3,311.5z
	 M628.3,316.7c0-2.3-0.3-3.8-1-4.6c-0.7-0.8-1.8-1.3-2.9-1.2c-1.6-0.1-3,1-3.3,2.6c-0.3,1.1-0.4,2.2-0.4,3.4c0,3.8,1.3,5.7,3.8,5.7
	S628.3,320.6,628.3,316.7z"/>
<path class="st4" d="M638.5,323.4c-1-0.7-1.8-1.6-2.3-2.8c-0.5-1.2-0.8-2.6-0.7-3.9c0-1.3,0.2-2.7,0.7-3.9c0.4-1.1,1.1-2.1,2-2.8
	c0.9-0.7,1.9-1.1,3-1.1c1.8-0.1,3.5,0.7,4.5,2.1c1,1.5,1.5,3.4,1.4,5.2v0.8h-9.3c0,1.4,0.4,2.7,1.1,3.9c0.7,1,1.9,1.6,3.1,1.6
	c1.4-0.3,2.7-0.8,3.9-1.5l0.8,1.6c-1.3,1.2-3,1.8-4.7,1.7C640.8,324.5,639.5,324.1,638.5,323.4z M644.9,315.4
	c-0.2-3-1.2-4.5-3.2-4.5c-2.2,0-3.4,1.5-3.7,4.5H644.9z"/>
<path class="st4" d="M656.6,324.1h-2.4v-14.6h2l0.2,2.7c0.5-1,1.4-1.8,2.3-2.4c1-0.5,2.1-0.8,3.2-0.8h1.2v2.2h-1.5
	c-1.3-0.1-2.6,0.3-3.7,1.2c-1,0.9-1.5,2.2-1.4,3.5L656.6,324.1L656.6,324.1z"/>
<path class="st3" d="M45.2,475.3v-16.6l1.3-0.1v6c0,0,0,0.1,0,0.1c0,0,0,0.1,0,0.1v0.3c1-1.3,2.5-2.1,4.2-2c2.6,0,3.9,1.6,3.9,4.7
	v7.5h-1.4v-7.2c0.1-1-0.1-2-0.6-2.9c-0.5-0.7-1.4-1-2.2-0.9c-0.9,0-1.9,0.3-2.6,0.8c-0.7,0.5-1.1,1.3-1.3,2.1c0,0.3,0,0.7,0,1.3v6.8
	H45.2z"/>
<path class="st3" d="M62.6,475.6c-1.5,0.1-2.9-0.5-3.9-1.7c-1-1.3-1.5-2.9-1.5-4.5c-0.1-1.6,0.4-3.2,1.4-4.4
	c0.9-1.1,2.2-1.8,3.7-1.8c1.3,0,2.5,0.5,3.4,1.5c0.9,1.1,1.3,2.6,1.3,4c0,0.1,0,0.2,0,0.4s0,0.3,0,0.4h-8.3
	c-0.1,1.3,0.3,2.6,1.1,3.6c0.7,0.9,1.8,1.4,2.9,1.4c0.7,0,1.4-0.1,2-0.3c0.6-0.2,1.2-0.5,1.8-0.8l0.2,1
	C65.4,475.2,64,475.6,62.6,475.6z M58.7,468.4h6.8c0.1-1.1-0.2-2.2-0.9-3.1c-0.6-0.7-1.5-1.1-2.4-1.1c-1,0-1.9,0.4-2.5,1.1
	C59.1,466.3,58.7,467.3,58.7,468.4z"/>
<path class="st3" d="M69.8,460.9v-1.8h1.3v1.8H69.8z M69.8,475.3v-12h1.4v12H69.8z"/>
<path class="st3" d="M76.4,480.9l-0.2-1.2h2.5c0.5,0,1,0,1.5-0.1c0.4-0.1,0.7-0.2,1.1-0.4c0.3-0.2,0.6-0.4,0.8-0.6
	c0.2-0.3,0.4-0.5,0.5-0.8c0.1-0.3,0.2-0.7,0.3-1.1c0.1-0.4,0.1-0.8,0.1-1.2s0-0.8,0-1.4c0,0.1,0,0.1,0,0l-0.1-0.8
	c-0.4,0.6-1,1.2-1.6,1.6c-0.7,0.4-1.5,0.6-2.3,0.6c-0.7,0-1.3-0.1-1.9-0.4c-0.5-0.2-1-0.6-1.4-1c-0.4-0.4-0.7-0.9-0.9-1.4
	c-0.2-0.5-0.4-1-0.6-1.6c-0.1-0.5-0.2-1-0.2-1.5c0-0.6,0.1-1.2,0.2-1.8c0.1-0.6,0.3-1.2,0.6-1.7c0.3-0.5,0.6-1,1-1.4
	c0.4-0.4,0.9-0.8,1.5-1c0.7-0.2,1.4-0.4,2.1-0.4c0.7,0,1.4,0.1,2,0.5c0.6,0.4,1.2,0.9,1.6,1.5l0.1-1.7h1.2v11.1c0,0.5,0,0.9,0,1.2
	c0,0.4-0.1,0.8-0.1,1.2c-0.1,0.4-0.2,0.8-0.3,1.2c-0.2,0.4-0.4,0.7-0.6,1.1c-0.3,0.4-0.6,0.7-1,0.9c-0.5,0.3-1,0.5-1.5,0.6
	c-0.7,0.2-1.4,0.2-2.1,0.2L76.4,480.9L76.4,480.9z M79.1,474.2c0.5,0,1-0.1,1.4-0.3c0.4-0.2,0.8-0.4,1.1-0.7c0.3-0.3,0.5-0.6,0.7-1
	c0.2-0.4,0.3-0.8,0.4-1.2c0.1-0.4,0.1-0.8,0.1-1.2v-1.2c0-0.5-0.1-1.1-0.2-1.6c-0.1-0.5-0.4-1-0.6-1.4c-0.3-0.4-0.7-0.8-1.2-1
	c-0.5-0.3-1.1-0.4-1.8-0.4c-0.5,0-1,0.1-1.5,0.3c-0.4,0.2-0.8,0.5-1.1,0.8c-0.3,0.4-0.5,0.8-0.7,1.2c-0.2,0.4-0.3,0.9-0.4,1.4
	c-0.1,0.5-0.1,1-0.1,1.5c0,0.4,0,0.9,0.1,1.3c0.1,0.4,0.2,0.9,0.4,1.3c0.2,0.4,0.4,0.8,0.7,1.1c0.3,0.3,0.7,0.6,1.1,0.8
	C78.1,474.1,78.6,474.2,79.1,474.2z"/>
<path class="st3" d="M87.3,475.3v-16.6l1.3-0.1v6c0,0,0,0.1,0,0.1c0,0,0,0.1,0,0.1v0.3c1-1.3,2.5-2.1,4.2-2c2.6,0,3.9,1.6,3.9,4.7
	v7.5h-1.4v-7.2c0.1-1-0.1-2-0.6-2.9c-0.5-0.7-1.4-1-2.2-0.9c-0.9,0-1.9,0.3-2.6,0.8c-0.7,0.5-1.1,1.3-1.3,2.1c0,0.3,0,0.7,0,1.3v6.8
	H87.3z"/>
<path class="st3" d="M103.2,475.6c-0.8,0.1-1.6-0.2-2.2-0.7c-0.5-0.6-0.8-1.4-0.7-2.2v-8.3h-1.7l0.1-0.8l1.6-0.1l0.4-2.7l1-0.1v2.8
	h3.5v1h-3.5v8c-0.1,0.6,0.1,1.2,0.4,1.7c0.4,0.3,0.9,0.5,1.5,0.4c0.6,0,1.1-0.1,1.7-0.2l0.1,1C104.6,475.4,103.9,475.5,103.2,475.6z
	"/>
<polygon class="st1" points="355.4,407.9 355.4,406.7 330,406.7 330,468.7 119.4,468.7 119.4,470 330,470 330,532 355.4,532 
	355.4,530.8 331.2,530.8 331.2,407.9 "/>
<rect x="243" y="468.7" class="st4" width="62.1" height="1.2"/>
<path class="st3" d="M591.2,831.6l-3.3-12h1.4l2.8,10.7c2-6.4,3.1-9.9,3.3-10.7h1.7c2.2,7.1,3.3,10.7,3.3,10.7l2.6-10.6h1.4l-3.3,12
	h-1.6c0,0-0.5-1.7-1.5-5s-1.6-5.3-1.8-5.9c-0.1,0.4-0.4,1.5-1,3.3c-0.6,1.8-1.1,3.5-1.7,5.2c-0.5,1.6-0.8,2.4-0.8,2.4L591.2,831.6
	L591.2,831.6z"/>
<path class="st3" d="M606.4,817.2v-1.8h1.3v1.8H606.4z M606.4,831.6v-12h1.4v12H606.4z"/>
<path class="st3" d="M615.6,831.8c-1.4,0.1-2.8-0.5-3.7-1.7c-1-1.3-1.4-2.9-1.3-4.6c-0.1-1.6,0.4-3.2,1.4-4.5
	c0.9-1.1,2.2-1.8,3.6-1.7c0.8,0,1.5,0.2,2.2,0.5c0.7,0.3,1.3,0.8,1.7,1.5V815l1.3-0.1v16.7h-1.1l-0.2-1.8c-0.4,0.7-1,1.2-1.7,1.5
	C617.1,831.7,616.4,831.8,615.6,831.8z M615.6,830.7c0.6,0,1.2-0.1,1.8-0.4c0.5-0.2,0.9-0.6,1.2-1c0.3-0.5,0.5-1,0.7-1.6
	c0.2-0.6,0.2-1.3,0.2-2c0-3.6-1.3-5.3-3.9-5.3c-0.6,0-1.1,0.1-1.6,0.4c-0.5,0.3-0.9,0.7-1.1,1.2c-0.3,0.5-0.5,1.1-0.6,1.6
	c-0.1,0.6-0.2,1.2-0.2,1.8c0,0.5,0,1.1,0.1,1.6c0.1,0.5,0.2,0.9,0.4,1.4c0.2,0.4,0.4,0.8,0.7,1.1c0.3,0.3,0.6,0.6,1,0.8
	C614.6,830.7,615.1,830.8,615.6,830.7L615.6,830.7z"/>
<path class="st3" d="M627.4,831.8c-0.8,0.1-1.6-0.2-2.2-0.7c-0.5-0.6-0.8-1.4-0.7-2.2v-8.3h-1.7l0.1-0.8l1.6-0.2l0.4-2.7l1-0.1v2.8
	h3.5v1h-3.5v8c-0.1,0.6,0.1,1.2,0.4,1.7c0.4,0.3,0.9,0.5,1.5,0.4c0.6,0,1.1-0.1,1.7-0.2l0.1,1C628.7,831.7,628.1,831.8,627.4,831.8z
	"/>
<path class="st3" d="M631.4,831.6V815l1.3-0.1v6c0,0,0,0.1,0,0.1c0,0,0,0.1,0,0.1v0.3c1-1.3,2.5-2.1,4.2-2c2.6,0,3.9,1.6,3.9,4.7
	v7.5h-1.3v-7.2c0.1-1-0.1-2-0.6-2.9c-0.5-0.7-1.4-1-2.2-0.9c-0.9,0-1.9,0.3-2.6,0.8c-0.7,0.5-1.1,1.3-1.3,2.1c0,0.3,0,0.7,0,1.3v6.8
	L631.4,831.6L631.4,831.6z"/>
<polygon class="st1" points="863.9,570.2 366.1,570.2 366.1,544.8 367.3,544.8 367.3,569 862.6,569 862.6,544.8 863.9,544.8 "/>
<rect x="614.4" y="569.6" class="st1" width="1.2" height="211.2"/>
<rect x="614.4" y="593.9" class="st4" width="1.2" height="62.1"/>
</svg>
